<svg version="1.1" xmlns="http://www.w3.org/2000/svg" xmlns:xlink="http://www.w3.org/1999/xlink" stroke-linecap="round" stroke-linejoin="round" stroke-width="0" fill-rule="evenodd" width="47.5mm" height="32.84mm" viewBox="125330 -114045 47500 32840" id="GWXTN7gAdCcg0MKt7Ne8"><defs><circle cx="0" cy="0" r="1250" id="GWXTN7gAdCcg0MKt7Ne8_pad-10"/><g id="GWXTN7gAdCcg0MKt7Ne8_pad-11"><polygon points="-350,-625 350,-625 350,625 -350,625"/><circle cx="-350" cy="-625" r="250"/><circle cx="350" cy="-625" r="250"/><circle cx="350" cy="625" r="250"/><circle cx="-350" cy="625" r="250"/><polygon points="-350,-875 350,-875 350,-375 -350,-375"/><polygon points="600,-625 600,625 100,625 100,-625"/><polygon points="350,375 -350,375 -350,875 350,875"/><polygon points="-100,625 -100,-625 -600,-625 -600,625"/></g><rect x="-600" y="-875" width="1200" height="1750" rx="600" ry="600" id="GWXTN7gAdCcg0MKt7Ne8_pad-12"/><g id="GWXTN7gAdCcg0MKt7Ne8_pad-13"><polygon points="-1099.999,-1099.999 1099.999,-1099.999 1099.999,1099.999 -1099.999,1099.999"/><circle cx="-1099.999" cy="-1099.999" r="250.001"/><circle cx="1099.999" cy="-1099.999" r="250.001"/><circle cx="1099.999" cy="1099.999" r="250.001"/><circle cx="-1099.999" cy="1099.999" r="250.001"/><polygon points="-1099.999,-1350 1099.999,-1350 1099.999,-849.998 -1099.999,-849.998"/><polygon points="1350,-1099.999 1350,1099.999 849.998,1099.999 849.998,-1099.999"/><polygon points="1099.999,849.998 -1099.999,849.998 -1099.999,1350 1099.999,1350"/><polygon points="-849.998,1099.999 -849.998,-1099.999 -1350,-1099.999 -1350,1099.999"/></g><circle cx="0" cy="0" r="1350" id="GWXTN7gAdCcg0MKt7Ne8_pad-14"/><circle cx="0" cy="0" r="325" id="GWXTN7gAdCcg0MKt7Ne8_pad-15"/><rect x="-500" y="-1050" width="1000" height="2100" rx="500" ry="500" id="GWXTN7gAdCcg0MKt7Ne8_pad-16"/><rect x="-500" y="-800" width="1000" height="1600" rx="500" ry="500" id="GWXTN7gAdCcg0MKt7Ne8_pad-17"/></defs><g transform="translate(0,-195250) scale(1,-1)" fill="currentColor" stroke="currentColor"><use xlink:href="#GWXTN7gAdCcg0MKt7Ne8_pad-10" x="126580" y="-112795"/><use xlink:href="#GWXTN7gAdCcg0MKt7Ne8_pad-10" x="171580" y="-82455"/><use xlink:href="#GWXTN7gAdCcg0MKt7Ne8_pad-11" x="154025" y="-103630"/><use xlink:href="#GWXTN7gAdCcg0MKt7Ne8_pad-12" x="156025" y="-103630"/><use xlink:href="#GWXTN7gAdCcg0MKt7Ne8_pad-13" x="164890" y="-108505"/><use xlink:href="#GWXTN7gAdCcg0MKt7Ne8_pad-14" x="168850" y="-108505"/><use xlink:href="#GWXTN7gAdCcg0MKt7Ne8_pad-11" x="165975" y="-103675"/><use xlink:href="#GWXTN7gAdCcg0MKt7Ne8_pad-12" x="167975" y="-103675"/><use xlink:href="#GWXTN7gAdCcg0MKt7Ne8_pad-10" x="171540" y="-112775"/><use xlink:href="#GWXTN7gAdCcg0MKt7Ne8_pad-15" x="152020" y="-86175"/><use xlink:href="#GWXTN7gAdCcg0MKt7Ne8_pad-15" x="146240" y="-86175"/><use xlink:href="#GWXTN7gAdCcg0MKt7Ne8_pad-16" x="153450" y="-86705"/><use xlink:href="#GWXTN7gAdCcg0MKt7Ne8_pad-17" x="153450" y="-82525"/><use xlink:href="#GWXTN7gAdCcg0MKt7Ne8_pad-16" x="144810" y="-86705"/><use xlink:href="#GWXTN7gAdCcg0MKt7Ne8_pad-17" x="144810" y="-82525"/><use xlink:href="#GWXTN7gAdCcg0MKt7Ne8_pad-11" x="142140" y="-103675"/><use xlink:href="#GWXTN7gAdCcg0MKt7Ne8_pad-12" x="144140" y="-103675"/><use xlink:href="#GWXTN7gAdCcg0MKt7Ne8_pad-10" x="126620" y="-82475"/><use xlink:href="#GWXTN7gAdCcg0MKt7Ne8_pad-13" x="141160" y="-108505"/><use xlink:href="#GWXTN7gAdCcg0MKt7Ne8_pad-14" x="145120" y="-108505"/><use xlink:href="#GWXTN7gAdCcg0MKt7Ne8_pad-13" x="129280" y="-108515"/><use xlink:href="#GWXTN7gAdCcg0MKt7Ne8_pad-14" x="133240" y="-108515"/><use xlink:href="#GWXTN7gAdCcg0MKt7Ne8_pad-13" x="153050" y="-108505"/><use xlink:href="#GWXTN7gAdCcg0MKt7Ne8_pad-14" x="157010" y="-108505"/><use xlink:href="#GWXTN7gAdCcg0MKt7Ne8_pad-11" x="130225" y="-103690"/><use xlink:href="#GWXTN7gAdCcg0MKt7Ne8_pad-12" x="132225" y="-103690"/></g></svg>