<svg version="1.1" xmlns="http://www.w3.org/2000/svg" xmlns:xlink="http://www.w3.org/1999/xlink" stroke-linecap="round" stroke-linejoin="round" stroke-width="0" fill-rule="evenodd" width="49.3mm" height="30.7mm" viewBox="124800 -112200 49300 30700" id="xWqzd5Xw0vtJ4vkbPpiL"><defs><circle cx="0" cy="0" r="150" id="xWqzd5Xw0vtJ4vkbPpiL_pad-1"/><circle cx="0" cy="0" r="200" id="xWqzd5Xw0vtJ4vkbPpiL_pad-2"/><circle cx="0" cy="0" r="375" id="xWqzd5Xw0vtJ4vkbPpiL_pad-4"/><circle cx="0" cy="0" r="850" id="xWqzd5Xw0vtJ4vkbPpiL_pad-5"/></defs><g transform="translate(0,-193700) scale(1,-1)" fill="currentColor" stroke="currentColor"><use xlink:href="#xWqzd5Xw0vtJ4vkbPpiL_pad-1" x="136542" y="-98947"/><use xlink:href="#xWqzd5Xw0vtJ4vkbPpiL_pad-1" x="136572" y="-97566"/><use xlink:href="#xWqzd5Xw0vtJ4vkbPpiL_pad-1" x="148468" y="-98947"/><use xlink:href="#xWqzd5Xw0vtJ4vkbPpiL_pad-1" x="148487" y="-97542"/><use xlink:href="#xWqzd5Xw0vtJ4vkbPpiL_pad-1" x="160374" y="-98911"/><use xlink:href="#xWqzd5Xw0vtJ4vkbPpiL_pad-1" x="160396" y="-97523"/><use xlink:href="#xWqzd5Xw0vtJ4vkbPpiL_pad-1" x="172274" y="-98946"/><use xlink:href="#xWqzd5Xw0vtJ4vkbPpiL_pad-1" x="172296" y="-97558"/><use xlink:href="#xWqzd5Xw0vtJ4vkbPpiL_pad-2" x="125000" y="-96700"/><use xlink:href="#xWqzd5Xw0vtJ4vkbPpiL_pad-2" x="125000" y="-98000"/><use xlink:href="#xWqzd5Xw0vtJ4vkbPpiL_pad-2" x="125000" y="-99500"/><use xlink:href="#xWqzd5Xw0vtJ4vkbPpiL_pad-2" x="125000" y="-101000"/><use xlink:href="#xWqzd5Xw0vtJ4vkbPpiL_pad-2" x="125000" y="-103000"/><use xlink:href="#xWqzd5Xw0vtJ4vkbPpiL_pad-2" x="125000" y="-105000"/><use xlink:href="#xWqzd5Xw0vtJ4vkbPpiL_pad-2" x="125000" y="-107000"/><use xlink:href="#xWqzd5Xw0vtJ4vkbPpiL_pad-2" x="125000" y="-109000"/><use xlink:href="#xWqzd5Xw0vtJ4vkbPpiL_pad-2" x="126000" y="-102000"/><use xlink:href="#xWqzd5Xw0vtJ4vkbPpiL_pad-2" x="126000" y="-104000"/><use xlink:href="#xWqzd5Xw0vtJ4vkbPpiL_pad-2" x="126000" y="-106000"/><use xlink:href="#xWqzd5Xw0vtJ4vkbPpiL_pad-2" x="126000" y="-108000"/><use xlink:href="#xWqzd5Xw0vtJ4vkbPpiL_pad-2" x="126100" y="-96700"/><use xlink:href="#xWqzd5Xw0vtJ4vkbPpiL_pad-2" x="127000" y="-103000"/><use xlink:href="#xWqzd5Xw0vtJ4vkbPpiL_pad-2" x="127000" y="-105000"/><use xlink:href="#xWqzd5Xw0vtJ4vkbPpiL_pad-2" x="127000" y="-107000"/><use xlink:href="#xWqzd5Xw0vtJ4vkbPpiL_pad-2" x="127000" y="-109000"/><use xlink:href="#xWqzd5Xw0vtJ4vkbPpiL_pad-2" x="127200" y="-91300"/><use xlink:href="#xWqzd5Xw0vtJ4vkbPpiL_pad-2" x="127200" y="-96700"/><use xlink:href="#xWqzd5Xw0vtJ4vkbPpiL_pad-2" x="128000" y="-104000"/><use xlink:href="#xWqzd5Xw0vtJ4vkbPpiL_pad-2" x="128000" y="-106000"/><use xlink:href="#xWqzd5Xw0vtJ4vkbPpiL_pad-2" x="128800" y="-101450"/><use xlink:href="#xWqzd5Xw0vtJ4vkbPpiL_pad-2" x="129000" y="-103000"/><use xlink:href="#xWqzd5Xw0vtJ4vkbPpiL_pad-2" x="129000" y="-105000"/><use xlink:href="#xWqzd5Xw0vtJ4vkbPpiL_pad-2" x="130000" y="-106000"/><use xlink:href="#xWqzd5Xw0vtJ4vkbPpiL_pad-2" x="130500" y="-97500"/><use xlink:href="#xWqzd5Xw0vtJ4vkbPpiL_pad-2" x="130500" y="-98700"/><use xlink:href="#xWqzd5Xw0vtJ4vkbPpiL_pad-2" x="130500" y="-99900"/><use xlink:href="#xWqzd5Xw0vtJ4vkbPpiL_pad-2" x="131250" y="-96900"/><use xlink:href="#xWqzd5Xw0vtJ4vkbPpiL_pad-2" x="131250" y="-98100"/><use xlink:href="#xWqzd5Xw0vtJ4vkbPpiL_pad-2" x="131250" y="-99300"/><use xlink:href="#xWqzd5Xw0vtJ4vkbPpiL_pad-2" x="131250" y="-100450"/><use xlink:href="#xWqzd5Xw0vtJ4vkbPpiL_pad-2" x="132000" y="-97500"/><use xlink:href="#xWqzd5Xw0vtJ4vkbPpiL_pad-2" x="132000" y="-98700"/><use xlink:href="#xWqzd5Xw0vtJ4vkbPpiL_pad-2" x="132000" y="-99900"/><use xlink:href="#xWqzd5Xw0vtJ4vkbPpiL_pad-2" x="133300" y="-96000"/><use xlink:href="#xWqzd5Xw0vtJ4vkbPpiL_pad-2" x="135350" y="-91300"/><use xlink:href="#xWqzd5Xw0vtJ4vkbPpiL_pad-2" x="137000" y="-103000"/><use xlink:href="#xWqzd5Xw0vtJ4vkbPpiL_pad-2" x="137000" y="-105000"/><use xlink:href="#xWqzd5Xw0vtJ4vkbPpiL_pad-2" x="137000" y="-107000"/><use xlink:href="#xWqzd5Xw0vtJ4vkbPpiL_pad-2" x="137000" y="-109000"/><use xlink:href="#xWqzd5Xw0vtJ4vkbPpiL_pad-2" x="137000" y="-111000"/><use xlink:href="#xWqzd5Xw0vtJ4vkbPpiL_pad-2" x="138000" y="-102000"/><use xlink:href="#xWqzd5Xw0vtJ4vkbPpiL_pad-2" x="138000" y="-104000"/><use xlink:href="#xWqzd5Xw0vtJ4vkbPpiL_pad-2" x="138000" y="-106000"/><use xlink:href="#xWqzd5Xw0vtJ4vkbPpiL_pad-2" x="138000" y="-108000"/><use xlink:href="#xWqzd5Xw0vtJ4vkbPpiL_pad-2" x="138000" y="-110000"/><use xlink:href="#xWqzd5Xw0vtJ4vkbPpiL_pad-2" x="138000" y="-112000"/><use xlink:href="#xWqzd5Xw0vtJ4vkbPpiL_pad-2" x="138100" y="-96700"/><use xlink:href="#xWqzd5Xw0vtJ4vkbPpiL_pad-2" x="139000" y="-103000"/><use xlink:href="#xWqzd5Xw0vtJ4vkbPpiL_pad-2" x="139000" y="-105000"/><use xlink:href="#xWqzd5Xw0vtJ4vkbPpiL_pad-2" x="139000" y="-107000"/><use xlink:href="#xWqzd5Xw0vtJ4vkbPpiL_pad-2" x="139000" y="-109000"/><use xlink:href="#xWqzd5Xw0vtJ4vkbPpiL_pad-2" x="139000" y="-111000"/><use xlink:href="#xWqzd5Xw0vtJ4vkbPpiL_pad-2" x="139050" y="-91250"/><use xlink:href="#xWqzd5Xw0vtJ4vkbPpiL_pad-2" x="139200" y="-96700"/><use xlink:href="#xWqzd5Xw0vtJ4vkbPpiL_pad-2" x="140000" y="-104000"/><use xlink:href="#xWqzd5Xw0vtJ4vkbPpiL_pad-2" x="140000" y="-106000"/><use xlink:href="#xWqzd5Xw0vtJ4vkbPpiL_pad-2" x="140700" y="-101450"/><use xlink:href="#xWqzd5Xw0vtJ4vkbPpiL_pad-2" x="141000" y="-103000"/><use xlink:href="#xWqzd5Xw0vtJ4vkbPpiL_pad-2" x="141000" y="-105000"/><use xlink:href="#xWqzd5Xw0vtJ4vkbPpiL_pad-2" x="142400" y="-97450"/><use xlink:href="#xWqzd5Xw0vtJ4vkbPpiL_pad-2" x="142400" y="-98650"/><use xlink:href="#xWqzd5Xw0vtJ4vkbPpiL_pad-2" x="142400" y="-99850"/><use xlink:href="#xWqzd5Xw0vtJ4vkbPpiL_pad-2" x="143150" y="-96900"/><use xlink:href="#xWqzd5Xw0vtJ4vkbPpiL_pad-2" x="143150" y="-98050"/><use xlink:href="#xWqzd5Xw0vtJ4vkbPpiL_pad-2" x="143150" y="-99250"/><use xlink:href="#xWqzd5Xw0vtJ4vkbPpiL_pad-2" x="143150" y="-100450"/><use xlink:href="#xWqzd5Xw0vtJ4vkbPpiL_pad-2" x="143900" y="-97450"/><use xlink:href="#xWqzd5Xw0vtJ4vkbPpiL_pad-2" x="143900" y="-98650"/><use xlink:href="#xWqzd5Xw0vtJ4vkbPpiL_pad-2" x="143900" y="-99850"/><use xlink:href="#xWqzd5Xw0vtJ4vkbPpiL_pad-2" x="144800" y="-83900"/><use xlink:href="#xWqzd5Xw0vtJ4vkbPpiL_pad-2" x="144800" y="-85100"/><use xlink:href="#xWqzd5Xw0vtJ4vkbPpiL_pad-2" x="145650" y="-96050"/><use xlink:href="#xWqzd5Xw0vtJ4vkbPpiL_pad-2" x="145800" y="-81700"/><use xlink:href="#xWqzd5Xw0vtJ4vkbPpiL_pad-2" x="145800" y="-82600"/><use xlink:href="#xWqzd5Xw0vtJ4vkbPpiL_pad-2" x="145800" y="-83500"/><use xlink:href="#xWqzd5Xw0vtJ4vkbPpiL_pad-2" x="145800" y="-84400"/><use xlink:href="#xWqzd5Xw0vtJ4vkbPpiL_pad-2" x="145800" y="-85300"/><use xlink:href="#xWqzd5Xw0vtJ4vkbPpiL_pad-2" x="147400" y="-91300"/><use xlink:href="#xWqzd5Xw0vtJ4vkbPpiL_pad-2" x="148900" y="-103000"/><use xlink:href="#xWqzd5Xw0vtJ4vkbPpiL_pad-2" x="148900" y="-105000"/><use xlink:href="#xWqzd5Xw0vtJ4vkbPpiL_pad-2" x="148900" y="-107000"/><use xlink:href="#xWqzd5Xw0vtJ4vkbPpiL_pad-2" x="148900" y="-109000"/><use xlink:href="#xWqzd5Xw0vtJ4vkbPpiL_pad-2" x="148900" y="-111000"/><use xlink:href="#xWqzd5Xw0vtJ4vkbPpiL_pad-2" x="149900" y="-102050"/><use xlink:href="#xWqzd5Xw0vtJ4vkbPpiL_pad-2" x="149900" y="-104000"/><use xlink:href="#xWqzd5Xw0vtJ4vkbPpiL_pad-2" x="149900" y="-106000"/><use xlink:href="#xWqzd5Xw0vtJ4vkbPpiL_pad-2" x="149900" y="-108000"/><use xlink:href="#xWqzd5Xw0vtJ4vkbPpiL_pad-2" x="149900" y="-110000"/><use xlink:href="#xWqzd5Xw0vtJ4vkbPpiL_pad-2" x="149900" y="-112000"/><use xlink:href="#xWqzd5Xw0vtJ4vkbPpiL_pad-2" x="150100" y="-96700"/><use xlink:href="#xWqzd5Xw0vtJ4vkbPpiL_pad-2" x="150900" y="-103000"/><use xlink:href="#xWqzd5Xw0vtJ4vkbPpiL_pad-2" x="150900" y="-105000"/><use xlink:href="#xWqzd5Xw0vtJ4vkbPpiL_pad-2" x="150900" y="-107000"/><use xlink:href="#xWqzd5Xw0vtJ4vkbPpiL_pad-2" x="150900" y="-109000"/><use xlink:href="#xWqzd5Xw0vtJ4vkbPpiL_pad-2" x="150900" y="-111000"/><use xlink:href="#xWqzd5Xw0vtJ4vkbPpiL_pad-2" x="151000" y="-91300"/><use xlink:href="#xWqzd5Xw0vtJ4vkbPpiL_pad-2" x="151200" y="-96700"/><use xlink:href="#xWqzd5Xw0vtJ4vkbPpiL_pad-2" x="152000" y="-104000"/><use xlink:href="#xWqzd5Xw0vtJ4vkbPpiL_pad-2" x="152000" y="-106000"/><use xlink:href="#xWqzd5Xw0vtJ4vkbPpiL_pad-2" x="152400" y="-81700"/><use xlink:href="#xWqzd5Xw0vtJ4vkbPpiL_pad-2" x="152400" y="-82600"/><use xlink:href="#xWqzd5Xw0vtJ4vkbPpiL_pad-2" x="152400" y="-83500"/><use xlink:href="#xWqzd5Xw0vtJ4vkbPpiL_pad-2" x="152400" y="-84400"/><use xlink:href="#xWqzd5Xw0vtJ4vkbPpiL_pad-2" x="152420" y="-85270"/><use xlink:href="#xWqzd5Xw0vtJ4vkbPpiL_pad-2" x="152600" y="-101450"/><use xlink:href="#xWqzd5Xw0vtJ4vkbPpiL_pad-2" x="153000" y="-103000"/><use xlink:href="#xWqzd5Xw0vtJ4vkbPpiL_pad-2" x="153000" y="-105000"/><use xlink:href="#xWqzd5Xw0vtJ4vkbPpiL_pad-2" x="153500" y="-83900"/><use xlink:href="#xWqzd5Xw0vtJ4vkbPpiL_pad-2" x="153500" y="-85100"/><use xlink:href="#xWqzd5Xw0vtJ4vkbPpiL_pad-2" x="154000" y="-106000"/><use xlink:href="#xWqzd5Xw0vtJ4vkbPpiL_pad-2" x="154300" y="-97450"/><use xlink:href="#xWqzd5Xw0vtJ4vkbPpiL_pad-2" x="154300" y="-98650"/><use xlink:href="#xWqzd5Xw0vtJ4vkbPpiL_pad-2" x="154300" y="-99850"/><use xlink:href="#xWqzd5Xw0vtJ4vkbPpiL_pad-2" x="155050" y="-96900"/><use xlink:href="#xWqzd5Xw0vtJ4vkbPpiL_pad-2" x="155050" y="-98050"/><use xlink:href="#xWqzd5Xw0vtJ4vkbPpiL_pad-2" x="155050" y="-99250"/><use xlink:href="#xWqzd5Xw0vtJ4vkbPpiL_pad-2" x="155050" y="-100450"/><use xlink:href="#xWqzd5Xw0vtJ4vkbPpiL_pad-2" x="155800" y="-97450"/><use xlink:href="#xWqzd5Xw0vtJ4vkbPpiL_pad-2" x="155800" y="-98650"/><use xlink:href="#xWqzd5Xw0vtJ4vkbPpiL_pad-2" x="155800" y="-99850"/><use xlink:href="#xWqzd5Xw0vtJ4vkbPpiL_pad-2" x="157550" y="-96000"/><use xlink:href="#xWqzd5Xw0vtJ4vkbPpiL_pad-2" x="159250" y="-91250"/><use xlink:href="#xWqzd5Xw0vtJ4vkbPpiL_pad-2" x="160800" y="-103000"/><use xlink:href="#xWqzd5Xw0vtJ4vkbPpiL_pad-2" x="160800" y="-105000"/><use xlink:href="#xWqzd5Xw0vtJ4vkbPpiL_pad-2" x="160800" y="-107000"/><use xlink:href="#xWqzd5Xw0vtJ4vkbPpiL_pad-2" x="160800" y="-109000"/><use xlink:href="#xWqzd5Xw0vtJ4vkbPpiL_pad-2" x="160800" y="-111000"/><use xlink:href="#xWqzd5Xw0vtJ4vkbPpiL_pad-2" x="161800" y="-102050"/><use xlink:href="#xWqzd5Xw0vtJ4vkbPpiL_pad-2" x="161800" y="-104000"/><use xlink:href="#xWqzd5Xw0vtJ4vkbPpiL_pad-2" x="161800" y="-106000"/><use xlink:href="#xWqzd5Xw0vtJ4vkbPpiL_pad-2" x="161800" y="-108000"/><use xlink:href="#xWqzd5Xw0vtJ4vkbPpiL_pad-2" x="161800" y="-110000"/><use xlink:href="#xWqzd5Xw0vtJ4vkbPpiL_pad-2" x="161800" y="-112000"/><use xlink:href="#xWqzd5Xw0vtJ4vkbPpiL_pad-2" x="161900" y="-96700"/><use xlink:href="#xWqzd5Xw0vtJ4vkbPpiL_pad-2" x="162800" y="-103000"/><use xlink:href="#xWqzd5Xw0vtJ4vkbPpiL_pad-2" x="162800" y="-105000"/><use xlink:href="#xWqzd5Xw0vtJ4vkbPpiL_pad-2" x="162800" y="-107000"/><use xlink:href="#xWqzd5Xw0vtJ4vkbPpiL_pad-2" x="162800" y="-109000"/><use xlink:href="#xWqzd5Xw0vtJ4vkbPpiL_pad-2" x="162800" y="-111000"/><use xlink:href="#xWqzd5Xw0vtJ4vkbPpiL_pad-2" x="162850" y="-91300"/><use xlink:href="#xWqzd5Xw0vtJ4vkbPpiL_pad-2" x="163100" y="-96700"/><use xlink:href="#xWqzd5Xw0vtJ4vkbPpiL_pad-2" x="164000" y="-104000"/><use xlink:href="#xWqzd5Xw0vtJ4vkbPpiL_pad-2" x="164000" y="-106000"/><use xlink:href="#xWqzd5Xw0vtJ4vkbPpiL_pad-2" x="164500" y="-101450"/><use xlink:href="#xWqzd5Xw0vtJ4vkbPpiL_pad-2" x="165000" y="-103000"/><use xlink:href="#xWqzd5Xw0vtJ4vkbPpiL_pad-2" x="165000" y="-105000"/><use xlink:href="#xWqzd5Xw0vtJ4vkbPpiL_pad-2" x="166000" y="-106000"/><use xlink:href="#xWqzd5Xw0vtJ4vkbPpiL_pad-2" x="166200" y="-97450"/><use xlink:href="#xWqzd5Xw0vtJ4vkbPpiL_pad-2" x="166200" y="-98650"/><use xlink:href="#xWqzd5Xw0vtJ4vkbPpiL_pad-2" x="166200" y="-99850"/><use xlink:href="#xWqzd5Xw0vtJ4vkbPpiL_pad-2" x="166950" y="-96950"/><use xlink:href="#xWqzd5Xw0vtJ4vkbPpiL_pad-2" x="166950" y="-98050"/><use xlink:href="#xWqzd5Xw0vtJ4vkbPpiL_pad-2" x="166950" y="-99250"/><use xlink:href="#xWqzd5Xw0vtJ4vkbPpiL_pad-2" x="166950" y="-100450"/><use xlink:href="#xWqzd5Xw0vtJ4vkbPpiL_pad-2" x="167700" y="-97450"/><use xlink:href="#xWqzd5Xw0vtJ4vkbPpiL_pad-2" x="167700" y="-98650"/><use xlink:href="#xWqzd5Xw0vtJ4vkbPpiL_pad-2" x="167700" y="-99850"/><use xlink:href="#xWqzd5Xw0vtJ4vkbPpiL_pad-2" x="169450" y="-96050"/><use xlink:href="#xWqzd5Xw0vtJ4vkbPpiL_pad-2" x="171050" y="-91300"/><use xlink:href="#xWqzd5Xw0vtJ4vkbPpiL_pad-2" x="172900" y="-102000"/><use xlink:href="#xWqzd5Xw0vtJ4vkbPpiL_pad-2" x="173900" y="-96700"/><use xlink:href="#xWqzd5Xw0vtJ4vkbPpiL_pad-2" x="173900" y="-101000"/><use xlink:href="#xWqzd5Xw0vtJ4vkbPpiL_pad-4" x="130225" y="-103690"/><use xlink:href="#xWqzd5Xw0vtJ4vkbPpiL_pad-4" x="132225" y="-103690"/><use xlink:href="#xWqzd5Xw0vtJ4vkbPpiL_pad-4" x="142140" y="-103675"/><use xlink:href="#xWqzd5Xw0vtJ4vkbPpiL_pad-4" x="144140" y="-103675"/><use xlink:href="#xWqzd5Xw0vtJ4vkbPpiL_pad-4" x="154025" y="-103630"/><use xlink:href="#xWqzd5Xw0vtJ4vkbPpiL_pad-4" x="156025" y="-103630"/><use xlink:href="#xWqzd5Xw0vtJ4vkbPpiL_pad-4" x="165975" y="-103675"/><use xlink:href="#xWqzd5Xw0vtJ4vkbPpiL_pad-4" x="167975" y="-103675"/><use xlink:href="#xWqzd5Xw0vtJ4vkbPpiL_pad-5" x="129280" y="-108515"/><use xlink:href="#xWqzd5Xw0vtJ4vkbPpiL_pad-5" x="133240" y="-108515"/><use xlink:href="#xWqzd5Xw0vtJ4vkbPpiL_pad-5" x="141160" y="-108505"/><use xlink:href="#xWqzd5Xw0vtJ4vkbPpiL_pad-5" x="145120" y="-108505"/><use xlink:href="#xWqzd5Xw0vtJ4vkbPpiL_pad-5" x="153050" y="-108505"/><use xlink:href="#xWqzd5Xw0vtJ4vkbPpiL_pad-5" x="157010" y="-108505"/><use xlink:href="#xWqzd5Xw0vtJ4vkbPpiL_pad-5" x="164890" y="-108505"/><use xlink:href="#xWqzd5Xw0vtJ4vkbPpiL_pad-5" x="168850" y="-108505"/><path d="M 144810 -82825 144810 -82225 M 144810 -87255 144810 -86155 M 153450 -82825 153450 -82225 M 153450 -87255 153450 -86155" fill="none" stroke-width="600"/></g></svg>