<svg version="1.1" xmlns="http://www.w3.org/2000/svg" xmlns:xlink="http://www.w3.org/1999/xlink" stroke-linecap="round" stroke-linejoin="round" stroke-width="0" fill-rule="evenodd" width="48.05mm" height="32.84mm" viewBox="125330 -114045 48050 32840" id="Ld_3H2yckzwrb7DaTtNF"><defs><g id="Ld_3H2yckzwrb7DaTtNF_pad-11"><polygon points="-225,-250 225,-250 225,250 -225,250"/><circle cx="-225" cy="-250" r="225"/><circle cx="225" cy="-250" r="225"/><circle cx="225" cy="250" r="225"/><circle cx="-225" cy="250" r="225"/><polygon points="-225,-475 225,-475 225,-25 -225,-25"/><polygon points="450,-250 450,250 0,250 0,-250"/><polygon points="225,25 -225,25 -225,475 225,475"/><polygon points="0,250 0,-250 -450,-250 -450,250"/></g><g id="Ld_3H2yckzwrb7DaTtNF_pad-12"><polygon points="-218.75,-256.25 218.75,-256.25 218.75,256.25 -218.75,256.25"/><circle cx="-218.75" cy="-256.25" r="218.75"/><circle cx="218.75" cy="-256.25" r="218.75"/><circle cx="218.75" cy="256.25" r="218.75"/><circle cx="-218.75" cy="256.25" r="218.75"/><polygon points="-218.75,-475 218.75,-475 218.75,-37.5 -218.75,-37.5"/><polygon points="437.5,-256.25 437.5,256.25 0,256.25 0,-256.25"/><polygon points="218.75,37.5 -218.75,37.5 -218.75,475 218.75,475"/><polygon points="0,256.25 0,-256.25 -437.5,-256.25 -437.5,256.25"/></g><circle cx="0" cy="0" r="1250" id="Ld_3H2yckzwrb7DaTtNF_pad-13"/><g id="Ld_3H2yckzwrb7DaTtNF_pad-14"><polygon points="218.75,256.25 -218.75,256.25 -218.75,-256.25 218.75,-256.25"/><circle cx="218.75" cy="256.25" r="218.75"/><circle cx="-218.75" cy="256.25" r="218.75"/><circle cx="-218.75" cy="-256.25" r="218.75"/><circle cx="218.75" cy="-256.25" r="218.75"/><polygon points="218.75,37.5 -218.75,37.5 -218.75,475 218.75,475"/><polygon points="0,256.25 0,-256.25 -437.5,-256.25 -437.5,256.25"/><polygon points="-218.75,-475 218.75,-475 218.75,-37.5 -218.75,-37.5"/><polygon points="437.5,-256.25 437.5,256.25 0,256.25 0,-256.25"/></g><g id="Ld_3H2yckzwrb7DaTtNF_pad-15"><polygon points="275,-200 275,200 -275,200 -275,-200"/><circle cx="275" cy="-200" r="200"/><circle cx="275" cy="200" r="200"/><circle cx="-275" cy="200" r="200"/><circle cx="-275" cy="-200" r="200"/><polygon points="475,-200 475,200 75,200 75,-200"/><polygon points="275,0 -275,0 -275,400 275,400"/><polygon points="-75,200 -75,-200 -475,-200 -475,200"/><polygon points="-275,-400 275,-400 275,0 -275,0"/></g><g id="Ld_3H2yckzwrb7DaTtNF_pad-16"><polygon points="-350,-625 350,-625 350,625 -350,625"/><circle cx="-350" cy="-625" r="250"/><circle cx="350" cy="-625" r="250"/><circle cx="350" cy="625" r="250"/><circle cx="-350" cy="625" r="250"/><polygon points="-350,-875 350,-875 350,-375 -350,-375"/><polygon points="600,-625 600,625 100,625 100,-625"/><polygon points="350,375 -350,375 -350,875 350,875"/><polygon points="-100,625 -100,-625 -600,-625 -600,625"/></g><rect x="-600" y="-875" width="1200" height="1750" rx="600" ry="600" id="Ld_3H2yckzwrb7DaTtNF_pad-17"/><g id="Ld_3H2yckzwrb7DaTtNF_pad-18"><polygon points="-1099.999,-1099.999 1099.999,-1099.999 1099.999,1099.999 -1099.999,1099.999"/><circle cx="-1099.999" cy="-1099.999" r="250.001"/><circle cx="1099.999" cy="-1099.999" r="250.001"/><circle cx="1099.999" cy="1099.999" r="250.001"/><circle cx="-1099.999" cy="1099.999" r="250.001"/><polygon points="-1099.999,-1350 1099.999,-1350 1099.999,-849.998 -1099.999,-849.998"/><polygon points="1350,-1099.999 1350,1099.999 849.998,1099.999 849.998,-1099.999"/><polygon points="1099.999,849.998 -1099.999,849.998 -1099.999,1350 1099.999,1350"/><polygon points="-849.998,1099.999 -849.998,-1099.999 -1350,-1099.999 -1350,1099.999"/></g><circle cx="0" cy="0" r="1350" id="Ld_3H2yckzwrb7DaTtNF_pad-19"/><g id="Ld_3H2yckzwrb7DaTtNF_pad-20"><polygon points="-200,-275 200,-275 200,275 -200,275"/><circle cx="-200" cy="-275" r="200"/><circle cx="200" cy="-275" r="200"/><circle cx="200" cy="275" r="200"/><circle cx="-200" cy="275" r="200"/><polygon points="-200,-475 200,-475 200,-75 -200,-75"/><polygon points="400,-275 400,275 0,275 0,-275"/><polygon points="200,75 -200,75 -200,475 200,475"/><polygon points="0,275 0,-275 -400,-275 -400,275"/></g><circle cx="0" cy="0" r="325" id="Ld_3H2yckzwrb7DaTtNF_pad-21"/><rect x="-300" y="-725" width="600" height="1450" id="Ld_3H2yckzwrb7DaTtNF_pad-22"/><rect x="-150" y="-725" width="300" height="1450" id="Ld_3H2yckzwrb7DaTtNF_pad-23"/><rect x="-500" y="-1050" width="1000" height="2100" rx="500" ry="500" id="Ld_3H2yckzwrb7DaTtNF_pad-24"/><rect x="-500" y="-800" width="1000" height="1600" rx="500" ry="500" id="Ld_3H2yckzwrb7DaTtNF_pad-25"/><g id="Ld_3H2yckzwrb7DaTtNF_pad-26"><polygon points="200,275 -200,275 -200,-275 200,-275"/><circle cx="200" cy="275" r="200"/><circle cx="-200" cy="275" r="200"/><circle cx="-200" cy="-275" r="200"/><circle cx="200" cy="-275" r="200"/><polygon points="200,75 -200,75 -200,475 200,475"/><polygon points="0,275 0,-275 -400,-275 -400,275"/><polygon points="-200,-475 200,-475 200,-75 -200,-75"/><polygon points="400,-275 400,275 0,275 0,-275"/></g><g id="Ld_3H2yckzwrb7DaTtNF_pad-27"><polygon points="362.5,1425 -362.5,1425 -362.5,-1425 362.5,-1425"/><circle cx="362.5" cy="1425" r="250"/><circle cx="-362.5" cy="1425" r="250"/><circle cx="-362.5" cy="-1425" r="250"/><circle cx="362.5" cy="-1425" r="250"/><polygon points="362.5,1175 -362.5,1175 -362.5,1675 362.5,1675"/><polygon points="-112.5,1425 -112.5,-1425 -612.5,-1425 -612.5,1425"/><polygon points="-362.5,-1675 362.5,-1675 362.5,-1175 -362.5,-1175"/><polygon points="612.5,-1425 612.5,1425 112.5,1425 112.5,-1425"/></g><g id="Ld_3H2yckzwrb7DaTtNF_pad-28"><polygon points="-943,-258 943,-258 943,258 -943,258"/><circle cx="-943" cy="-258" r="42"/><circle cx="943" cy="-258" r="42"/><circle cx="943" cy="258" r="42"/><circle cx="-943" cy="258" r="42"/><polygon points="-943,-300 943,-300 943,-216 -943,-216"/><polygon points="985,-258 985,258 901,258 901,-258"/><polygon points="943,216 -943,216 -943,300 943,300"/><polygon points="-901,258 -901,-258 -985,-258 -985,258"/></g><rect x="-1206.5" y="-1651" width="2413" height="3302" id="Ld_3H2yckzwrb7DaTtNF_pad-29"/></defs><g transform="translate(0,-195250) scale(1,-1)" fill="currentColor" stroke="currentColor"><path d="M 138873.272 -86150.09 138882.666 -86132.682 138897.179 -86107.694 138912.199 -86084.053 138927.725 -86061.761 138943.757 -86040.816 138960.297 -86021.22 138977.343 -86002.972 138994.895 -85986.072 139012.954 -85970.52 139031.52 -85956.316 139050.593 -85943.461 139069.957 -85931.763 139089.399 -85921.216 139108.918 -85911.819 139128.514 -85903.573 139148.187 -85896.477 139167.938 -85890.533 139187.766 -85885.738 139207.671 -85882.095 139227.654 -85879.602 139247.714 -85878.259 139261.13 -85878.004 139281.936 -85878.636 139302.527 -85880.532 139322.904 -85883.692 139343.066 -85888.117 139363.013 -85893.806 139382.746 -85900.758 139390.579 -85903.893 139409.748 -85912.58 139428.179 -85922.46 139445.87 -85933.532 139462.821 -85945.796 139479.033 -85959.254 139494.506 -85973.903 139500.488 -85980.097 139514.959 -85996.24 139528.452 -86013.528 139540.967 -86031.961 139552.504 -86051.538 139563.063 -86072.261 139572.645 -86094.128 139576.203 -86103.196 139582.844 -86121.842 139588.599 -86141.145 139593.468 -86161.104 139597.452 -86181.72 139600.551 -86202.992 139602.765 -86224.92 139604.093 -86247.505 139604.535 -86270.746 139604.035 -86294.701 139602.532 -86318.631 139600.027 -86342.538 139596.521 -86366.421 139592.013 -86390.28 139587.686 -86409.35 139584.019 -86423.642 139578.562 -86442.754 139572.448 -86462.233 139565.678 -86482.077 139558.251 -86502.288 139550.169 -86522.866 139541.429 -86543.81 139532.033 -86565.12 139521.981 -86586.796 139511.403 -86608.931 139500.183 -86631.615 139488.322 -86654.849 139479.005 -86672.634 139469.328 -86690.729 139459.29 -86709.133 139448.892 -86727.847 139438.133 -86746.869 139427.013 -86766.2 139419.399 -86779.26 139407.77 -86799.109 139395.78 -86819.457 139383.43 -86840.302 139370.719 -86861.646 139357.647 -86883.488 139344.215 -86905.827 139330.422 -86928.665 139316.268 -86952.001 139301.753 -86975.834 139286.879 -87000.166 139276.762 -87016.664 139266.488 -87033.4 139256.062 -87050.392 139245.483 -87067.64 139234.752 -87085.143 139223.868 -87102.903 139212.831 -87120.917 139201.642 -87139.188 139190.3 -87157.714 139178.805 -87176.496 139167.158 -87195.534 139155.358 -87214.827 139143.405 -87234.376 139131.3 -87254.18 139119.042 -87274.241 139106.631 -87294.557 139094.068 -87315.129 139081.358 -87336.004 139068.506 -87357.23 139055.514 -87378.807 139042.38 -87400.736 139029.105 -87423.015 139015.689 -87445.646 139002.131 -87468.628 138988.433 -87491.96 138974.593 -87515.644 138960.612 -87539.679 138946.49 -87564.065 138932.226 -87588.803 138917.822 -87613.891 138903.276 -87639.33 138888.589 -87665.121 138873.761 -87691.263 138858.698 -87665.121 138843.795 -87639.33 138829.053 -87613.891 138814.471 -87588.803 138800.049 -87564.065 138785.788 -87539.679 138771.686 -87515.644 138757.745 -87491.96 138743.965 -87468.628 138730.344 -87445.646 138716.884 -87423.015 138703.585 -87400.736 138690.445 -87378.807 138677.466 -87357.23 138664.647 -87336.004 138651.988 -87315.129 138639.543 -87294.557 138627.243 -87274.241 138615.089 -87254.18 138603.079 -87234.376 138591.214 -87214.827 138579.494 -87195.534 138567.919 -87176.496 138556.489 -87157.714 138545.205 -87139.188 138534.065 -87120.917 138523.07 -87102.903 138512.22 -87085.143 138501.516 -87067.64 138490.956 -87050.392 138480.541 -87033.4 138470.272 -87016.664 138455.152 -86992 138440.384 -86967.834 138425.969 -86944.167 138411.905 -86920.997 138398.194 -86898.325 138384.834 -86876.152 138371.827 -86854.476 138359.172 -86833.299 138346.868 -86812.619 138334.917 -86792.437 138327.145 -86779.26 138315.868 -86759.722 138304.935 -86740.494 138294.344 -86721.575 138284.098 -86702.964 138274.194 -86684.663 138264.634 -86666.671 138255.418 -86648.989 138243.664 -86625.892 138232.52 -86603.346 138224.563 -86586.796 138214.626 -86565.105 138205.329 -86543.749 138196.674 -86522.728 138188.66 -86502.044 138181.287 -86481.696 138174.555 -86461.683 138168.464 -86442.006 138163.014 -86422.665 138158.206 -86403.515 138154.038 -86384.411 138149.731 -86360.595 138146.425 -86336.85 138144.121 -86313.177 138142.818 -86289.576 138142.498 -86270.746 138142.933 -86247.505 138144.238 -86224.92 138146.413 -86202.992 138149.459 -86181.72 138153.374 -86161.104 138158.16 -86141.145 138163.816 -86121.842 138170.341 -86103.196 138179.66 -86080.87 138189.909 -86059.69 138201.089 -86039.654 138213.198 -86020.764 138226.238 -86003.018 138240.208 -85986.417 138246.057 -85980.097 138261.234 -85964.97 138277.15 -85951.036 138293.806 -85938.294 138311.201 -85926.745 138329.335 -85916.389 138348.209 -85907.225 138355.966 -85903.893 138375.625 -85896.435 138395.522 -85890.241 138415.658 -85885.31 138436.032 -85881.644 138456.645 -85879.243 138477.496 -85878.105 138485.903 -85878.004 138505.927 -85878.579 138525.883 -85880.305 138545.769 -85883.181 138565.587 -85887.209 138585.337 -85892.386 138605.017 -85898.715 138624.629 -85906.194 138644.173 -85914.823 138663.647 -85924.604 138683.053 -85935.534 138695.952 -85943.461 138715.024 -85956.316 138733.59 -85970.52 138751.649 -85986.072 138769.202 -86002.972 138786.248 -86021.22 138802.787 -86040.816 138818.82 -86061.761 138834.346 -86084.053 138849.366 -86107.694 138863.879 -86132.682 138873.272 -86150.09"/><use xlink:href="#Ld_3H2yckzwrb7DaTtNF_pad-11" x="159480" y="-96560"/><use xlink:href="#Ld_3H2yckzwrb7DaTtNF_pad-11" x="161030" y="-96560"/><use xlink:href="#Ld_3H2yckzwrb7DaTtNF_pad-12" x="140002.5" y="-91285"/><use xlink:href="#Ld_3H2yckzwrb7DaTtNF_pad-12" x="141577.5" y="-91285"/><use xlink:href="#Ld_3H2yckzwrb7DaTtNF_pad-13" x="126580" y="-112795"/><use xlink:href="#Ld_3H2yckzwrb7DaTtNF_pad-14" x="134340" y="-91285"/><use xlink:href="#Ld_3H2yckzwrb7DaTtNF_pad-14" x="132765" y="-91285"/><use xlink:href="#Ld_3H2yckzwrb7DaTtNF_pad-15" x="126775" y="-99475"/><use xlink:href="#Ld_3H2yckzwrb7DaTtNF_pad-15" x="126775" y="-97825"/><use xlink:href="#Ld_3H2yckzwrb7DaTtNF_pad-11" x="135665" y="-101000"/><use xlink:href="#Ld_3H2yckzwrb7DaTtNF_pad-11" x="137215" y="-101000"/><use xlink:href="#Ld_3H2yckzwrb7DaTtNF_pad-13" x="171580" y="-82455"/><use xlink:href="#Ld_3H2yckzwrb7DaTtNF_pad-16" x="154025" y="-103630"/><use xlink:href="#Ld_3H2yckzwrb7DaTtNF_pad-17" x="156025" y="-103630"/><use xlink:href="#Ld_3H2yckzwrb7DaTtNF_pad-18" x="164890" y="-108505"/><use xlink:href="#Ld_3H2yckzwrb7DaTtNF_pad-19" x="168850" y="-108505"/><use xlink:href="#Ld_3H2yckzwrb7DaTtNF_pad-16" x="165975" y="-103675"/><use xlink:href="#Ld_3H2yckzwrb7DaTtNF_pad-17" x="167975" y="-103675"/><use xlink:href="#Ld_3H2yckzwrb7DaTtNF_pad-13" x="171540" y="-112775"/><use xlink:href="#Ld_3H2yckzwrb7DaTtNF_pad-20" x="135605" y="-99530"/><use xlink:href="#Ld_3H2yckzwrb7DaTtNF_pad-20" x="137255" y="-99530"/><use xlink:href="#Ld_3H2yckzwrb7DaTtNF_pad-21" x="152020" y="-86175"/><use xlink:href="#Ld_3H2yckzwrb7DaTtNF_pad-21" x="146240" y="-86175"/><use xlink:href="#Ld_3H2yckzwrb7DaTtNF_pad-22" x="152380" y="-87620"/><use xlink:href="#Ld_3H2yckzwrb7DaTtNF_pad-22" x="151580" y="-87620"/><use xlink:href="#Ld_3H2yckzwrb7DaTtNF_pad-23" x="150380" y="-87620"/><use xlink:href="#Ld_3H2yckzwrb7DaTtNF_pad-23" x="149380" y="-87620"/><use xlink:href="#Ld_3H2yckzwrb7DaTtNF_pad-23" x="148880" y="-87620"/><use xlink:href="#Ld_3H2yckzwrb7DaTtNF_pad-23" x="147880" y="-87620"/><use xlink:href="#Ld_3H2yckzwrb7DaTtNF_pad-22" x="146680" y="-87620"/><use xlink:href="#Ld_3H2yckzwrb7DaTtNF_pad-22" x="145880" y="-87620"/><use xlink:href="#Ld_3H2yckzwrb7DaTtNF_pad-22" x="145880" y="-87620"/><use xlink:href="#Ld_3H2yckzwrb7DaTtNF_pad-22" x="146680" y="-87620"/><use xlink:href="#Ld_3H2yckzwrb7DaTtNF_pad-23" x="147380" y="-87620"/><use xlink:href="#Ld_3H2yckzwrb7DaTtNF_pad-23" x="148380" y="-87620"/><use xlink:href="#Ld_3H2yckzwrb7DaTtNF_pad-23" x="149880" y="-87620"/><use xlink:href="#Ld_3H2yckzwrb7DaTtNF_pad-23" x="150880" y="-87620"/><use xlink:href="#Ld_3H2yckzwrb7DaTtNF_pad-22" x="151580" y="-87620"/><use xlink:href="#Ld_3H2yckzwrb7DaTtNF_pad-22" x="152380" y="-87620"/><use xlink:href="#Ld_3H2yckzwrb7DaTtNF_pad-24" x="153450" y="-86705"/><use xlink:href="#Ld_3H2yckzwrb7DaTtNF_pad-25" x="153450" y="-82525"/><use xlink:href="#Ld_3H2yckzwrb7DaTtNF_pad-24" x="144810" y="-86705"/><use xlink:href="#Ld_3H2yckzwrb7DaTtNF_pad-25" x="144810" y="-82525"/><use xlink:href="#Ld_3H2yckzwrb7DaTtNF_pad-14" x="146267.5" y="-91285"/><use xlink:href="#Ld_3H2yckzwrb7DaTtNF_pad-14" x="144692.5" y="-91285"/><use xlink:href="#Ld_3H2yckzwrb7DaTtNF_pad-15" x="162515" y="-99490"/><use xlink:href="#Ld_3H2yckzwrb7DaTtNF_pad-15" x="162515" y="-97840"/><use xlink:href="#Ld_3H2yckzwrb7DaTtNF_pad-11" x="159480" y="-100940"/><use xlink:href="#Ld_3H2yckzwrb7DaTtNF_pad-11" x="161030" y="-100940"/><use xlink:href="#Ld_3H2yckzwrb7DaTtNF_pad-26" x="172980" y="-98055"/><use xlink:href="#Ld_3H2yckzwrb7DaTtNF_pad-26" x="171330" y="-98055"/><use xlink:href="#Ld_3H2yckzwrb7DaTtNF_pad-20" x="159430" y="-99480"/><use xlink:href="#Ld_3H2yckzwrb7DaTtNF_pad-20" x="161080" y="-99480"/><use xlink:href="#Ld_3H2yckzwrb7DaTtNF_pad-15" x="150625" y="-99475"/><use xlink:href="#Ld_3H2yckzwrb7DaTtNF_pad-15" x="150625" y="-97825"/><use xlink:href="#Ld_3H2yckzwrb7DaTtNF_pad-20" x="171330" y="-99515"/><use xlink:href="#Ld_3H2yckzwrb7DaTtNF_pad-20" x="172980" y="-99515"/><use xlink:href="#Ld_3H2yckzwrb7DaTtNF_pad-12" x="163812.5" y="-91295"/><use xlink:href="#Ld_3H2yckzwrb7DaTtNF_pad-12" x="165387.5" y="-91295"/><use xlink:href="#Ld_3H2yckzwrb7DaTtNF_pad-27" x="169907.5" y="-93945"/><use xlink:href="#Ld_3H2yckzwrb7DaTtNF_pad-27" x="163982.5" y="-93945"/><use xlink:href="#Ld_3H2yckzwrb7DaTtNF_pad-14" x="170077.5" y="-91295"/><use xlink:href="#Ld_3H2yckzwrb7DaTtNF_pad-14" x="168502.5" y="-91295"/><use xlink:href="#Ld_3H2yckzwrb7DaTtNF_pad-27" x="134187.5" y="-93950"/><use xlink:href="#Ld_3H2yckzwrb7DaTtNF_pad-27" x="128262.5" y="-93950"/><use xlink:href="#Ld_3H2yckzwrb7DaTtNF_pad-11" x="135650" y="-96600"/><use xlink:href="#Ld_3H2yckzwrb7DaTtNF_pad-11" x="137200" y="-96600"/><use xlink:href="#Ld_3H2yckzwrb7DaTtNF_pad-11" x="171380" y="-96595"/><use xlink:href="#Ld_3H2yckzwrb7DaTtNF_pad-11" x="172930" y="-96595"/><use xlink:href="#Ld_3H2yckzwrb7DaTtNF_pad-28" x="164485" y="-96765"/><use xlink:href="#Ld_3H2yckzwrb7DaTtNF_pad-28" x="164485" y="-98035"/><use xlink:href="#Ld_3H2yckzwrb7DaTtNF_pad-28" x="164485" y="-99305"/><use xlink:href="#Ld_3H2yckzwrb7DaTtNF_pad-28" x="164485" y="-100575"/><use xlink:href="#Ld_3H2yckzwrb7DaTtNF_pad-28" x="169435" y="-100575"/><use xlink:href="#Ld_3H2yckzwrb7DaTtNF_pad-28" x="169435" y="-99305"/><use xlink:href="#Ld_3H2yckzwrb7DaTtNF_pad-28" x="169435" y="-98035"/><use xlink:href="#Ld_3H2yckzwrb7DaTtNF_pad-28" x="169435" y="-96765"/><use xlink:href="#Ld_3H2yckzwrb7DaTtNF_pad-29" x="166960" y="-98670"/><use xlink:href="#Ld_3H2yckzwrb7DaTtNF_pad-11" x="147570" y="-100975"/><use xlink:href="#Ld_3H2yckzwrb7DaTtNF_pad-11" x="149120" y="-100975"/><use xlink:href="#Ld_3H2yckzwrb7DaTtNF_pad-11" x="171380" y="-100975"/><use xlink:href="#Ld_3H2yckzwrb7DaTtNF_pad-11" x="172930" y="-100975"/><use xlink:href="#Ld_3H2yckzwrb7DaTtNF_pad-20" x="147525" y="-99515"/><use xlink:href="#Ld_3H2yckzwrb7DaTtNF_pad-20" x="149175" y="-99515"/><use xlink:href="#Ld_3H2yckzwrb7DaTtNF_pad-16" x="142140" y="-103675"/><use xlink:href="#Ld_3H2yckzwrb7DaTtNF_pad-17" x="144140" y="-103675"/><use xlink:href="#Ld_3H2yckzwrb7DaTtNF_pad-28" x="152590" y="-96725"/><use xlink:href="#Ld_3H2yckzwrb7DaTtNF_pad-28" x="152590" y="-97995"/><use xlink:href="#Ld_3H2yckzwrb7DaTtNF_pad-28" x="152590" y="-99265"/><use xlink:href="#Ld_3H2yckzwrb7DaTtNF_pad-28" x="152590" y="-100535"/><use xlink:href="#Ld_3H2yckzwrb7DaTtNF_pad-28" x="157540" y="-100535"/><use xlink:href="#Ld_3H2yckzwrb7DaTtNF_pad-28" x="157540" y="-99265"/><use xlink:href="#Ld_3H2yckzwrb7DaTtNF_pad-28" x="157540" y="-97995"/><use xlink:href="#Ld_3H2yckzwrb7DaTtNF_pad-28" x="157540" y="-96725"/><use xlink:href="#Ld_3H2yckzwrb7DaTtNF_pad-29" x="155065" y="-98630"/><use xlink:href="#Ld_3H2yckzwrb7DaTtNF_pad-26" x="161080" y="-98020"/><use xlink:href="#Ld_3H2yckzwrb7DaTtNF_pad-26" x="159430" y="-98020"/><use xlink:href="#Ld_3H2yckzwrb7DaTtNF_pad-13" x="126620" y="-82475"/><use xlink:href="#Ld_3H2yckzwrb7DaTtNF_pad-27" x="157987.5" y="-93910"/><use xlink:href="#Ld_3H2yckzwrb7DaTtNF_pad-27" x="152062.5" y="-93910"/><use xlink:href="#Ld_3H2yckzwrb7DaTtNF_pad-12" x="128082.5" y="-91295"/><use xlink:href="#Ld_3H2yckzwrb7DaTtNF_pad-12" x="129657.5" y="-91295"/><use xlink:href="#Ld_3H2yckzwrb7DaTtNF_pad-18" x="141160" y="-108505"/><use xlink:href="#Ld_3H2yckzwrb7DaTtNF_pad-19" x="145120" y="-108505"/><use xlink:href="#Ld_3H2yckzwrb7DaTtNF_pad-15" x="138700" y="-97820"/><use xlink:href="#Ld_3H2yckzwrb7DaTtNF_pad-15" x="138700" y="-99470"/><use xlink:href="#Ld_3H2yckzwrb7DaTtNF_pad-26" x="149175" y="-98055"/><use xlink:href="#Ld_3H2yckzwrb7DaTtNF_pad-26" x="147525" y="-98055"/><use xlink:href="#Ld_3H2yckzwrb7DaTtNF_pad-18" x="129280" y="-108515"/><use xlink:href="#Ld_3H2yckzwrb7DaTtNF_pad-19" x="133240" y="-108515"/><use xlink:href="#Ld_3H2yckzwrb7DaTtNF_pad-26" x="137255" y="-98060"/><use xlink:href="#Ld_3H2yckzwrb7DaTtNF_pad-26" x="135605" y="-98060"/><use xlink:href="#Ld_3H2yckzwrb7DaTtNF_pad-14" x="158157.5" y="-91255"/><use xlink:href="#Ld_3H2yckzwrb7DaTtNF_pad-14" x="156582.5" y="-91255"/><use xlink:href="#Ld_3H2yckzwrb7DaTtNF_pad-18" x="153050" y="-108505"/><use xlink:href="#Ld_3H2yckzwrb7DaTtNF_pad-19" x="157010" y="-108505"/><use xlink:href="#Ld_3H2yckzwrb7DaTtNF_pad-12" x="151892.5" y="-91255"/><use xlink:href="#Ld_3H2yckzwrb7DaTtNF_pad-12" x="153467.5" y="-91255"/><use xlink:href="#Ld_3H2yckzwrb7DaTtNF_pad-16" x="130225" y="-103690"/><use xlink:href="#Ld_3H2yckzwrb7DaTtNF_pad-17" x="132225" y="-103690"/><use xlink:href="#Ld_3H2yckzwrb7DaTtNF_pad-11" x="147595" y="-96595"/><use xlink:href="#Ld_3H2yckzwrb7DaTtNF_pad-11" x="149145" y="-96595"/><use xlink:href="#Ld_3H2yckzwrb7DaTtNF_pad-28" x="128760" y="-96765"/><use xlink:href="#Ld_3H2yckzwrb7DaTtNF_pad-28" x="128760" y="-98035"/><use xlink:href="#Ld_3H2yckzwrb7DaTtNF_pad-28" x="128760" y="-99305"/><use xlink:href="#Ld_3H2yckzwrb7DaTtNF_pad-28" x="128760" y="-100575"/><use xlink:href="#Ld_3H2yckzwrb7DaTtNF_pad-28" x="133710" y="-100575"/><use xlink:href="#Ld_3H2yckzwrb7DaTtNF_pad-28" x="133710" y="-99305"/><use xlink:href="#Ld_3H2yckzwrb7DaTtNF_pad-28" x="133710" y="-98035"/><use xlink:href="#Ld_3H2yckzwrb7DaTtNF_pad-28" x="133710" y="-96765"/><use xlink:href="#Ld_3H2yckzwrb7DaTtNF_pad-29" x="131235" y="-98670"/><use xlink:href="#Ld_3H2yckzwrb7DaTtNF_pad-28" x="140680" y="-96755"/><use xlink:href="#Ld_3H2yckzwrb7DaTtNF_pad-28" x="140680" y="-98025"/><use xlink:href="#Ld_3H2yckzwrb7DaTtNF_pad-28" x="140680" y="-99295"/><use xlink:href="#Ld_3H2yckzwrb7DaTtNF_pad-28" x="140680" y="-100565"/><use xlink:href="#Ld_3H2yckzwrb7DaTtNF_pad-28" x="145630" y="-100565"/><use xlink:href="#Ld_3H2yckzwrb7DaTtNF_pad-28" x="145630" y="-99295"/><use xlink:href="#Ld_3H2yckzwrb7DaTtNF_pad-28" x="145630" y="-98025"/><use xlink:href="#Ld_3H2yckzwrb7DaTtNF_pad-28" x="145630" y="-96755"/><use xlink:href="#Ld_3H2yckzwrb7DaTtNF_pad-29" x="143155" y="-98660"/><use xlink:href="#Ld_3H2yckzwrb7DaTtNF_pad-27" x="146102.5" y="-93935"/><use xlink:href="#Ld_3H2yckzwrb7DaTtNF_pad-27" x="140177.5" y="-93935"/></g></svg>