<svg version="1.1" xmlns="http://www.w3.org/2000/svg" xmlns:xlink="http://www.w3.org/1999/xlink" stroke-linecap="round" stroke-linejoin="round" stroke-width="0" fill-rule="evenodd" width="66.39753mm" height="54.66937mm" viewBox="121993.69 -134333.06 66397.53 54669.37" id="ZXEcLQgNCpREOzlwN89p"><g transform="translate(0,-213996.75) scale(1,-1)" fill="currentColor" stroke="currentColor"><path d="M 123868.69 -82503.69 123828.69 -112776.31 M 171561.31 -79713.69 126638.69 -79733.69 M 174331.31 -82483.69 A 2770.01 2770.01 0 0 1 171561.31 -79713.69 M 126598.69 -115546.31 171530 -115535 M 123828.69 -112776.31 A 2770.01 2770.01 0 0 1 126598.69 -115546.31 M 174300 -112765 174331.31 -82483.69 M 126638.69 -79733.69 A 2770.01 2770.01 0 0 1 123868.69 -82503.69 M 171530 -115535 A 2770 2770 0 0 1 174300 -112765" fill="none" stroke-width="100"/><path d="M 136392.3 -98797.11 136692.3 -99097.11 M 136692.3 -98797.11 136392.3 -99097.11 M 136422.22 -97416.48 136722.22 -97716.48 M 136722.22 -97416.48 136422.22 -97716.48 M 148318.29 -98796.78 148618.29 -99096.78 M 148618.29 -98796.78 148318.29 -99096.78 M 148336.58 -97391.82 148636.58 -97691.82 M 148636.58 -97391.82 148336.58 -97691.82 M 160223.6 -98761.41 160523.6 -99061.41 M 160523.6 -98761.41 160223.6 -99061.41 M 160245.86 -97372.9 160545.86 -97672.9 M 160545.86 -97372.9 160245.86 -97672.9 M 172123.61 -98796.43 172423.61 -99096.43 M 172423.61 -98796.43 172123.61 -99096.43 M 172145.87 -97407.9 172445.87 -97707.9 M 172445.87 -97407.9 172145.87 -97707.9" fill="none" stroke-width="30"/><path d="M 125200 -96700 A 200 200 0 0 1 124800 -96700 200 200 0 0 1 125200 -96700 M 125200 -98000 A 200 200 0 0 1 124800 -98000 200 200 0 0 1 125200 -98000 M 125200 -99500 A 200 200 0 0 1 124800 -99500 200 200 0 0 1 125200 -99500 M 125200 -101000 A 200 200 0 0 1 124800 -101000 200 200 0 0 1 125200 -101000 M 125200 -103000 A 200 200 0 0 1 124800 -103000 200 200 0 0 1 125200 -103000 M 125200 -105000 A 200 200 0 0 1 124800 -105000 200 200 0 0 1 125200 -105000 M 125200 -107000 A 200 200 0 0 1 124800 -107000 200 200 0 0 1 125200 -107000 M 125200 -109000 A 200 200 0 0 1 124800 -109000 200 200 0 0 1 125200 -109000 M 126200 -102000 A 200 200 0 0 1 125800 -102000 200 200 0 0 1 126200 -102000 M 126200 -104000 A 200 200 0 0 1 125800 -104000 200 200 0 0 1 126200 -104000 M 126200 -106000 A 200 200 0 0 1 125800 -106000 200 200 0 0 1 126200 -106000 M 126200 -108000 A 200 200 0 0 1 125800 -108000 200 200 0 0 1 126200 -108000 M 126300 -96700 A 200 200 0 0 1 125900 -96700 200 200 0 0 1 126300 -96700 M 127200 -103000 A 200 200 0 0 1 126800 -103000 200 200 0 0 1 127200 -103000 M 127200 -105000 A 200 200 0 0 1 126800 -105000 200 200 0 0 1 127200 -105000 M 127200 -107000 A 200 200 0 0 1 126800 -107000 200 200 0 0 1 127200 -107000 M 127200 -109000 A 200 200 0 0 1 126800 -109000 200 200 0 0 1 127200 -109000 M 127400 -91300 A 200 200 0 0 1 127000 -91300 200 200 0 0 1 127400 -91300 M 127400 -96700 A 200 200 0 0 1 127000 -96700 200 200 0 0 1 127400 -96700 M 128200 -104000 A 200 200 0 0 1 127800 -104000 200 200 0 0 1 128200 -104000 M 128200 -106000 A 200 200 0 0 1 127800 -106000 200 200 0 0 1 128200 -106000 M 129000 -101450 A 200 200 0 0 1 128600 -101450 200 200 0 0 1 129000 -101450 M 129200 -103000 A 200 200 0 0 1 128800 -103000 200 200 0 0 1 129200 -103000 M 129200 -105000 A 200 200 0 0 1 128800 -105000 200 200 0 0 1 129200 -105000 M 130200 -106000 A 200 200 0 0 1 129800 -106000 200 200 0 0 1 130200 -106000 M 130700 -97500 A 200 200 0 0 1 130300 -97500 200 200 0 0 1 130700 -97500 M 130700 -98700 A 200 200 0 0 1 130300 -98700 200 200 0 0 1 130700 -98700 M 130700 -99900 A 200 200 0 0 1 130300 -99900 200 200 0 0 1 130700 -99900 M 131450 -96900 A 200 200 0 0 1 131050 -96900 200 200 0 0 1 131450 -96900 M 131450 -98100 A 200 200 0 0 1 131050 -98100 200 200 0 0 1 131450 -98100 M 131450 -99300 A 200 200 0 0 1 131050 -99300 200 200 0 0 1 131450 -99300 M 131450 -100450 A 200 200 0 0 1 131050 -100450 200 200 0 0 1 131450 -100450 M 132200 -97500 A 200 200 0 0 1 131800 -97500 200 200 0 0 1 132200 -97500 M 132200 -98700 A 200 200 0 0 1 131800 -98700 200 200 0 0 1 132200 -98700 M 132200 -99900 A 200 200 0 0 1 131800 -99900 200 200 0 0 1 132200 -99900 M 133500 -96000 A 200 200 0 0 1 133100 -96000 200 200 0 0 1 133500 -96000 M 135550 -91300 A 200 200 0 0 1 135150 -91300 200 200 0 0 1 135550 -91300 M 137200 -103000 A 200 200 0 0 1 136800 -103000 200 200 0 0 1 137200 -103000 M 137200 -105000 A 200 200 0 0 1 136800 -105000 200 200 0 0 1 137200 -105000 M 137200 -107000 A 200 200 0 0 1 136800 -107000 200 200 0 0 1 137200 -107000 M 137200 -109000 A 200 200 0 0 1 136800 -109000 200 200 0 0 1 137200 -109000 M 137200 -111000 A 200 200 0 0 1 136800 -111000 200 200 0 0 1 137200 -111000 M 138200 -102000 A 200 200 0 0 1 137800 -102000 200 200 0 0 1 138200 -102000 M 138200 -104000 A 200 200 0 0 1 137800 -104000 200 200 0 0 1 138200 -104000 M 138200 -106000 A 200 200 0 0 1 137800 -106000 200 200 0 0 1 138200 -106000 M 138200 -108000 A 200 200 0 0 1 137800 -108000 200 200 0 0 1 138200 -108000 M 138200 -110000 A 200 200 0 0 1 137800 -110000 200 200 0 0 1 138200 -110000 M 138200 -112000 A 200 200 0 0 1 137800 -112000 200 200 0 0 1 138200 -112000 M 138300 -96700 A 200 200 0 0 1 137900 -96700 200 200 0 0 1 138300 -96700 M 139200 -103000 A 200 200 0 0 1 138800 -103000 200 200 0 0 1 139200 -103000 M 139200 -105000 A 200 200 0 0 1 138800 -105000 200 200 0 0 1 139200 -105000 M 139200 -107000 A 200 200 0 0 1 138800 -107000 200 200 0 0 1 139200 -107000 M 139200 -109000 A 200 200 0 0 1 138800 -109000 200 200 0 0 1 139200 -109000 M 139200 -111000 A 200 200 0 0 1 138800 -111000 200 200 0 0 1 139200 -111000 M 139250 -91250 A 200 200 0 0 1 138850 -91250 200 200 0 0 1 139250 -91250 M 139400 -96700 A 200 200 0 0 1 139000 -96700 200 200 0 0 1 139400 -96700 M 140200 -104000 A 200 200 0 0 1 139800 -104000 200 200 0 0 1 140200 -104000 M 140200 -106000 A 200 200 0 0 1 139800 -106000 200 200 0 0 1 140200 -106000 M 140900 -101450 A 200 200 0 0 1 140500 -101450 200 200 0 0 1 140900 -101450 M 141200 -103000 A 200 200 0 0 1 140800 -103000 200 200 0 0 1 141200 -103000 M 141200 -105000 A 200 200 0 0 1 140800 -105000 200 200 0 0 1 141200 -105000 M 142600 -97450 A 200 200 0 0 1 142200 -97450 200 200 0 0 1 142600 -97450 M 142600 -98650 A 200 200 0 0 1 142200 -98650 200 200 0 0 1 142600 -98650 M 142600 -99850 A 200 200 0 0 1 142200 -99850 200 200 0 0 1 142600 -99850 M 143350 -96900 A 200 200 0 0 1 142950 -96900 200 200 0 0 1 143350 -96900 M 143350 -98050 A 200 200 0 0 1 142950 -98050 200 200 0 0 1 143350 -98050 M 143350 -99250 A 200 200 0 0 1 142950 -99250 200 200 0 0 1 143350 -99250 M 143350 -100450 A 200 200 0 0 1 142950 -100450 200 200 0 0 1 143350 -100450 M 144100 -97450 A 200 200 0 0 1 143700 -97450 200 200 0 0 1 144100 -97450 M 144100 -98650 A 200 200 0 0 1 143700 -98650 200 200 0 0 1 144100 -98650 M 144100 -99850 A 200 200 0 0 1 143700 -99850 200 200 0 0 1 144100 -99850 M 145000 -83900 A 200 200 0 0 1 144600 -83900 200 200 0 0 1 145000 -83900 M 145000 -85100 A 200 200 0 0 1 144600 -85100 200 200 0 0 1 145000 -85100 M 145850 -96050 A 200 200 0 0 1 145450 -96050 200 200 0 0 1 145850 -96050 M 146000 -81700 A 200 200 0 0 1 145600 -81700 200 200 0 0 1 146000 -81700 M 146000 -82600 A 200 200 0 0 1 145600 -82600 200 200 0 0 1 146000 -82600 M 146000 -83500 A 200 200 0 0 1 145600 -83500 200 200 0 0 1 146000 -83500 M 146000 -84400 A 200 200 0 0 1 145600 -84400 200 200 0 0 1 146000 -84400 M 146000 -85300 A 200 200 0 0 1 145600 -85300 200 200 0 0 1 146000 -85300 M 147600 -91300 A 200 200 0 0 1 147200 -91300 200 200 0 0 1 147600 -91300 M 149100 -103000 A 200 200 0 0 1 148700 -103000 200 200 0 0 1 149100 -103000 M 149100 -105000 A 200 200 0 0 1 148700 -105000 200 200 0 0 1 149100 -105000 M 149100 -107000 A 200 200 0 0 1 148700 -107000 200 200 0 0 1 149100 -107000 M 149100 -109000 A 200 200 0 0 1 148700 -109000 200 200 0 0 1 149100 -109000 M 149100 -111000 A 200 200 0 0 1 148700 -111000 200 200 0 0 1 149100 -111000 M 150100 -102050 A 200 200 0 0 1 149700 -102050 200 200 0 0 1 150100 -102050 M 150100 -104000 A 200 200 0 0 1 149700 -104000 200 200 0 0 1 150100 -104000 M 150100 -106000 A 200 200 0 0 1 149700 -106000 200 200 0 0 1 150100 -106000 M 150100 -108000 A 200 200 0 0 1 149700 -108000 200 200 0 0 1 150100 -108000 M 150100 -110000 A 200 200 0 0 1 149700 -110000 200 200 0 0 1 150100 -110000 M 150100 -112000 A 200 200 0 0 1 149700 -112000 200 200 0 0 1 150100 -112000 M 150300 -96700 A 200 200 0 0 1 149900 -96700 200 200 0 0 1 150300 -96700 M 151100 -103000 A 200 200 0 0 1 150700 -103000 200 200 0 0 1 151100 -103000 M 151100 -105000 A 200 200 0 0 1 150700 -105000 200 200 0 0 1 151100 -105000 M 151100 -107000 A 200 200 0 0 1 150700 -107000 200 200 0 0 1 151100 -107000 M 151100 -109000 A 200 200 0 0 1 150700 -109000 200 200 0 0 1 151100 -109000 M 151100 -111000 A 200 200 0 0 1 150700 -111000 200 200 0 0 1 151100 -111000 M 151200 -91300 A 200 200 0 0 1 150800 -91300 200 200 0 0 1 151200 -91300 M 151400 -96700 A 200 200 0 0 1 151000 -96700 200 200 0 0 1 151400 -96700 M 152200 -104000 A 200 200 0 0 1 151800 -104000 200 200 0 0 1 152200 -104000 M 152200 -106000 A 200 200 0 0 1 151800 -106000 200 200 0 0 1 152200 -106000 M 152600 -81700 A 200 200 0 0 1 152200 -81700 200 200 0 0 1 152600 -81700 M 152600 -82600 A 200 200 0 0 1 152200 -82600 200 200 0 0 1 152600 -82600 M 152600 -83500 A 200 200 0 0 1 152200 -83500 200 200 0 0 1 152600 -83500 M 152600 -84400 A 200 200 0 0 1 152200 -84400 200 200 0 0 1 152600 -84400 M 152620 -85270 A 200 200 0 0 1 152220 -85270 200 200 0 0 1 152620 -85270 M 152800 -101450 A 200 200 0 0 1 152400 -101450 200 200 0 0 1 152800 -101450 M 153200 -103000 A 200 200 0 0 1 152800 -103000 200 200 0 0 1 153200 -103000 M 153200 -105000 A 200 200 0 0 1 152800 -105000 200 200 0 0 1 153200 -105000 M 153700 -83900 A 200 200 0 0 1 153300 -83900 200 200 0 0 1 153700 -83900 M 153700 -85100 A 200 200 0 0 1 153300 -85100 200 200 0 0 1 153700 -85100 M 154200 -106000 A 200 200 0 0 1 153800 -106000 200 200 0 0 1 154200 -106000 M 154500 -97450 A 200 200 0 0 1 154100 -97450 200 200 0 0 1 154500 -97450 M 154500 -98650 A 200 200 0 0 1 154100 -98650 200 200 0 0 1 154500 -98650 M 154500 -99850 A 200 200 0 0 1 154100 -99850 200 200 0 0 1 154500 -99850 M 155250 -96900 A 200 200 0 0 1 154850 -96900 200 200 0 0 1 155250 -96900 M 155250 -98050 A 200 200 0 0 1 154850 -98050 200 200 0 0 1 155250 -98050 M 155250 -99250 A 200 200 0 0 1 154850 -99250 200 200 0 0 1 155250 -99250 M 155250 -100450 A 200 200 0 0 1 154850 -100450 200 200 0 0 1 155250 -100450 M 156000 -97450 A 200 200 0 0 1 155600 -97450 200 200 0 0 1 156000 -97450 M 156000 -98650 A 200 200 0 0 1 155600 -98650 200 200 0 0 1 156000 -98650 M 156000 -99850 A 200 200 0 0 1 155600 -99850 200 200 0 0 1 156000 -99850 M 157750 -96000 A 200 200 0 0 1 157350 -96000 200 200 0 0 1 157750 -96000 M 159450 -91250 A 200 200 0 0 1 159050 -91250 200 200 0 0 1 159450 -91250 M 161000 -103000 A 200 200 0 0 1 160600 -103000 200 200 0 0 1 161000 -103000 M 161000 -105000 A 200 200 0 0 1 160600 -105000 200 200 0 0 1 161000 -105000 M 161000 -107000 A 200 200 0 0 1 160600 -107000 200 200 0 0 1 161000 -107000 M 161000 -109000 A 200 200 0 0 1 160600 -109000 200 200 0 0 1 161000 -109000 M 161000 -111000 A 200 200 0 0 1 160600 -111000 200 200 0 0 1 161000 -111000 M 162000 -102050 A 200 200 0 0 1 161600 -102050 200 200 0 0 1 162000 -102050 M 162000 -104000 A 200 200 0 0 1 161600 -104000 200 200 0 0 1 162000 -104000 M 162000 -106000 A 200 200 0 0 1 161600 -106000 200 200 0 0 1 162000 -106000 M 162000 -108000 A 200 200 0 0 1 161600 -108000 200 200 0 0 1 162000 -108000 M 162000 -110000 A 200 200 0 0 1 161600 -110000 200 200 0 0 1 162000 -110000 M 162000 -112000 A 200 200 0 0 1 161600 -112000 200 200 0 0 1 162000 -112000 M 162100 -96700 A 200 200 0 0 1 161700 -96700 200 200 0 0 1 162100 -96700 M 163000 -103000 A 200 200 0 0 1 162600 -103000 200 200 0 0 1 163000 -103000 M 163000 -105000 A 200 200 0 0 1 162600 -105000 200 200 0 0 1 163000 -105000 M 163000 -107000 A 200 200 0 0 1 162600 -107000 200 200 0 0 1 163000 -107000 M 163000 -109000 A 200 200 0 0 1 162600 -109000 200 200 0 0 1 163000 -109000 M 163000 -111000 A 200 200 0 0 1 162600 -111000 200 200 0 0 1 163000 -111000 M 163050 -91300 A 200 200 0 0 1 162650 -91300 200 200 0 0 1 163050 -91300 M 163300 -96700 A 200 200 0 0 1 162900 -96700 200 200 0 0 1 163300 -96700 M 164200 -104000 A 200 200 0 0 1 163800 -104000 200 200 0 0 1 164200 -104000 M 164200 -106000 A 200 200 0 0 1 163800 -106000 200 200 0 0 1 164200 -106000 M 164700 -101450 A 200 200 0 0 1 164300 -101450 200 200 0 0 1 164700 -101450 M 165200 -103000 A 200 200 0 0 1 164800 -103000 200 200 0 0 1 165200 -103000 M 165200 -105000 A 200 200 0 0 1 164800 -105000 200 200 0 0 1 165200 -105000 M 166200 -106000 A 200 200 0 0 1 165800 -106000 200 200 0 0 1 166200 -106000 M 166400 -97450 A 200 200 0 0 1 166000 -97450 200 200 0 0 1 166400 -97450 M 166400 -98650 A 200 200 0 0 1 166000 -98650 200 200 0 0 1 166400 -98650 M 166400 -99850 A 200 200 0 0 1 166000 -99850 200 200 0 0 1 166400 -99850 M 167150 -96950 A 200 200 0 0 1 166750 -96950 200 200 0 0 1 167150 -96950 M 167150 -98050 A 200 200 0 0 1 166750 -98050 200 200 0 0 1 167150 -98050 M 167150 -99250 A 200 200 0 0 1 166750 -99250 200 200 0 0 1 167150 -99250 M 167150 -100450 A 200 200 0 0 1 166750 -100450 200 200 0 0 1 167150 -100450 M 167900 -97450 A 200 200 0 0 1 167500 -97450 200 200 0 0 1 167900 -97450 M 167900 -98650 A 200 200 0 0 1 167500 -98650 200 200 0 0 1 167900 -98650 M 167900 -99850 A 200 200 0 0 1 167500 -99850 200 200 0 0 1 167900 -99850 M 169650 -96050 A 200 200 0 0 1 169250 -96050 200 200 0 0 1 169650 -96050 M 171250 -91300 A 200 200 0 0 1 170850 -91300 200 200 0 0 1 171250 -91300 M 173100 -102000 A 200 200 0 0 1 172700 -102000 200 200 0 0 1 173100 -102000 M 174100 -96700 A 200 200 0 0 1 173700 -96700 200 200 0 0 1 174100 -96700 M 174100 -101000 A 200 200 0 0 1 173700 -101000 200 200 0 0 1 174100 -101000" fill="none" stroke-width="40"/><path d="M 144810 -82225 144810 -82825 M 144510 -82525 145110 -82525" fill="none" stroke-width="60"/><path d="M 145110 -82825 145110 -82225 A 300 300 0 0 1 144510 -82225 L 144510 -82825 A 300 300 0 0 1 145110 -82825" fill="none" stroke-width="200"/><path d="M 144810 -86405 144810 -87005 M 144510 -86705 145110 -86705" fill="none" stroke-width="60"/><path d="M 145110 -87255 145110 -86155 A 300 300 0 0 1 144510 -86155 L 144510 -87255 A 300 300 0 0 1 145110 -87255" fill="none" stroke-width="200"/><path d="M 153450 -82225 153450 -82825 M 153150 -82525 153750 -82525" fill="none" stroke-width="60"/><path d="M 153750 -82825 153750 -82225 A 300 300 0 0 1 153150 -82225 L 153150 -82825 A 300 300 0 0 1 153750 -82825" fill="none" stroke-width="200"/><path d="M 153450 -86405 153450 -87005 M 153150 -86705 153750 -86705" fill="none" stroke-width="60"/><path d="M 153750 -87255 153750 -86155 A 300 300 0 0 1 153150 -86155 L 153150 -87255 A 300 300 0 0 1 153750 -87255" fill="none" stroke-width="200"/><path d="M 130490.17 -103955.17 130490.17 -103424.83 129959.83 -103424.83 129959.83 -103955.17 130490.17 -103955.17 M 132490.17 -103955.17 132490.17 -103424.83 131959.83 -103424.83 131959.83 -103955.17 132490.17 -103955.17 M 142405.17 -103940.17 142405.17 -103409.83 141874.83 -103409.83 141874.83 -103940.17 142405.17 -103940.17 M 144405.17 -103940.17 144405.17 -103409.83 143874.83 -103409.83 143874.83 -103940.17 144405.17 -103940.17 M 154290.17 -103895.17 154290.17 -103364.83 153759.83 -103364.83 153759.83 -103895.17 154290.17 -103895.17 M 156290.17 -103895.17 156290.17 -103364.83 155759.83 -103364.83 155759.83 -103895.17 156290.17 -103895.17 M 166240.17 -103940.17 166240.17 -103409.83 165709.83 -103409.83 165709.83 -103940.17 166240.17 -103940.17 M 168240.17 -103940.17 168240.17 -103409.83 167709.83 -103409.83 167709.83 -103940.17 168240.17 -103940.17" fill="none" stroke-width="75"/><path d="M 129280 -109365 130130 -108515 129280 -107665 128430 -108515 129280 -109365 M 133240 -109365 134090 -108515 133240 -107665 132390 -108515 133240 -109365 M 141160 -109355 142010 -108505 141160 -107655 140310 -108505 141160 -109355 M 145120 -109355 145970 -108505 145120 -107655 144270 -108505 145120 -109355 M 153050 -109355 153900 -108505 153050 -107655 152200 -108505 153050 -109355 M 157010 -109355 157860 -108505 157010 -107655 156160 -108505 157010 -109355 M 164890 -109355 165740 -108505 164890 -107655 164040 -108505 164890 -109355 M 168850 -109355 169700 -108505 168850 -107655 168000 -108505 168850 -109355" fill="none" stroke-width="170"/><path d="M 126386.45 -118711.15 126386.45 -116711.15 126862.64 -116711.15 127148.36 -116806.39 127338.83 -116996.87 127434.07 -117187.34 127529.31 -117568.29 127529.31 -117854.01 127434.07 -118234.96 127338.83 -118425.44 127148.36 -118615.91 126862.64 -118711.15 126386.45 -118711.15 M 128386.45 -118711.15 128386.45 -117377.82 M 128386.45 -117758.77 128481.69 -117568.29 128576.93 -117473.06 128767.41 -117377.82 128957.88 -117377.82 M 129624.55 -118711.15 129624.55 -117377.82 M 129624.55 -116711.15 129529.31 -116806.39 129624.55 -116901.63 129719.79 -116806.39 129624.55 -116711.15 129624.55 -116901.63 M 130862.64 -118711.15 130672.17 -118615.91 130576.93 -118425.44 130576.93 -116711.15 M 131910.26 -118711.15 131719.79 -118615.91 131624.55 -118425.44 131624.55 -116711.15 M 134195.98 -118711.15 134195.98 -116711.15 134862.64 -118139.72 135529.31 -116711.15 135529.31 -118711.15 M 137338.83 -118711.15 137338.83 -117663.53 137243.6 -117473.06 137053.12 -117377.82 136672.17 -117377.82 136481.69 -117473.06 M 137338.83 -118615.91 137148.36 -118711.15 136672.17 -118711.15 136481.69 -118615.91 136386.45 -118425.44 136386.45 -118234.96 136481.69 -118044.48 136672.17 -117949.25 137148.36 -117949.25 137338.83 -117854.01 M 138291.22 -117377.82 138291.22 -119377.82 M 138291.22 -117473.06 138481.69 -117377.82 138862.64 -117377.82 139053.12 -117473.06 139148.36 -117568.29 139243.6 -117758.77 139243.6 -118330.2 139148.36 -118520.67 139053.12 -118615.91 138862.64 -118711.15 138481.69 -118711.15 138291.22 -118615.91 M 140100.74 -118520.67 140195.98 -118615.91 140100.74 -118711.15 140005.5 -118615.91 140100.74 -118520.67 140100.74 -118711.15 M 140100.74 -117473.06 140195.98 -117568.29 140100.74 -117663.53 140005.5 -117568.29 140100.74 -117473.06 140100.74 -117663.53" fill="none" stroke-width="200"/><path d="M 123478.69 -121846.31 123778.69 -122146.31 M 123778.69 -121846.31 123478.69 -122146.31" fill="none" stroke-width="30"/><path d="M 126767.41 -120911.15 126957.88 -120911.15 127148.36 -121006.39 127243.6 -121101.63 127338.83 -121292.1 127434.07 -121673.06 127434.07 -122149.25 127338.83 -122530.2 127243.6 -122720.67 127148.36 -122815.91 126957.88 -122911.15 126767.41 -122911.15 126576.93 -122815.91 126481.69 -122720.67 126386.45 -122530.2 126291.22 -122149.25 126291.22 -121673.06 126386.45 -121292.1 126481.69 -121101.63 126576.93 -121006.39 126767.41 -120911.15 M 128291.22 -122720.67 128386.45 -122815.91 128291.22 -122911.15 128195.98 -122815.91 128291.22 -122720.67 128291.22 -122911.15 M 129053.12 -120911.15 130291.22 -120911.15 129624.55 -121673.06 129910.26 -121673.06 130100.74 -121768.29 130195.98 -121863.53 130291.22 -122054.01 130291.22 -122530.2 130195.98 -122720.67 130100.74 -122815.91 129910.26 -122911.15 129338.83 -122911.15 129148.36 -122815.91 129053.12 -122720.67 M 131529.31 -120911.15 131719.79 -120911.15 131910.26 -121006.39 132005.5 -121101.63 132100.74 -121292.1 132195.98 -121673.06 132195.98 -122149.25 132100.74 -122530.2 132005.5 -122720.67 131910.26 -122815.91 131719.79 -122911.15 131529.31 -122911.15 131338.83 -122815.91 131243.6 -122720.67 131148.36 -122530.2 131053.12 -122149.25 131053.12 -121673.06 131148.36 -121292.1 131243.6 -121101.63 131338.83 -121006.39 131529.31 -120911.15 M 133434.07 -120911.15 133624.55 -120911.15 133815.03 -121006.39 133910.26 -121101.63 134005.5 -121292.1 134100.74 -121673.06 134100.74 -122149.25 134005.5 -122530.2 133910.26 -122720.67 133815.03 -122815.91 133624.55 -122911.15 133434.07 -122911.15 133243.6 -122815.91 133148.36 -122720.67 133053.12 -122530.2 132957.88 -122149.25 132957.88 -121673.06 133053.12 -121292.1 133148.36 -121101.63 133243.6 -121006.39 133434.07 -120911.15 M 134957.88 -122911.15 134957.88 -121577.82 M 134957.88 -121768.29 135053.12 -121673.06 135243.6 -121577.82 135529.31 -121577.82 135719.79 -121673.06 135815.03 -121863.53 135815.03 -122911.15 M 135815.03 -121863.53 135910.26 -121673.06 136100.74 -121577.82 136386.45 -121577.82 136576.93 -121673.06 136672.17 -121863.53 136672.17 -122911.15 M 137624.55 -122911.15 137624.55 -121577.82 M 137624.55 -121768.29 137719.79 -121673.06 137910.26 -121577.82 138195.98 -121577.82 138386.45 -121673.06 138481.69 -121863.53 138481.69 -122911.15 M 138481.69 -121863.53 138576.93 -121673.06 138767.41 -121577.82 139053.12 -121577.82 139243.6 -121673.06 139338.84 -121863.53 139338.84 -122911.15 M 143243.6 -120815.91 141529.31 -123387.34 M 145815.03 -120911.15 146005.5 -120911.15 146195.98 -121006.39 146291.22 -121101.63 146386.46 -121292.1 146481.69 -121673.06 146481.69 -122149.25 146386.46 -122530.2 146291.22 -122720.67 146195.98 -122815.91 146005.5 -122911.15 145815.03 -122911.15 145624.55 -122815.91 145529.31 -122720.67 145434.07 -122530.2 145338.84 -122149.25 145338.84 -121673.06 145434.07 -121292.1 145529.31 -121101.63 145624.55 -121006.39 145815.03 -120911.15 M 147338.84 -122720.67 147434.07 -122815.91 147338.84 -122911.15 147243.6 -122815.91 147338.84 -122720.67 147338.84 -122911.15 M 148672.17 -120911.15 148862.65 -120911.15 149053.12 -121006.39 149148.36 -121101.63 149243.6 -121292.1 149338.84 -121673.06 149338.84 -122149.25 149243.6 -122530.2 149148.36 -122720.67 149053.12 -122815.91 148862.65 -122911.15 148672.17 -122911.15 148481.69 -122815.91 148386.46 -122720.67 148291.22 -122530.2 148195.98 -122149.25 148195.98 -121673.06 148291.22 -121292.1 148386.46 -121101.63 148481.69 -121006.39 148672.17 -120911.15 M 151243.6 -122911.15 150100.74 -122911.15 M 150672.17 -122911.15 150672.17 -120911.15 150481.69 -121196.87 150291.22 -121387.34 150100.74 -121482.58 M 153148.36 -122911.15 152005.5 -122911.15 M 152576.93 -122911.15 152576.93 -120911.15 152386.46 -121196.87 152195.98 -121387.34 152005.5 -121482.58 M 154291.22 -121768.29 154100.74 -121673.06 154005.5 -121577.82 153910.27 -121387.34 153910.27 -121292.1 154005.5 -121101.63 154100.74 -121006.39 154291.22 -120911.15 154672.17 -120911.15 154862.65 -121006.39 154957.88 -121101.63 155053.12 -121292.1 155053.12 -121387.34 154957.88 -121577.82 154862.65 -121673.06 154672.17 -121768.29 154291.22 -121768.29 154100.74 -121863.53 154005.5 -121958.77 153910.27 -122149.25 153910.27 -122530.2 154005.5 -122720.67 154100.74 -122815.91 154291.22 -122911.15 154672.17 -122911.15 154862.65 -122815.91 154957.88 -122720.67 155053.12 -122530.2 155053.12 -122149.25 154957.88 -121958.77 154862.65 -121863.53 154672.17 -121768.29 M 155815.03 -120911.15 155815.03 -121292.1 M 156576.93 -120911.15 156576.93 -121292.1 M 159529.31 -123673.06 159434.08 -123577.82 159243.6 -123292.1 159148.36 -123101.63 159053.12 -122815.91 158957.89 -122339.72 158957.89 -121958.77 159053.12 -121482.58 159148.36 -121196.87 159243.6 -121006.39 159434.08 -120720.67 159529.31 -120625.44 M 160576.93 -121768.29 160386.46 -121673.06 160291.22 -121577.82 160195.98 -121387.34 160195.98 -121292.1 160291.22 -121101.63 160386.46 -121006.39 160576.93 -120911.15 160957.89 -120911.15 161148.36 -121006.39 161243.6 -121101.63 161338.84 -121292.1 161338.84 -121387.34 161243.6 -121577.82 161148.36 -121673.06 160957.89 -121768.29 160576.93 -121768.29 160386.46 -121863.53 160291.22 -121958.77 160195.98 -122149.25 160195.98 -122530.2 160291.22 -122720.67 160386.46 -122815.91 160576.93 -122911.15 160957.89 -122911.15 161148.36 -122815.91 161243.6 -122720.67 161338.84 -122530.2 161338.84 -122149.25 161243.6 -121958.77 161148.36 -121863.53 160957.89 -121768.29 M 163719.79 -122911.15 163719.79 -120911.15 M 164576.93 -122911.15 164576.93 -121863.53 164481.7 -121673.06 164291.22 -121577.82 164005.5 -121577.82 163815.03 -121673.06 163719.79 -121768.29 M 165815.03 -122911.15 165624.55 -122815.91 165529.31 -122720.67 165434.08 -122530.2 165434.08 -121958.77 165529.31 -121768.29 165624.55 -121673.06 165815.03 -121577.82 166100.74 -121577.82 166291.22 -121673.06 166386.46 -121768.29 166481.7 -121958.77 166481.7 -122530.2 166386.46 -122720.67 166291.22 -122815.91 166100.74 -122911.15 165815.03 -122911.15 M 167624.55 -122911.15 167434.08 -122815.91 167338.84 -122625.44 167338.84 -120911.15 M 169148.36 -122815.91 168957.89 -122911.15 168576.93 -122911.15 168386.46 -122815.91 168291.22 -122625.44 168291.22 -121863.53 168386.46 -121673.06 168576.93 -121577.82 168957.89 -121577.82 169148.36 -121673.06 169243.6 -121863.53 169243.6 -122054.01 168291.22 -122244.48 M 170005.51 -122815.91 170195.98 -122911.15 170576.93 -122911.15 170767.41 -122815.91 170862.65 -122625.44 170862.65 -122530.2 170767.41 -122339.72 170576.93 -122244.48 170291.22 -122244.48 170100.74 -122149.25 170005.51 -121958.77 170005.51 -121863.53 170100.74 -121673.06 170291.22 -121577.82 170576.93 -121577.82 170767.41 -121673.06 M 171529.32 -123673.06 171624.55 -123577.82 171815.03 -123292.1 171910.27 -123101.63 172005.51 -122815.91 172100.74 -122339.72 172100.74 -121958.77 172005.51 -121482.58 171910.27 -121196.87 171815.03 -121006.39 171624.55 -120720.67 171529.32 -120625.44" fill="none" stroke-width="200"/><path d="M 123778.69 -124636.31 A 200 200 0 0 1 123378.69 -124636.31 200 200 0 0 1 123778.69 -124636.31" fill="none" stroke-width="40"/><path d="M 126767.41 -123551.15 126957.88 -123551.15 127148.36 -123646.39 127243.6 -123741.63 127338.83 -123932.1 127434.07 -124313.06 127434.07 -124789.25 127338.83 -125170.2 127243.6 -125360.67 127148.36 -125455.91 126957.88 -125551.15 126767.41 -125551.15 126576.93 -125455.91 126481.69 -125360.67 126386.45 -125170.2 126291.22 -124789.25 126291.22 -124313.06 126386.45 -123932.1 126481.69 -123741.63 126576.93 -123646.39 126767.41 -123551.15 M 128291.22 -125360.67 128386.45 -125455.91 128291.22 -125551.15 128195.98 -125455.91 128291.22 -125360.67 128291.22 -125551.15 M 130100.74 -124217.82 130100.74 -125551.15 M 129624.55 -123455.91 129148.36 -124884.48 130386.45 -124884.48 M 131529.31 -123551.15 131719.79 -123551.15 131910.26 -123646.39 132005.5 -123741.63 132100.74 -123932.1 132195.98 -124313.06 132195.98 -124789.25 132100.74 -125170.2 132005.5 -125360.67 131910.26 -125455.91 131719.79 -125551.15 131529.31 -125551.15 131338.83 -125455.91 131243.6 -125360.67 131148.36 -125170.2 131053.12 -124789.25 131053.12 -124313.06 131148.36 -123932.1 131243.6 -123741.63 131338.83 -123646.39 131529.31 -123551.15 M 133434.07 -123551.15 133624.55 -123551.15 133815.03 -123646.39 133910.26 -123741.63 134005.5 -123932.1 134100.74 -124313.06 134100.74 -124789.25 134005.5 -125170.2 133910.26 -125360.67 133815.03 -125455.91 133624.55 -125551.15 133434.07 -125551.15 133243.6 -125455.91 133148.36 -125360.67 133053.12 -125170.2 132957.88 -124789.25 132957.88 -124313.06 133053.12 -123932.1 133148.36 -123741.63 133243.6 -123646.39 133434.07 -123551.15 M 134957.88 -125551.15 134957.88 -124217.82 M 134957.88 -124408.29 135053.12 -124313.06 135243.6 -124217.82 135529.31 -124217.82 135719.79 -124313.06 135815.03 -124503.53 135815.03 -125551.15 M 135815.03 -124503.53 135910.26 -124313.06 136100.74 -124217.82 136386.45 -124217.82 136576.93 -124313.06 136672.17 -124503.53 136672.17 -125551.15 M 137624.55 -125551.15 137624.55 -124217.82 M 137624.55 -124408.29 137719.79 -124313.06 137910.26 -124217.82 138195.98 -124217.82 138386.45 -124313.06 138481.69 -124503.53 138481.69 -125551.15 M 138481.69 -124503.53 138576.93 -124313.06 138767.41 -124217.82 139053.12 -124217.82 139243.6 -124313.06 139338.84 -124503.53 139338.84 -125551.15 M 143243.6 -123455.91 141529.31 -126027.34 M 145815.03 -123551.15 146005.5 -123551.15 146195.98 -123646.39 146291.22 -123741.63 146386.46 -123932.1 146481.69 -124313.06 146481.69 -124789.25 146386.46 -125170.2 146291.22 -125360.67 146195.98 -125455.91 146005.5 -125551.15 145815.03 -125551.15 145624.55 -125455.91 145529.31 -125360.67 145434.07 -125170.2 145338.84 -124789.25 145338.84 -124313.06 145434.07 -123932.1 145529.31 -123741.63 145624.55 -123646.39 145815.03 -123551.15 M 147338.84 -125360.67 147434.07 -125455.91 147338.84 -125551.15 147243.6 -125455.91 147338.84 -125360.67 147338.84 -125551.15 M 148672.17 -123551.15 148862.65 -123551.15 149053.12 -123646.39 149148.36 -123741.63 149243.6 -123932.1 149338.84 -124313.06 149338.84 -124789.25 149243.6 -125170.2 149148.36 -125360.67 149053.12 -125455.91 148862.65 -125551.15 148672.17 -125551.15 148481.69 -125455.91 148386.46 -125360.67 148291.22 -125170.2 148195.98 -124789.25 148195.98 -124313.06 148291.22 -123932.1 148386.46 -123741.63 148481.69 -123646.39 148672.17 -123551.15 M 151243.6 -125551.15 150100.74 -125551.15 M 150672.17 -125551.15 150672.17 -123551.15 150481.69 -123836.87 150291.22 -124027.34 150100.74 -124122.58 M 153053.12 -123551.15 152100.74 -123551.15 152005.5 -124503.53 152100.74 -124408.29 152291.22 -124313.06 152767.41 -124313.06 152957.88 -124408.29 153053.12 -124503.53 153148.36 -124694.01 153148.36 -125170.2 153053.12 -125360.67 152957.88 -125455.91 152767.41 -125551.15 152291.22 -125551.15 152100.74 -125455.91 152005.5 -125360.67 M 153815.03 -123551.15 155148.36 -123551.15 154291.22 -125551.15 M 155815.03 -123551.15 155815.03 -123932.1 M 156576.93 -123551.15 156576.93 -123932.1 M 159529.31 -126313.06 159434.08 -126217.82 159243.6 -125932.1 159148.36 -125741.63 159053.12 -125455.91 158957.89 -124979.72 158957.89 -124598.77 159053.12 -124122.58 159148.36 -123836.87 159243.6 -123646.39 159434.08 -123360.67 159529.31 -123265.44 M 161338.84 -125551.15 160195.98 -125551.15 M 160767.41 -125551.15 160767.41 -123551.15 160576.93 -123836.87 160386.46 -124027.34 160195.98 -124122.58 M 163053.12 -123551.15 162672.17 -123551.15 162481.69 -123646.39 162386.46 -123741.63 162195.98 -124027.34 162100.74 -124408.29 162100.74 -125170.2 162195.98 -125360.67 162291.22 -125455.91 162481.69 -125551.15 162862.65 -125551.15 163053.12 -125455.91 163148.36 -125360.67 163243.6 -125170.2 163243.6 -124694.01 163148.36 -124503.53 163053.12 -124408.29 162862.65 -124313.06 162481.69 -124313.06 162291.22 -124408.29 162195.98 -124503.53 162100.74 -124694.01 M 164957.89 -124217.82 164957.89 -125551.15 M 164481.69 -123455.91 164005.5 -124884.48 165243.6 -124884.48 M 167529.31 -125551.15 167529.31 -123551.15 M 168386.46 -125551.15 168386.46 -124503.53 168291.22 -124313.06 168100.74 -124217.82 167815.03 -124217.82 167624.55 -124313.06 167529.31 -124408.29 M 169624.55 -125551.15 169434.08 -125455.91 169338.84 -125360.67 169243.6 -125170.2 169243.6 -124598.77 169338.84 -124408.29 169434.08 -124313.06 169624.55 -124217.82 169910.27 -124217.82 170100.74 -124313.06 170195.98 -124408.29 170291.22 -124598.77 170291.22 -125170.2 170195.98 -125360.67 170100.74 -125455.91 169910.27 -125551.15 169624.55 -125551.15 M 171434.08 -125551.15 171243.6 -125455.91 171148.36 -125265.44 171148.36 -123551.15 M 172957.89 -125455.91 172767.41 -125551.15 172386.46 -125551.15 172195.98 -125455.91 172100.74 -125265.44 172100.74 -124503.53 172195.98 -124313.06 172386.46 -124217.82 172767.41 -124217.82 172957.89 -124313.06 173053.13 -124503.53 173053.13 -124694.01 172100.74 -124884.48 M 173815.03 -125455.91 174005.51 -125551.15 174386.46 -125551.15 174576.94 -125455.91 174672.17 -125265.44 174672.17 -125170.2 174576.94 -124979.72 174386.46 -124884.48 174100.74 -124884.48 173910.27 -124789.25 173815.03 -124598.77 173815.03 -124503.53 173910.27 -124313.06 174100.74 -124217.82 174386.46 -124217.82 174576.94 -124313.06 M 175338.84 -126313.06 175434.08 -126217.82 175624.55 -125932.1 175719.79 -125741.63 175815.03 -125455.91 175910.27 -124979.72 175910.27 -124598.77 175815.03 -124122.58 175719.79 -123836.87 175624.55 -123646.39 175434.08 -123360.67 175338.84 -123265.44" fill="none" stroke-width="200"/><path d="M 123478.69 -126976.31 123478.69 -127576.31 M 123178.69 -127276.31 123778.69 -127276.31" fill="none" stroke-width="60"/><path d="M 126767.41 -126191.15 126957.88 -126191.15 127148.36 -126286.39 127243.6 -126381.63 127338.83 -126572.1 127434.07 -126953.06 127434.07 -127429.25 127338.83 -127810.2 127243.6 -128000.67 127148.36 -128095.91 126957.88 -128191.15 126767.41 -128191.15 126576.93 -128095.91 126481.69 -128000.67 126386.45 -127810.2 126291.22 -127429.25 126291.22 -126953.06 126386.45 -126572.1 126481.69 -126381.63 126576.93 -126286.39 126767.41 -126191.15 M 128291.22 -128000.67 128386.45 -128095.91 128291.22 -128191.15 128195.98 -128095.91 128291.22 -128000.67 128291.22 -128191.15 M 130100.74 -126191.15 129719.79 -126191.15 129529.31 -126286.39 129434.07 -126381.63 129243.6 -126667.34 129148.36 -127048.29 129148.36 -127810.2 129243.6 -128000.67 129338.83 -128095.91 129529.31 -128191.15 129910.26 -128191.15 130100.74 -128095.91 130195.98 -128000.67 130291.22 -127810.2 130291.22 -127334.01 130195.98 -127143.53 130100.74 -127048.29 129910.26 -126953.06 129529.31 -126953.06 129338.83 -127048.29 129243.6 -127143.53 129148.36 -127334.01 M 131529.31 -126191.15 131719.79 -126191.15 131910.26 -126286.39 132005.5 -126381.63 132100.74 -126572.1 132195.98 -126953.06 132195.98 -127429.25 132100.74 -127810.2 132005.5 -128000.67 131910.26 -128095.91 131719.79 -128191.15 131529.31 -128191.15 131338.83 -128095.91 131243.6 -128000.67 131148.36 -127810.2 131053.12 -127429.25 131053.12 -126953.06 131148.36 -126572.1 131243.6 -126381.63 131338.83 -126286.39 131529.31 -126191.15 M 133434.07 -126191.15 133624.55 -126191.15 133815.03 -126286.39 133910.26 -126381.63 134005.5 -126572.1 134100.74 -126953.06 134100.74 -127429.25 134005.5 -127810.2 133910.26 -128000.67 133815.03 -128095.91 133624.55 -128191.15 133434.07 -128191.15 133243.6 -128095.91 133148.36 -128000.67 133053.12 -127810.2 132957.88 -127429.25 132957.88 -126953.06 133053.12 -126572.1 133148.36 -126381.63 133243.6 -126286.39 133434.07 -126191.15 M 134957.88 -128191.15 134957.88 -126857.82 M 134957.88 -127048.29 135053.12 -126953.06 135243.6 -126857.82 135529.31 -126857.82 135719.79 -126953.06 135815.03 -127143.53 135815.03 -128191.15 M 135815.03 -127143.53 135910.26 -126953.06 136100.74 -126857.82 136386.45 -126857.82 136576.93 -126953.06 136672.17 -127143.53 136672.17 -128191.15 M 137624.55 -128191.15 137624.55 -126857.82 M 137624.55 -127048.29 137719.79 -126953.06 137910.26 -126857.82 138195.98 -126857.82 138386.45 -126953.06 138481.69 -127143.53 138481.69 -128191.15 M 138481.69 -127143.53 138576.93 -126953.06 138767.41 -126857.82 139053.12 -126857.82 139243.6 -126953.06 139338.84 -127143.53 139338.84 -128191.15 M 143243.6 -126095.91 141529.31 -128667.34 M 145815.03 -126191.15 146005.5 -126191.15 146195.98 -126286.39 146291.22 -126381.63 146386.46 -126572.1 146481.69 -126953.06 146481.69 -127429.25 146386.46 -127810.2 146291.22 -128000.67 146195.98 -128095.91 146005.5 -128191.15 145815.03 -128191.15 145624.55 -128095.91 145529.31 -128000.67 145434.07 -127810.2 145338.84 -127429.25 145338.84 -126953.06 145434.07 -126572.1 145529.31 -126381.63 145624.55 -126286.39 145815.03 -126191.15 M 147338.84 -128000.67 147434.07 -128095.91 147338.84 -128191.15 147243.6 -128095.91 147338.84 -128000.67 147338.84 -128191.15 M 148672.17 -126191.15 148862.65 -126191.15 149053.12 -126286.39 149148.36 -126381.63 149243.6 -126572.1 149338.84 -126953.06 149338.84 -127429.25 149243.6 -127810.2 149148.36 -128000.67 149053.12 -128095.91 148862.65 -128191.15 148672.17 -128191.15 148481.69 -128095.91 148386.46 -128000.67 148291.22 -127810.2 148195.98 -127429.25 148195.98 -126953.06 148291.22 -126572.1 148386.46 -126381.63 148481.69 -126286.39 148672.17 -126191.15 M 150100.74 -126381.63 150195.98 -126286.39 150386.46 -126191.15 150862.65 -126191.15 151053.12 -126286.39 151148.36 -126381.63 151243.6 -126572.1 151243.6 -126762.58 151148.36 -127048.29 150005.5 -128191.15 151243.6 -128191.15 M 151910.27 -126191.15 153148.36 -126191.15 152481.69 -126953.06 152767.41 -126953.06 152957.88 -127048.29 153053.12 -127143.53 153148.36 -127334.01 153148.36 -127810.2 153053.12 -128000.67 152957.88 -128095.91 152767.41 -128191.15 152195.98 -128191.15 152005.5 -128095.91 151910.27 -128000.67 M 154862.65 -126191.15 154481.69 -126191.15 154291.22 -126286.39 154195.98 -126381.63 154005.5 -126667.34 153910.27 -127048.29 153910.27 -127810.2 154005.5 -128000.67 154100.74 -128095.91 154291.22 -128191.15 154672.17 -128191.15 154862.65 -128095.91 154957.88 -128000.67 155053.12 -127810.2 155053.12 -127334.01 154957.88 -127143.53 154862.65 -127048.29 154672.17 -126953.06 154291.22 -126953.06 154100.74 -127048.29 154005.5 -127143.53 153910.27 -127334.01 M 155815.03 -126191.15 155815.03 -126572.1 M 156576.93 -126191.15 156576.93 -126572.1 M 159529.31 -128953.06 159434.08 -128857.82 159243.6 -128572.1 159148.36 -128381.63 159053.12 -128095.91 158957.89 -127619.72 158957.89 -127238.77 159053.12 -126762.58 159148.36 -126476.87 159243.6 -126286.39 159434.08 -126000.67 159529.31 -125905.44 M 160672.17 -126191.15 160862.65 -126191.15 161053.12 -126286.39 161148.36 -126381.63 161243.6 -126572.1 161338.84 -126953.06 161338.84 -127429.25 161243.6 -127810.2 161148.36 -128000.67 161053.12 -128095.91 160862.65 -128191.15 160672.17 -128191.15 160481.69 -128095.91 160386.46 -128000.67 160291.22 -127810.2 160195.98 -127429.25 160195.98 -126953.06 160291.22 -126572.1 160386.46 -126381.63 160481.69 -126286.39 160672.17 -126191.15 M 163719.79 -128191.15 163719.79 -126191.15 M 164576.93 -128191.15 164576.93 -127143.53 164481.7 -126953.06 164291.22 -126857.82 164005.5 -126857.82 163815.03 -126953.06 163719.79 -127048.29 M 165815.03 -128191.15 165624.55 -128095.91 165529.31 -128000.67 165434.08 -127810.2 165434.08 -127238.77 165529.31 -127048.29 165624.55 -126953.06 165815.03 -126857.82 166100.74 -126857.82 166291.22 -126953.06 166386.46 -127048.29 166481.7 -127238.77 166481.7 -127810.2 166386.46 -128000.67 166291.22 -128095.91 166100.74 -128191.15 165815.03 -128191.15 M 167624.55 -128191.15 167434.08 -128095.91 167338.84 -127905.44 167338.84 -126191.15 M 169148.36 -128095.91 168957.89 -128191.15 168576.93 -128191.15 168386.46 -128095.91 168291.22 -127905.44 168291.22 -127143.53 168386.46 -126953.06 168576.93 -126857.82 168957.89 -126857.82 169148.36 -126953.06 169243.6 -127143.53 169243.6 -127334.01 168291.22 -127524.48 M 170005.51 -128095.91 170195.98 -128191.15 170576.93 -128191.15 170767.41 -128095.91 170862.65 -127905.44 170862.65 -127810.2 170767.41 -127619.72 170576.93 -127524.48 170291.22 -127524.48 170100.74 -127429.25 170005.51 -127238.77 170005.51 -127143.53 170100.74 -126953.06 170291.22 -126857.82 170576.93 -126857.82 170767.41 -126953.06 M 173243.6 -127429.25 174767.41 -127429.25 M 174005.51 -128191.15 174005.51 -126667.34 M 178100.75 -126857.82 178100.75 -128191.15 M 177624.55 -126095.91 177148.36 -127524.48 178386.46 -127524.48 M 180576.94 -128095.91 180767.41 -128191.15 181148.36 -128191.15 181338.84 -128095.91 181434.08 -127905.44 181434.08 -127810.2 181338.84 -127619.72 181148.36 -127524.48 180862.65 -127524.48 180672.17 -127429.25 180576.94 -127238.77 180576.94 -127143.53 180672.17 -126953.06 180862.65 -126857.82 181148.36 -126857.82 181338.84 -126953.06 M 182576.94 -128191.15 182386.46 -128095.91 182291.22 -127905.44 182291.22 -126191.15 M 183624.56 -128191.15 183434.08 -128095.91 183338.84 -128000.67 183243.6 -127810.2 183243.6 -127238.77 183338.84 -127048.29 183434.08 -126953.06 183624.56 -126857.82 183910.27 -126857.82 184100.75 -126953.06 184195.98 -127048.29 184291.22 -127238.77 184291.22 -127810.2 184195.98 -128000.67 184100.75 -128095.91 183910.27 -128191.15 183624.56 -128191.15 M 184862.65 -126857.82 185624.56 -126857.82 M 185148.37 -126191.15 185148.37 -127905.44 185243.6 -128095.91 185434.08 -128191.15 185624.56 -128191.15 M 186195.98 -128095.91 186386.46 -128191.15 186767.41 -128191.15 186957.89 -128095.91 187053.13 -127905.44 187053.13 -127810.2 186957.89 -127619.72 186767.41 -127524.48 186481.7 -127524.48 186291.22 -127429.25 186195.98 -127238.77 186195.98 -127143.53 186291.22 -126953.06 186481.7 -126857.82 186767.41 -126857.82 186957.89 -126953.06 M 187719.79 -128953.06 187815.03 -128857.82 188005.51 -128572.1 188100.75 -128381.63 188195.98 -128095.91 188291.22 -127619.72 188291.22 -127238.77 188195.98 -126762.58 188100.75 -126476.87 188005.51 -126286.39 187815.03 -126000.67 187719.79 -125905.44" fill="none" stroke-width="200"/><path d="M 123668.85 -130181.48 123668.85 -129651.15 123138.52 -129651.15 123138.52 -130181.48 123668.85 -130181.48" fill="none" stroke-width="75"/><path d="M 126767.41 -128831.15 126957.88 -128831.15 127148.36 -128926.39 127243.6 -129021.63 127338.83 -129212.1 127434.07 -129593.06 127434.07 -130069.25 127338.83 -130450.2 127243.6 -130640.67 127148.36 -130735.91 126957.88 -130831.15 126767.41 -130831.15 126576.93 -130735.91 126481.69 -130640.67 126386.45 -130450.2 126291.22 -130069.25 126291.22 -129593.06 126386.45 -129212.1 126481.69 -129021.63 126576.93 -128926.39 126767.41 -128831.15 M 128291.22 -130640.67 128386.45 -130735.91 128291.22 -130831.15 128195.98 -130735.91 128291.22 -130640.67 128291.22 -130831.15 M 129053.12 -128831.15 130386.45 -128831.15 129529.31 -130831.15 M 132100.74 -128831.15 131148.36 -128831.15 131053.12 -129783.53 131148.36 -129688.29 131338.83 -129593.06 131815.03 -129593.06 132005.5 -129688.29 132100.74 -129783.53 132195.98 -129974.01 132195.98 -130450.2 132100.74 -130640.67 132005.5 -130735.91 131815.03 -130831.15 131338.83 -130831.15 131148.36 -130735.91 131053.12 -130640.67 M 133434.07 -128831.15 133624.55 -128831.15 133815.03 -128926.39 133910.26 -129021.63 134005.5 -129212.1 134100.74 -129593.06 134100.74 -130069.25 134005.5 -130450.2 133910.26 -130640.67 133815.03 -130735.91 133624.55 -130831.15 133434.07 -130831.15 133243.6 -130735.91 133148.36 -130640.67 133053.12 -130450.2 132957.88 -130069.25 132957.88 -129593.06 133053.12 -129212.1 133148.36 -129021.63 133243.6 -128926.39 133434.07 -128831.15 M 134957.88 -130831.15 134957.88 -129497.82 M 134957.88 -129688.29 135053.12 -129593.06 135243.6 -129497.82 135529.31 -129497.82 135719.79 -129593.06 135815.03 -129783.53 135815.03 -130831.15 M 135815.03 -129783.53 135910.26 -129593.06 136100.74 -129497.82 136386.45 -129497.82 136576.93 -129593.06 136672.17 -129783.53 136672.17 -130831.15 M 137624.55 -130831.15 137624.55 -129497.82 M 137624.55 -129688.29 137719.79 -129593.06 137910.26 -129497.82 138195.98 -129497.82 138386.45 -129593.06 138481.69 -129783.53 138481.69 -130831.15 M 138481.69 -129783.53 138576.93 -129593.06 138767.41 -129497.82 139053.12 -129497.82 139243.6 -129593.06 139338.84 -129783.53 139338.84 -130831.15 M 143243.6 -128735.91 141529.31 -131307.34 M 145815.03 -128831.15 146005.5 -128831.15 146195.98 -128926.39 146291.22 -129021.63 146386.46 -129212.1 146481.69 -129593.06 146481.69 -130069.25 146386.46 -130450.2 146291.22 -130640.67 146195.98 -130735.91 146005.5 -130831.15 145815.03 -130831.15 145624.55 -130735.91 145529.31 -130640.67 145434.07 -130450.2 145338.84 -130069.25 145338.84 -129593.06 145434.07 -129212.1 145529.31 -129021.63 145624.55 -128926.39 145815.03 -128831.15 M 147338.84 -130640.67 147434.07 -130735.91 147338.84 -130831.15 147243.6 -130735.91 147338.84 -130640.67 147338.84 -130831.15 M 148672.17 -128831.15 148862.65 -128831.15 149053.12 -128926.39 149148.36 -129021.63 149243.6 -129212.1 149338.84 -129593.06 149338.84 -130069.25 149243.6 -130450.2 149148.36 -130640.67 149053.12 -130735.91 148862.65 -130831.15 148672.17 -130831.15 148481.69 -130735.91 148386.46 -130640.67 148291.22 -130450.2 148195.98 -130069.25 148195.98 -129593.06 148291.22 -129212.1 148386.46 -129021.63 148481.69 -128926.39 148672.17 -128831.15 M 150100.74 -129021.63 150195.98 -128926.39 150386.46 -128831.15 150862.65 -128831.15 151053.12 -128926.39 151148.36 -129021.63 151243.6 -129212.1 151243.6 -129402.58 151148.36 -129688.29 150005.5 -130831.15 151243.6 -130831.15 M 152195.98 -130831.15 152576.93 -130831.15 152767.41 -130735.91 152862.65 -130640.67 153053.12 -130354.96 153148.36 -129974.01 153148.36 -129212.1 153053.12 -129021.63 152957.88 -128926.39 152767.41 -128831.15 152386.46 -128831.15 152195.98 -128926.39 152100.74 -129021.63 152005.5 -129212.1 152005.5 -129688.29 152100.74 -129878.77 152195.98 -129974.01 152386.46 -130069.25 152767.41 -130069.25 152957.88 -129974.01 153053.12 -129878.77 153148.36 -129688.29 M 154957.88 -128831.15 154005.5 -128831.15 153910.27 -129783.53 154005.5 -129688.29 154195.98 -129593.06 154672.17 -129593.06 154862.65 -129688.29 154957.88 -129783.53 155053.12 -129974.01 155053.12 -130450.2 154957.88 -130640.67 154862.65 -130735.91 154672.17 -130831.15 154195.98 -130831.15 154005.5 -130735.91 153910.27 -130640.67 M 155815.03 -128831.15 155815.03 -129212.1 M 156576.93 -128831.15 156576.93 -129212.1 M 159529.31 -131593.06 159434.08 -131497.82 159243.6 -131212.1 159148.36 -131021.63 159053.12 -130735.91 158957.89 -130259.72 158957.89 -129878.77 159053.12 -129402.58 159148.36 -129116.87 159243.6 -128926.39 159434.08 -128640.67 159529.31 -128545.44 M 160576.93 -129688.29 160386.46 -129593.06 160291.22 -129497.82 160195.98 -129307.34 160195.98 -129212.1 160291.22 -129021.63 160386.46 -128926.39 160576.93 -128831.15 160957.89 -128831.15 161148.36 -128926.39 161243.6 -129021.63 161338.84 -129212.1 161338.84 -129307.34 161243.6 -129497.82 161148.36 -129593.06 160957.89 -129688.29 160576.93 -129688.29 160386.46 -129783.53 160291.22 -129878.77 160195.98 -130069.25 160195.98 -130450.2 160291.22 -130640.67 160386.46 -130735.91 160576.93 -130831.15 160957.89 -130831.15 161148.36 -130735.91 161243.6 -130640.67 161338.84 -130450.2 161338.84 -130069.25 161243.6 -129878.77 161148.36 -129783.53 160957.89 -129688.29 M 163719.79 -130831.15 163719.79 -128831.15 M 164576.93 -130831.15 164576.93 -129783.53 164481.7 -129593.06 164291.22 -129497.82 164005.5 -129497.82 163815.03 -129593.06 163719.79 -129688.29 M 165815.03 -130831.15 165624.55 -130735.91 165529.31 -130640.67 165434.08 -130450.2 165434.08 -129878.77 165529.31 -129688.29 165624.55 -129593.06 165815.03 -129497.82 166100.74 -129497.82 166291.22 -129593.06 166386.46 -129688.29 166481.7 -129878.77 166481.7 -130450.2 166386.46 -130640.67 166291.22 -130735.91 166100.74 -130831.15 165815.03 -130831.15 M 167624.55 -130831.15 167434.08 -130735.91 167338.84 -130545.44 167338.84 -128831.15 M 169148.36 -130735.91 168957.89 -130831.15 168576.93 -130831.15 168386.46 -130735.91 168291.22 -130545.44 168291.22 -129783.53 168386.46 -129593.06 168576.93 -129497.82 168957.89 -129497.82 169148.36 -129593.06 169243.6 -129783.53 169243.6 -129974.01 168291.22 -130164.48 M 170005.51 -130735.91 170195.98 -130831.15 170576.93 -130831.15 170767.41 -130735.91 170862.65 -130545.44 170862.65 -130450.2 170767.41 -130259.72 170576.93 -130164.48 170291.22 -130164.48 170100.74 -130069.25 170005.51 -129878.77 170005.51 -129783.53 170100.74 -129593.06 170291.22 -129497.82 170576.93 -129497.82 170767.41 -129593.06 M 171529.32 -131593.06 171624.55 -131497.82 171815.03 -131212.1 171910.27 -131021.63 172005.51 -130735.91 172100.74 -130259.72 172100.74 -129878.77 172005.51 -129402.58 171910.27 -129116.87 171815.03 -128926.39 171624.55 -128640.67 171529.32 -128545.44" fill="none" stroke-width="200"/><path d="M 122928.69 -133406.31 123778.69 -132556.31 122928.69 -131706.31 122078.69 -132556.31 122928.69 -133406.31" fill="none" stroke-width="170"/><path d="M 127434.07 -133471.15 126291.22 -133471.15 M 126862.64 -133471.15 126862.64 -131471.15 126672.17 -131756.87 126481.69 -131947.34 126291.22 -132042.58 M 128291.22 -133280.67 128386.45 -133375.91 128291.22 -133471.15 128195.98 -133375.91 128291.22 -133280.67 128291.22 -133471.15 M 129053.12 -131471.15 130386.45 -131471.15 129529.31 -133471.15 M 131529.31 -131471.15 131719.79 -131471.15 131910.26 -131566.39 132005.5 -131661.63 132100.74 -131852.1 132195.98 -132233.06 132195.98 -132709.25 132100.74 -133090.2 132005.5 -133280.67 131910.26 -133375.91 131719.79 -133471.15 131529.31 -133471.15 131338.83 -133375.91 131243.6 -133280.67 131148.36 -133090.2 131053.12 -132709.25 131053.12 -132233.06 131148.36 -131852.1 131243.6 -131661.63 131338.83 -131566.39 131529.31 -131471.15 M 133434.07 -131471.15 133624.55 -131471.15 133815.03 -131566.39 133910.26 -131661.63 134005.5 -131852.1 134100.74 -132233.06 134100.74 -132709.25 134005.5 -133090.2 133910.26 -133280.67 133815.03 -133375.91 133624.55 -133471.15 133434.07 -133471.15 133243.6 -133375.91 133148.36 -133280.67 133053.12 -133090.2 132957.88 -132709.25 132957.88 -132233.06 133053.12 -131852.1 133148.36 -131661.63 133243.6 -131566.39 133434.07 -131471.15 M 134957.88 -133471.15 134957.88 -132137.82 M 134957.88 -132328.29 135053.12 -132233.06 135243.6 -132137.82 135529.31 -132137.82 135719.79 -132233.06 135815.03 -132423.53 135815.03 -133471.15 M 135815.03 -132423.53 135910.26 -132233.06 136100.74 -132137.82 136386.45 -132137.82 136576.93 -132233.06 136672.17 -132423.53 136672.17 -133471.15 M 137624.55 -133471.15 137624.55 -132137.82 M 137624.55 -132328.29 137719.79 -132233.06 137910.26 -132137.82 138195.98 -132137.82 138386.45 -132233.06 138481.69 -132423.53 138481.69 -133471.15 M 138481.69 -132423.53 138576.93 -132233.06 138767.41 -132137.82 139053.12 -132137.82 139243.6 -132233.06 139338.84 -132423.53 139338.84 -133471.15 M 143243.6 -131375.91 141529.31 -133947.34 M 145815.03 -131471.15 146005.5 -131471.15 146195.98 -131566.39 146291.22 -131661.63 146386.46 -131852.1 146481.69 -132233.06 146481.69 -132709.25 146386.46 -133090.2 146291.22 -133280.67 146195.98 -133375.91 146005.5 -133471.15 145815.03 -133471.15 145624.55 -133375.91 145529.31 -133280.67 145434.07 -133090.2 145338.84 -132709.25 145338.84 -132233.06 145434.07 -131852.1 145529.31 -131661.63 145624.55 -131566.39 145815.03 -131471.15 M 147338.84 -133280.67 147434.07 -133375.91 147338.84 -133471.15 147243.6 -133375.91 147338.84 -133280.67 147338.84 -133471.15 M 148672.17 -131471.15 148862.65 -131471.15 149053.12 -131566.39 149148.36 -131661.63 149243.6 -131852.1 149338.84 -132233.06 149338.84 -132709.25 149243.6 -133090.2 149148.36 -133280.67 149053.12 -133375.91 148862.65 -133471.15 148672.17 -133471.15 148481.69 -133375.91 148386.46 -133280.67 148291.22 -133090.2 148195.98 -132709.25 148195.98 -132233.06 148291.22 -131852.1 148386.46 -131661.63 148481.69 -131566.39 148672.17 -131471.15 M 151053.12 -131471.15 150672.17 -131471.15 150481.69 -131566.39 150386.46 -131661.63 150195.98 -131947.34 150100.74 -132328.29 150100.74 -133090.2 150195.98 -133280.67 150291.22 -133375.91 150481.69 -133471.15 150862.65 -133471.15 151053.12 -133375.91 151148.36 -133280.67 151243.6 -133090.2 151243.6 -132614.01 151148.36 -132423.53 151053.12 -132328.29 150862.65 -132233.06 150481.69 -132233.06 150291.22 -132328.29 150195.98 -132423.53 150100.74 -132614.01 M 152957.88 -131471.15 152576.93 -131471.15 152386.46 -131566.39 152291.22 -131661.63 152100.74 -131947.34 152005.5 -132328.29 152005.5 -133090.2 152100.74 -133280.67 152195.98 -133375.91 152386.46 -133471.15 152767.41 -133471.15 152957.88 -133375.91 153053.12 -133280.67 153148.36 -133090.2 153148.36 -132614.01 153053.12 -132423.53 152957.88 -132328.29 152767.41 -132233.06 152386.46 -132233.06 152195.98 -132328.29 152100.74 -132423.53 152005.5 -132614.01 M 154100.74 -133471.15 154481.69 -133471.15 154672.17 -133375.91 154767.41 -133280.67 154957.88 -132994.96 155053.12 -132614.01 155053.12 -131852.1 154957.88 -131661.63 154862.65 -131566.39 154672.17 -131471.15 154291.22 -131471.15 154100.74 -131566.39 154005.5 -131661.63 153910.27 -131852.1 153910.27 -132328.29 154005.5 -132518.77 154100.74 -132614.01 154291.22 -132709.25 154672.17 -132709.25 154862.65 -132614.01 154957.88 -132518.77 155053.12 -132328.29 M 155815.03 -131471.15 155815.03 -131852.1 M 156576.93 -131471.15 156576.93 -131852.1 M 159529.31 -134233.06 159434.08 -134137.82 159243.6 -133852.1 159148.36 -133661.63 159053.12 -133375.91 158957.89 -132899.72 158957.89 -132518.77 159053.12 -132042.58 159148.36 -131756.87 159243.6 -131566.39 159434.08 -131280.67 159529.31 -131185.44 M 160576.93 -132328.29 160386.46 -132233.06 160291.22 -132137.82 160195.98 -131947.34 160195.98 -131852.1 160291.22 -131661.63 160386.46 -131566.39 160576.93 -131471.15 160957.89 -131471.15 161148.36 -131566.39 161243.6 -131661.63 161338.84 -131852.1 161338.84 -131947.34 161243.6 -132137.82 161148.36 -132233.06 160957.89 -132328.29 160576.93 -132328.29 160386.46 -132423.53 160291.22 -132518.77 160195.98 -132709.25 160195.98 -133090.2 160291.22 -133280.67 160386.46 -133375.91 160576.93 -133471.15 160957.89 -133471.15 161148.36 -133375.91 161243.6 -133280.67 161338.84 -133090.2 161338.84 -132709.25 161243.6 -132518.77 161148.36 -132423.53 160957.89 -132328.29 M 163719.79 -133471.15 163719.79 -131471.15 M 164576.93 -133471.15 164576.93 -132423.53 164481.7 -132233.06 164291.22 -132137.82 164005.5 -132137.82 163815.03 -132233.06 163719.79 -132328.29 M 165815.03 -133471.15 165624.55 -133375.91 165529.31 -133280.67 165434.08 -133090.2 165434.08 -132518.77 165529.31 -132328.29 165624.55 -132233.06 165815.03 -132137.82 166100.74 -132137.82 166291.22 -132233.06 166386.46 -132328.29 166481.7 -132518.77 166481.7 -133090.2 166386.46 -133280.67 166291.22 -133375.91 166100.74 -133471.15 165815.03 -133471.15 M 167624.55 -133471.15 167434.08 -133375.91 167338.84 -133185.44 167338.84 -131471.15 M 169148.36 -133375.91 168957.89 -133471.15 168576.93 -133471.15 168386.46 -133375.91 168291.22 -133185.44 168291.22 -132423.53 168386.46 -132233.06 168576.93 -132137.82 168957.89 -132137.82 169148.36 -132233.06 169243.6 -132423.53 169243.6 -132614.01 168291.22 -132804.48 M 170005.51 -133375.91 170195.98 -133471.15 170576.93 -133471.15 170767.41 -133375.91 170862.65 -133185.44 170862.65 -133090.2 170767.41 -132899.72 170576.93 -132804.48 170291.22 -132804.48 170100.74 -132709.25 170005.51 -132518.77 170005.51 -132423.53 170100.74 -132233.06 170291.22 -132137.82 170576.93 -132137.82 170767.41 -132233.06 M 171529.32 -134233.06 171624.55 -134137.82 171815.03 -133852.1 171910.27 -133661.63 172005.51 -133375.91 172100.74 -132899.72 172100.74 -132518.77 172005.51 -132042.58 171910.27 -131756.87 171815.03 -131566.39 171624.55 -131280.67 171529.32 -131185.44" fill="none" stroke-width="200"/></g></svg>