<svg version="1.1" xmlns="http://www.w3.org/2000/svg" xmlns:xlink="http://www.w3.org/1999/xlink" stroke-linecap="round" stroke-linejoin="round" stroke-width="0" fill-rule="evenodd" width="50.50162400000001mm" height="35.831626mm" viewBox="123829.187 -115545.812 50501.624 35831.626" id="bHBOXVtUbtIpkuyxteVn"><defs><g id="bHBOXVtUbtIpkuyxteVn_pad-10"><polygon points="-350,-625 350,-625 350,625 -350,625"/><circle cx="-350" cy="-625" r="250"/><circle cx="350" cy="-625" r="250"/><circle cx="350" cy="625" r="250"/><circle cx="-350" cy="625" r="250"/><polygon points="-350,-875 350,-875 350,-375 -350,-375"/><polygon points="600,-625 600,625 100,625 100,-625"/><polygon points="350,375 -350,375 -350,875 350,875"/><polygon points="-100,625 -100,-625 -600,-625 -600,625"/></g><rect x="-600" y="-875" width="1200" height="1750" rx="600" ry="600" id="bHBOXVtUbtIpkuyxteVn_pad-11"/><g id="bHBOXVtUbtIpkuyxteVn_pad-12"><polygon points="-1099.999,-1099.999 1099.999,-1099.999 1099.999,1099.999 -1099.999,1099.999"/><circle cx="-1099.999" cy="-1099.999" r="250.001"/><circle cx="1099.999" cy="-1099.999" r="250.001"/><circle cx="1099.999" cy="1099.999" r="250.001"/><circle cx="-1099.999" cy="1099.999" r="250.001"/><polygon points="-1099.999,-1350 1099.999,-1350 1099.999,-849.998 -1099.999,-849.998"/><polygon points="1350,-1099.999 1350,1099.999 849.998,1099.999 849.998,-1099.999"/><polygon points="1099.999,849.998 -1099.999,849.998 -1099.999,1350 1099.999,1350"/><polygon points="-849.998,1099.999 -849.998,-1099.999 -1350,-1099.999 -1350,1099.999"/></g><circle cx="0" cy="0" r="1350" id="bHBOXVtUbtIpkuyxteVn_pad-13"/><rect x="-500" y="-1050" width="1000" height="2100" rx="500" ry="500" id="bHBOXVtUbtIpkuyxteVn_pad-14"/><rect x="-500" y="-800" width="1000" height="1600" rx="500" ry="500" id="bHBOXVtUbtIpkuyxteVn_pad-15"/><circle cx="0" cy="0" r="400" id="bHBOXVtUbtIpkuyxteVn_pad-16"/><circle cx="0" cy="0" r="302.4" id="bHBOXVtUbtIpkuyxteVn_pad-17"/></defs><g transform="translate(0,-195259.99800000002) scale(1,-1)" fill="currentColor" stroke="currentColor"><use xlink:href="#bHBOXVtUbtIpkuyxteVn_pad-10" x="154025" y="-103630"/><use xlink:href="#bHBOXVtUbtIpkuyxteVn_pad-11" x="156025" y="-103630"/><use xlink:href="#bHBOXVtUbtIpkuyxteVn_pad-12" x="164890" y="-108505"/><use xlink:href="#bHBOXVtUbtIpkuyxteVn_pad-13" x="168850" y="-108505"/><use xlink:href="#bHBOXVtUbtIpkuyxteVn_pad-10" x="165975" y="-103675"/><use xlink:href="#bHBOXVtUbtIpkuyxteVn_pad-11" x="167975" y="-103675"/><use xlink:href="#bHBOXVtUbtIpkuyxteVn_pad-14" x="153450" y="-86705"/><use xlink:href="#bHBOXVtUbtIpkuyxteVn_pad-15" x="153450" y="-82525"/><use xlink:href="#bHBOXVtUbtIpkuyxteVn_pad-14" x="144810" y="-86705"/><use xlink:href="#bHBOXVtUbtIpkuyxteVn_pad-15" x="144810" y="-82525"/><use xlink:href="#bHBOXVtUbtIpkuyxteVn_pad-10" x="142140" y="-103675"/><use xlink:href="#bHBOXVtUbtIpkuyxteVn_pad-11" x="144140" y="-103675"/><use xlink:href="#bHBOXVtUbtIpkuyxteVn_pad-12" x="141160" y="-108505"/><use xlink:href="#bHBOXVtUbtIpkuyxteVn_pad-13" x="145120" y="-108505"/><use xlink:href="#bHBOXVtUbtIpkuyxteVn_pad-12" x="129280" y="-108515"/><use xlink:href="#bHBOXVtUbtIpkuyxteVn_pad-13" x="133240" y="-108515"/><use xlink:href="#bHBOXVtUbtIpkuyxteVn_pad-12" x="153050" y="-108505"/><use xlink:href="#bHBOXVtUbtIpkuyxteVn_pad-13" x="157010" y="-108505"/><use xlink:href="#bHBOXVtUbtIpkuyxteVn_pad-10" x="130225" y="-103690"/><use xlink:href="#bHBOXVtUbtIpkuyxteVn_pad-11" x="132225" y="-103690"/><use xlink:href="#bHBOXVtUbtIpkuyxteVn_pad-16" x="165000" y="-103000"/><use xlink:href="#bHBOXVtUbtIpkuyxteVn_pad-16" x="166000" y="-106000"/><use xlink:href="#bHBOXVtUbtIpkuyxteVn_pad-16" x="165000" y="-105000"/><use xlink:href="#bHBOXVtUbtIpkuyxteVn_pad-16" x="164000" y="-104000"/><use xlink:href="#bHBOXVtUbtIpkuyxteVn_pad-16" x="164000" y="-106000"/><use xlink:href="#bHBOXVtUbtIpkuyxteVn_pad-16" x="154000" y="-106000"/><use xlink:href="#bHBOXVtUbtIpkuyxteVn_pad-16" x="153000" y="-105000"/><use xlink:href="#bHBOXVtUbtIpkuyxteVn_pad-16" x="153000" y="-103000"/><use xlink:href="#bHBOXVtUbtIpkuyxteVn_pad-16" x="152000" y="-104000"/><use xlink:href="#bHBOXVtUbtIpkuyxteVn_pad-16" x="152000" y="-106000"/><use xlink:href="#bHBOXVtUbtIpkuyxteVn_pad-16" x="141000" y="-103000"/><use xlink:href="#bHBOXVtUbtIpkuyxteVn_pad-16" x="141000" y="-105000"/><use xlink:href="#bHBOXVtUbtIpkuyxteVn_pad-16" x="140000" y="-104000"/><use xlink:href="#bHBOXVtUbtIpkuyxteVn_pad-16" x="140000" y="-106000"/><use xlink:href="#bHBOXVtUbtIpkuyxteVn_pad-16" x="129000" y="-103000"/><use xlink:href="#bHBOXVtUbtIpkuyxteVn_pad-16" x="130000" y="-106000"/><use xlink:href="#bHBOXVtUbtIpkuyxteVn_pad-16" x="129000" y="-105000"/><use xlink:href="#bHBOXVtUbtIpkuyxteVn_pad-16" x="128000" y="-104000"/><use xlink:href="#bHBOXVtUbtIpkuyxteVn_pad-16" x="128000" y="-106000"/><use xlink:href="#bHBOXVtUbtIpkuyxteVn_pad-16" x="161800" y="-102050"/><use xlink:href="#bHBOXVtUbtIpkuyxteVn_pad-16" x="149900" y="-102050"/><use xlink:href="#bHBOXVtUbtIpkuyxteVn_pad-16" x="138000" y="-102000"/><use xlink:href="#bHBOXVtUbtIpkuyxteVn_pad-16" x="125000" y="-98000"/><use xlink:href="#bHBOXVtUbtIpkuyxteVn_pad-16" x="125000" y="-99500"/><use xlink:href="#bHBOXVtUbtIpkuyxteVn_pad-16" x="125000" y="-101000"/><use xlink:href="#bHBOXVtUbtIpkuyxteVn_pad-16" x="126000" y="-102000"/><use xlink:href="#bHBOXVtUbtIpkuyxteVn_pad-16" x="131250" y="-96900"/><use xlink:href="#bHBOXVtUbtIpkuyxteVn_pad-16" x="131250" y="-100450"/><use xlink:href="#bHBOXVtUbtIpkuyxteVn_pad-16" x="143150" y="-100450"/><use xlink:href="#bHBOXVtUbtIpkuyxteVn_pad-16" x="143150" y="-96900"/><use xlink:href="#bHBOXVtUbtIpkuyxteVn_pad-16" x="155050" y="-96900"/><use xlink:href="#bHBOXVtUbtIpkuyxteVn_pad-16" x="155050" y="-100450"/><use xlink:href="#bHBOXVtUbtIpkuyxteVn_pad-16" x="166950" y="-96950"/><use xlink:href="#bHBOXVtUbtIpkuyxteVn_pad-16" x="166950" y="-100450"/><use xlink:href="#bHBOXVtUbtIpkuyxteVn_pad-16" x="172900" y="-102000"/><use xlink:href="#bHBOXVtUbtIpkuyxteVn_pad-16" x="173900" y="-101000"/><use xlink:href="#bHBOXVtUbtIpkuyxteVn_pad-16" x="173900" y="-96700"/><use xlink:href="#bHBOXVtUbtIpkuyxteVn_pad-16" x="161900" y="-96700"/><use xlink:href="#bHBOXVtUbtIpkuyxteVn_pad-16" x="163100" y="-96700"/><use xlink:href="#bHBOXVtUbtIpkuyxteVn_pad-16" x="150100" y="-96700"/><use xlink:href="#bHBOXVtUbtIpkuyxteVn_pad-16" x="151200" y="-96700"/><use xlink:href="#bHBOXVtUbtIpkuyxteVn_pad-16" x="138100" y="-96700"/><use xlink:href="#bHBOXVtUbtIpkuyxteVn_pad-16" x="139200" y="-96700"/><use xlink:href="#bHBOXVtUbtIpkuyxteVn_pad-16" x="125000" y="-96700"/><use xlink:href="#bHBOXVtUbtIpkuyxteVn_pad-16" x="126100" y="-96700"/><use xlink:href="#bHBOXVtUbtIpkuyxteVn_pad-16" x="127200" y="-96700"/><use xlink:href="#bHBOXVtUbtIpkuyxteVn_pad-16" x="127000" y="-105000"/><use xlink:href="#bHBOXVtUbtIpkuyxteVn_pad-16" x="127000" y="-109000"/><use xlink:href="#bHBOXVtUbtIpkuyxteVn_pad-16" x="127000" y="-107000"/><use xlink:href="#bHBOXVtUbtIpkuyxteVn_pad-16" x="126000" y="-104000"/><use xlink:href="#bHBOXVtUbtIpkuyxteVn_pad-16" x="127000" y="-103000"/><use xlink:href="#bHBOXVtUbtIpkuyxteVn_pad-16" x="126000" y="-108000"/><use xlink:href="#bHBOXVtUbtIpkuyxteVn_pad-16" x="126000" y="-106000"/><use xlink:href="#bHBOXVtUbtIpkuyxteVn_pad-16" x="125000" y="-105000"/><use xlink:href="#bHBOXVtUbtIpkuyxteVn_pad-16" x="125000" y="-103000"/><use xlink:href="#bHBOXVtUbtIpkuyxteVn_pad-16" x="125000" y="-107000"/><use xlink:href="#bHBOXVtUbtIpkuyxteVn_pad-16" x="125000" y="-109000"/><use xlink:href="#bHBOXVtUbtIpkuyxteVn_pad-16" x="162800" y="-105000"/><use xlink:href="#bHBOXVtUbtIpkuyxteVn_pad-16" x="162800" y="-109000"/><use xlink:href="#bHBOXVtUbtIpkuyxteVn_pad-16" x="162800" y="-111000"/><use xlink:href="#bHBOXVtUbtIpkuyxteVn_pad-16" x="162800" y="-107000"/><use xlink:href="#bHBOXVtUbtIpkuyxteVn_pad-16" x="161800" y="-104000"/><use xlink:href="#bHBOXVtUbtIpkuyxteVn_pad-16" x="162800" y="-103000"/><use xlink:href="#bHBOXVtUbtIpkuyxteVn_pad-16" x="161800" y="-108000"/><use xlink:href="#bHBOXVtUbtIpkuyxteVn_pad-16" x="161800" y="-110000"/><use xlink:href="#bHBOXVtUbtIpkuyxteVn_pad-16" x="160800" y="-111000"/><use xlink:href="#bHBOXVtUbtIpkuyxteVn_pad-16" x="161800" y="-106000"/><use xlink:href="#bHBOXVtUbtIpkuyxteVn_pad-16" x="160800" y="-105000"/><use xlink:href="#bHBOXVtUbtIpkuyxteVn_pad-16" x="160800" y="-103000"/><use xlink:href="#bHBOXVtUbtIpkuyxteVn_pad-16" x="160800" y="-107000"/><use xlink:href="#bHBOXVtUbtIpkuyxteVn_pad-16" x="160800" y="-109000"/><use xlink:href="#bHBOXVtUbtIpkuyxteVn_pad-16" x="161800" y="-112000"/><use xlink:href="#bHBOXVtUbtIpkuyxteVn_pad-16" x="150900" y="-105000"/><use xlink:href="#bHBOXVtUbtIpkuyxteVn_pad-16" x="150900" y="-109000"/><use xlink:href="#bHBOXVtUbtIpkuyxteVn_pad-16" x="150900" y="-111000"/><use xlink:href="#bHBOXVtUbtIpkuyxteVn_pad-16" x="150900" y="-107000"/><use xlink:href="#bHBOXVtUbtIpkuyxteVn_pad-16" x="149900" y="-104000"/><use xlink:href="#bHBOXVtUbtIpkuyxteVn_pad-16" x="150900" y="-103000"/><use xlink:href="#bHBOXVtUbtIpkuyxteVn_pad-16" x="149900" y="-108000"/><use xlink:href="#bHBOXVtUbtIpkuyxteVn_pad-16" x="149900" y="-110000"/><use xlink:href="#bHBOXVtUbtIpkuyxteVn_pad-16" x="148900" y="-111000"/><use xlink:href="#bHBOXVtUbtIpkuyxteVn_pad-16" x="149900" y="-106000"/><use xlink:href="#bHBOXVtUbtIpkuyxteVn_pad-16" x="148900" y="-105000"/><use xlink:href="#bHBOXVtUbtIpkuyxteVn_pad-16" x="148900" y="-103000"/><use xlink:href="#bHBOXVtUbtIpkuyxteVn_pad-16" x="148900" y="-107000"/><use xlink:href="#bHBOXVtUbtIpkuyxteVn_pad-16" x="148900" y="-109000"/><use xlink:href="#bHBOXVtUbtIpkuyxteVn_pad-16" x="149900" y="-112000"/><use xlink:href="#bHBOXVtUbtIpkuyxteVn_pad-16" x="137000" y="-103000"/><use xlink:href="#bHBOXVtUbtIpkuyxteVn_pad-16" x="137000" y="-105000"/><use xlink:href="#bHBOXVtUbtIpkuyxteVn_pad-16" x="137000" y="-107000"/><use xlink:href="#bHBOXVtUbtIpkuyxteVn_pad-16" x="137000" y="-109000"/><use xlink:href="#bHBOXVtUbtIpkuyxteVn_pad-16" x="137000" y="-111000"/><use xlink:href="#bHBOXVtUbtIpkuyxteVn_pad-16" x="138000" y="-112000"/><use xlink:href="#bHBOXVtUbtIpkuyxteVn_pad-16" x="138000" y="-110000"/><use xlink:href="#bHBOXVtUbtIpkuyxteVn_pad-16" x="138000" y="-108000"/><use xlink:href="#bHBOXVtUbtIpkuyxteVn_pad-16" x="138000" y="-106000"/><use xlink:href="#bHBOXVtUbtIpkuyxteVn_pad-16" x="138000" y="-104000"/><use xlink:href="#bHBOXVtUbtIpkuyxteVn_pad-16" x="139000" y="-103000"/><use xlink:href="#bHBOXVtUbtIpkuyxteVn_pad-16" x="139000" y="-105000"/><use xlink:href="#bHBOXVtUbtIpkuyxteVn_pad-16" x="139000" y="-107000"/><use xlink:href="#bHBOXVtUbtIpkuyxteVn_pad-16" x="139000" y="-109000"/><use xlink:href="#bHBOXVtUbtIpkuyxteVn_pad-16" x="139000" y="-111000"/><use xlink:href="#bHBOXVtUbtIpkuyxteVn_pad-16" x="153500" y="-83900"/><use xlink:href="#bHBOXVtUbtIpkuyxteVn_pad-16" x="153500" y="-85100"/><use xlink:href="#bHBOXVtUbtIpkuyxteVn_pad-16" x="152420" y="-85270"/><use xlink:href="#bHBOXVtUbtIpkuyxteVn_pad-16" x="152400" y="-84400"/><use xlink:href="#bHBOXVtUbtIpkuyxteVn_pad-16" x="152400" y="-83500"/><use xlink:href="#bHBOXVtUbtIpkuyxteVn_pad-16" x="152400" y="-82600"/><use xlink:href="#bHBOXVtUbtIpkuyxteVn_pad-16" x="152400" y="-81700"/><use xlink:href="#bHBOXVtUbtIpkuyxteVn_pad-16" x="145800" y="-85300"/><use xlink:href="#bHBOXVtUbtIpkuyxteVn_pad-16" x="145800" y="-84400"/><use xlink:href="#bHBOXVtUbtIpkuyxteVn_pad-16" x="145800" y="-83500"/><use xlink:href="#bHBOXVtUbtIpkuyxteVn_pad-16" x="145800" y="-82600"/><use xlink:href="#bHBOXVtUbtIpkuyxteVn_pad-16" x="145800" y="-81700"/><use xlink:href="#bHBOXVtUbtIpkuyxteVn_pad-16" x="144800" y="-83900"/><use xlink:href="#bHBOXVtUbtIpkuyxteVn_pad-16" x="144800" y="-85100"/><use xlink:href="#bHBOXVtUbtIpkuyxteVn_pad-17" x="172295.866" y="-97557.9"/><use xlink:href="#bHBOXVtUbtIpkuyxteVn_pad-16" x="171050" y="-91300"/><use xlink:href="#bHBOXVtUbtIpkuyxteVn_pad-16" x="162850" y="-91300"/><use xlink:href="#bHBOXVtUbtIpkuyxteVn_pad-17" x="172273.613" y="-98946.433"/><use xlink:href="#bHBOXVtUbtIpkuyxteVn_pad-16" x="159250" y="-91250"/><use xlink:href="#bHBOXVtUbtIpkuyxteVn_pad-17" x="160395.861" y="-97522.897"/><use xlink:href="#bHBOXVtUbtIpkuyxteVn_pad-16" x="151000" y="-91300"/><use xlink:href="#bHBOXVtUbtIpkuyxteVn_pad-17" x="160373.603" y="-98911.407"/><use xlink:href="#bHBOXVtUbtIpkuyxteVn_pad-16" x="147400" y="-91300"/><use xlink:href="#bHBOXVtUbtIpkuyxteVn_pad-17" x="148486.579" y="-97541.817"/><use xlink:href="#bHBOXVtUbtIpkuyxteVn_pad-16" x="139050" y="-91250"/><use xlink:href="#bHBOXVtUbtIpkuyxteVn_pad-17" x="148468.288" y="-98946.777"/><use xlink:href="#bHBOXVtUbtIpkuyxteVn_pad-16" x="135350" y="-91300"/><use xlink:href="#bHBOXVtUbtIpkuyxteVn_pad-17" x="136572.219" y="-97566.475"/><use xlink:href="#bHBOXVtUbtIpkuyxteVn_pad-16" x="127200" y="-91300"/><use xlink:href="#bHBOXVtUbtIpkuyxteVn_pad-17" x="136542.297" y="-98947.112"/><use xlink:href="#bHBOXVtUbtIpkuyxteVn_pad-16" x="169450" y="-96050"/><use xlink:href="#bHBOXVtUbtIpkuyxteVn_pad-16" x="164500" y="-101450"/><use xlink:href="#bHBOXVtUbtIpkuyxteVn_pad-16" x="157550" y="-96000"/><use xlink:href="#bHBOXVtUbtIpkuyxteVn_pad-16" x="152600" y="-101450"/><use xlink:href="#bHBOXVtUbtIpkuyxteVn_pad-16" x="145650" y="-96050"/><use xlink:href="#bHBOXVtUbtIpkuyxteVn_pad-16" x="140700" y="-101450"/><use xlink:href="#bHBOXVtUbtIpkuyxteVn_pad-16" x="128800" y="-101450"/><use xlink:href="#bHBOXVtUbtIpkuyxteVn_pad-16" x="133300" y="-96000"/><use xlink:href="#bHBOXVtUbtIpkuyxteVn_pad-16" x="167700" y="-99850"/><use xlink:href="#bHBOXVtUbtIpkuyxteVn_pad-16" x="166950" y="-98050"/><use xlink:href="#bHBOXVtUbtIpkuyxteVn_pad-16" x="166950" y="-99250"/><use xlink:href="#bHBOXVtUbtIpkuyxteVn_pad-16" x="166200" y="-98650"/><use xlink:href="#bHBOXVtUbtIpkuyxteVn_pad-16" x="166200" y="-97450"/><use xlink:href="#bHBOXVtUbtIpkuyxteVn_pad-16" x="167700" y="-98650"/><use xlink:href="#bHBOXVtUbtIpkuyxteVn_pad-16" x="167700" y="-97450"/><use xlink:href="#bHBOXVtUbtIpkuyxteVn_pad-16" x="166200" y="-99850"/><use xlink:href="#bHBOXVtUbtIpkuyxteVn_pad-16" x="155800" y="-99850"/><use xlink:href="#bHBOXVtUbtIpkuyxteVn_pad-16" x="155050" y="-98050"/><use xlink:href="#bHBOXVtUbtIpkuyxteVn_pad-16" x="155050" y="-99250"/><use xlink:href="#bHBOXVtUbtIpkuyxteVn_pad-16" x="154300" y="-98650"/><use xlink:href="#bHBOXVtUbtIpkuyxteVn_pad-16" x="154300" y="-97450"/><use xlink:href="#bHBOXVtUbtIpkuyxteVn_pad-16" x="155800" y="-98650"/><use xlink:href="#bHBOXVtUbtIpkuyxteVn_pad-16" x="155800" y="-97450"/><use xlink:href="#bHBOXVtUbtIpkuyxteVn_pad-16" x="154300" y="-99850"/><use xlink:href="#bHBOXVtUbtIpkuyxteVn_pad-16" x="143900" y="-99850"/><use xlink:href="#bHBOXVtUbtIpkuyxteVn_pad-16" x="143150" y="-98050"/><use xlink:href="#bHBOXVtUbtIpkuyxteVn_pad-16" x="143150" y="-99250"/><use xlink:href="#bHBOXVtUbtIpkuyxteVn_pad-16" x="142400" y="-98650"/><use xlink:href="#bHBOXVtUbtIpkuyxteVn_pad-16" x="142400" y="-97450"/><use xlink:href="#bHBOXVtUbtIpkuyxteVn_pad-16" x="143900" y="-98650"/><use xlink:href="#bHBOXVtUbtIpkuyxteVn_pad-16" x="143900" y="-97450"/><use xlink:href="#bHBOXVtUbtIpkuyxteVn_pad-16" x="142400" y="-99850"/><use xlink:href="#bHBOXVtUbtIpkuyxteVn_pad-16" x="131250" y="-99300"/><use xlink:href="#bHBOXVtUbtIpkuyxteVn_pad-16" x="131250" y="-98100"/><use xlink:href="#bHBOXVtUbtIpkuyxteVn_pad-16" x="132000" y="-98700"/><use xlink:href="#bHBOXVtUbtIpkuyxteVn_pad-16" x="132000" y="-99900"/><use xlink:href="#bHBOXVtUbtIpkuyxteVn_pad-16" x="130500" y="-99900"/><use xlink:href="#bHBOXVtUbtIpkuyxteVn_pad-16" x="130500" y="-98700"/><use xlink:href="#bHBOXVtUbtIpkuyxteVn_pad-16" x="132000" y="-97500"/><use xlink:href="#bHBOXVtUbtIpkuyxteVn_pad-16" x="130500" y="-97500"/><path d="M 172273.613 -98946.433 171350 -98022.82 M 168300 -91300 162850 -91300 M 171350 -98022.82 171350 -94350 168300 -91300 M 136572.219 -92522.219 135350 -91300 M 136572.219 -97566.475 136572.219 -92522.219 M 148486.579 -92386.579 147400 -91300 M 148486.579 -97541.817 148486.579 -92386.579 M 172295.866 -92545.866 171050 -91300 M 172295.866 -97557.9 172295.866 -92545.866 M 160395.861 -92395.861 159250 -91250 M 160395.861 -97522.897 160395.861 -92395.861 M 156350 -91300 151000 -91300 M 159500 -98037.804 159500 -97450 159500 -94450 156350 -91300 M 160373.603 -98911.407 159500 -98037.804 M 143550 -91250 139050 -91250 M 143900 -91600 143550 -91250 M 147500 -95200 143900 -91600 M 148468.288 -98946.777 147500 -97978.489 M 147500 -97100 147500 -95200 M 147500 -97978.489 147500 -97100 M 135600 -95000 131900 -91300 127200 -91300 M 135600 -97950 135600 -95000 M 136450 -98800 135600 -97950 M 168400 -101450 169450 -100400 M 164500 -101450 168400 -101450 M 169450 -100400 169450 -96050 M 157550 -100450 157550 -96000 M 156550 -101450 157550 -100450 M 152600 -101450 156550 -101450 M 145650 -100500 145650 -96050 M 140700 -101450 144700 -101450 145650 -100500 M 128800 -101450 132400 -101450 M 133300 -100550 133300 -96000 M 133100 -100750 133300 -100550 M 132400 -101450 133100 -100750" fill="none" stroke-width="304.8"/><path d="M 154250 -88525 152000 -88525 152000 -86750.5 152057.717 -86750.5 152057.72 -86750.5 152170.236 -86735.687 152310.233 -86677.698 152430.451 -86585.451 152522.698 -86465.233 152580.687 -86325.236 152600.466 -86175 152580.687 -86024.764 152522.698 -85884.767 152522.695 -85884.763 152430.451 -85764.548 152310.236 -85672.304 152310.235 -85672.303 152310.233 -85672.302 152219.734 -85634.816 152170.237 -85614.313 152142.107 -85610.609 152057.72 -85599.5 152000 -85599.5 152000 -81275 154250 -81275 154250 -88525"/><path d="M 146250 -85599.5 146202.28 -85599.5 146134.77 -85608.387 146089.762 -85614.313 145990.766 -85655.319 145949.767 -85672.302 145949.766 -85672.302 145949.763 -85672.304 145829.548 -85764.548 145737.304 -85884.763 145679.313 -86024.762 145679.313 -86024.764 145659.534 -86175 145679.313 -86325.236 145737.302 -86465.233 145737.303 -86465.235 145737.304 -86465.236 145829.548 -86585.451 145949.763 -86677.695 145949.767 -86677.698 146089.764 -86735.687 146202.28 -86750.5 146202.283 -86750.5 146250 -86750.5 146250 -88525 144000 -88525 144000 -81275 146250 -81275 146250 -85599.5"/><path d="M 171562.358 -79714.244 171676.823 -79720.673 171869.876 -79732.352 171877.082 -79732.788 171881.103 -79733.249 171996.092 -79752.788 172027.137 -79758.063 172194.922 -79788.811 172198.51 -79789.654 172325.784 -79826.322 172346.71 -79832.351 172376.453 -79841.619 172504.039 -79881.377 172507.216 -79882.527 172597.802 -79920.049 172652.061 -79942.524 172800.287 -80009.236 172803.041 -80010.613 172941.438 -80087.103 173060.48 -80159.067 173079.674 -80170.67 173081.976 -80172.18 173210.867 -80263.633 173212.254 -80264.667 173338.41 -80363.504 173340.265 -80365.056 173458.336 -80470.572 173459.823 -80471.978 173573.019 -80585.174 173574.429 -80586.665 173635.201 -80654.668 173679.937 -80704.728 173681.5 -80706.595 173780.321 -80832.731 173781.377 -80834.147 173872.815 -80963.017 173874.328 -80965.323 173957.9 -81103.567 174034.383 -81241.954 174035.762 -81244.711 174102.475 -81392.938 174162.466 -81537.768 174163.626 -81540.973 174212.648 -81698.289 174255.339 -81846.469 174256.193 -81850.103 174286.936 -82017.862 174311.747 -82163.885 174312.21 -82167.916 174324.323 -82368.128 174330.752 -82482.616 174330.811 -82484.764 174299.533 -112733.395 174299.5 -112733.485 174299.5 -112763.938 174299.441 -112766.047 174293.013 -112880.502 174280.899 -113080.762 174280.436 -113084.793 174255.62 -113230.853 174224.881 -113398.587 174224.027 -113402.22 174181.341 -113550.388 174132.315 -113707.715 174131.155 -113710.919 174071.166 -113855.747 174004.451 -114003.978 174003.072 -114006.735 173926.598 -114145.108 173843.013 -114283.373 173841.5 -114285.679 173750.074 -114414.532 173749.007 -114415.963 173650.189 -114542.094 173648.626 -114543.961 173543.142 -114661.999 173541.692 -114663.532 173428.532 -114776.692 173426.999 -114778.142 173308.961 -114883.626 173307.094 -114885.189 173180.963 -114984.007 173179.532 -114985.074 173050.679 -115076.5 173048.373 -115078.013 172910.108 -115161.598 172771.735 -115238.072 172768.978 -115239.451 172620.747 -115306.166 172475.919 -115366.155 172472.715 -115367.315 172315.388 -115416.341 172167.22 -115459.027 172163.587 -115459.881 171995.853 -115490.62 171849.793 -115515.436 171845.762 -115515.899 171645.502 -115528.013 171531.044 -115534.441 171528.945 -115534.5 126599.751 -115545.812 126597.632 -115545.753 126483.12 -115539.323 126282.916 -115527.21 126278.885 -115526.747 126132.862 -115501.936 125965.103 -115471.193 125961.469 -115470.339 125813.289 -115427.648 125655.973 -115378.626 125652.768 -115377.466 125507.938 -115317.475 125359.711 -115250.762 125356.954 -115249.383 125218.567 -115172.9 125199.871 -115161.598 125080.323 -115089.328 125078.017 -115087.815 124949.147 -114996.377 124947.731 -114995.321 124821.595 -114896.5 124819.728 -114894.937 124807.071 -114883.626 124701.665 -114789.429 124700.174 -114788.019 124586.978 -114674.823 124585.572 -114673.336 124480.056 -114555.265 124478.498 -114553.403 124469.638 -114542.094 124379.667 -114427.254 124378.633 -114425.867 124287.18 -114296.976 124285.67 -114294.674 124239.96 -114219.061 124202.103 -114156.438 124125.613 -114018.041 124124.236 -114015.287 124057.524 -113867.061 124045.572 -113838.207 123997.527 -113722.216 123996.377 -113719.039 123947.351 -113561.71 123939.132 -113533.181 123904.654 -113413.51 123903.811 -113409.922 123873.063 -113242.137 123859.889 -113164.604 123848.249 -113096.103 123847.788 -113092.082 123837.338 -112919.34 125079.5 -112919.34 125117.092 -113144.616 125120.429 -113164.614 125120.43 -113164.616 125201.173 -113399.813 125201.174 -113399.815 125319.524 -113618.507 125472.26 -113814.742 125472.264 -113814.746 125655.216 -113983.165 125863.39 -114119.172 125863.392 -114119.172 125863.393 -114119.173 126091.119 -114219.063 126332.179 -114280.108 126394.097 -114285.238 126517.927 -114295.5 126517.933 -114295.5 126642.073 -114295.5 126760.589 -114285.679 126827.821 -114280.108 127068.881 -114219.063 127296.607 -114119.173 127297.537 -114118.566 127455.617 -114015.287 127504.785 -113983.164 127687.738 -113814.744 127840.474 -113618.509 127958.828 -113399.81 128039.571 -113164.614 128080.5 -112919.335 128080.5 -112899.34 170039.5 -112899.34 170080.427 -113144.604 170080.429 -113144.614 170080.43 -113144.616 170161.173 -113379.813 170161.174 -113379.815 170279.524 -113598.507 170432.26 -113794.742 170432.264 -113794.746 170615.216 -113963.165 170823.39 -114099.172 170823.392 -114099.172 170823.393 -114099.173 171051.119 -114199.063 171292.179 -114260.108 171354.097 -114265.238 171477.927 -114275.5 171477.933 -114275.5 171602.073 -114275.5 171713.519 -114266.264 171787.821 -114260.108 172028.881 -114199.063 172256.607 -114099.173 172464.785 -113963.164 172647.738 -113794.744 172800.474 -113598.509 172918.828 -113379.81 172999.571 -113144.614 173040.5 -112899.335 173040.5 -112650.665 172999.571 -112405.386 172918.828 -112170.19 172811.298 -111971.492 172800.475 -111951.492 172647.739 -111755.257 172647.735 -111755.253 172464.783 -111586.834 172256.609 -111450.827 172256.605 -111450.826 172028.887 -111350.939 172028.883 -111350.938 172028.881 -111350.937 171787.821 -111289.892 171787.82 -111289.891 171787.817 -111289.891 171602.073 -111274.5 171602.067 -111274.5 171477.933 -111274.5 171477.927 -111274.5 171292.182 -111289.891 171213.205 -111309.891 171051.119 -111350.937 171051.117 -111350.937 171051.116 -111350.938 171051.112 -111350.939 170823.394 -111450.826 170823.39 -111450.827 170615.216 -111586.834 170432.264 -111755.253 170432.26 -111755.257 170279.524 -111951.492 170161.174 -112170.184 170161.173 -112170.186 170080.43 -112405.383 170080.427 -112405.395 170039.5 -112650.659 170039.5 -112899.34 128080.5 -112899.34 128080.5 -112670.665 128039.571 -112425.386 127958.828 -112190.19 127948.005 -112170.19 127840.475 -111971.492 127687.739 -111775.257 127687.735 -111775.253 127504.783 -111606.834 127296.609 -111470.827 127296.605 -111470.826 127068.887 -111370.939 127068.883 -111370.938 127068.881 -111370.937 126827.821 -111309.892 126827.82 -111309.891 126827.817 -111309.891 126642.073 -111294.5 126642.067 -111294.5 126517.933 -111294.5 126517.927 -111294.5 126332.182 -111309.891 126211.649 -111340.414 126091.119 -111370.937 126091.117 -111370.937 126091.116 -111370.938 126091.112 -111370.939 125863.394 -111470.826 125863.39 -111470.827 125655.216 -111606.834 125472.264 -111775.253 125472.26 -111775.257 125319.524 -111971.492 125201.174 -112190.184 125201.173 -112190.186 125120.43 -112425.383 125120.427 -112425.395 125079.5 -112670.659 125079.5 -112919.34 123837.338 -112919.34 123835.673 -112891.823 123829.245 -112777.376 123829.187 -112775.23 123834.816 -108515.002 131684.706 -108515.002 131703.853 -108758.299 131703.855 -108758.309 131749.941 -108950.265 131760.828 -108995.612 131854.223 -109221.089 131975.612 -109419.177 131981.74 -109429.177 131981.743 -109429.181 132140.24 -109614.759 132262.931 -109719.546 132325.821 -109773.259 132533.911 -109900.777 132759.388 -109994.172 132996.698 -110051.146 133094.018 -110058.805 133239.997 -110070.294 133240 -110070.294 133240.003 -110070.294 133367.064 -110060.294 133483.302 -110051.146 133720.612 -109994.172 133946.089 -109900.777 134154.179 -109773.259 134339.759 -109614.759 134498.259 -109429.179 134625.777 -109221.089 134719.172 -108995.612 134776.146 -108758.302 134795.294 -108515 134794.507 -108505.002 143564.706 -108505.002 143583.853 -108748.299 143583.855 -108748.309 143629.941 -108940.265 143640.828 -108985.612 143734.223 -109211.089 143861.741 -109419.179 143897.549 -109461.105 144020.24 -109604.759 144142.931 -109709.546 144205.821 -109763.259 144413.911 -109890.777 144639.388 -109984.172 144876.698 -110041.146 144974.018 -110048.805 145119.997 -110060.294 145120 -110060.294 145120.003 -110060.294 145241.651 -110050.72 145363.302 -110041.146 145600.612 -109984.172 145826.089 -109890.777 146034.179 -109763.259 146219.759 -109604.759 146378.259 -109419.179 146505.777 -109211.089 146599.172 -108985.612 146656.146 -108748.302 146675.294 -108505.002 155454.706 -108505.002 155473.853 -108748.299 155473.855 -108748.309 155519.941 -108940.265 155530.828 -108985.612 155624.223 -109211.089 155751.741 -109419.179 155787.549 -109461.105 155910.24 -109604.759 156032.931 -109709.546 156095.821 -109763.259 156303.911 -109890.777 156529.388 -109984.172 156766.698 -110041.146 156864.018 -110048.805 157009.997 -110060.294 157010 -110060.294 157010.003 -110060.294 157131.651 -110050.72 157253.302 -110041.146 157490.612 -109984.172 157716.089 -109890.777 157924.179 -109763.259 158109.759 -109604.759 158268.259 -109419.179 158395.777 -109211.089 158489.172 -108985.612 158546.146 -108748.302 158565.294 -108505.002 167294.706 -108505.002 167313.853 -108748.299 167313.855 -108748.309 167359.941 -108940.265 167370.828 -108985.612 167464.223 -109211.089 167591.741 -109419.179 167627.549 -109461.105 167750.24 -109604.759 167872.931 -109709.546 167935.821 -109763.259 168143.911 -109890.777 168369.388 -109984.172 168606.698 -110041.146 168704.018 -110048.805 168849.997 -110060.294 168850 -110060.294 168850.003 -110060.294 168971.651 -110050.72 169093.302 -110041.146 169330.612 -109984.172 169556.089 -109890.777 169764.179 -109763.259 169949.759 -109604.759 170108.259 -109419.179 170235.777 -109211.089 170329.172 -108985.612 170386.146 -108748.302 170405.294 -108505 170386.146 -108261.698 170329.172 -108024.388 170235.777 -107798.911 170108.259 -107590.821 170054.546 -107527.931 169949.759 -107405.24 169775.89 -107256.743 169764.179 -107246.741 169556.089 -107119.223 169330.612 -107025.828 169285.265 -107014.941 169093.309 -106968.855 169093.299 -106968.853 168850.003 -106949.706 168849.997 -106949.706 168606.7 -106968.853 168606.69 -106968.855 168369.396 -107025.826 168369.388 -107025.828 168369.386 -107025.828 168369.385 -107025.829 168143.911 -107119.223 167935.822 -107246.74 167935.818 -107246.743 167750.24 -107405.24 167591.743 -107590.818 167591.74 -107590.822 167464.223 -107798.911 167370.829 -108024.385 167370.826 -108024.396 167313.855 -108261.69 167313.853 -108261.7 167294.706 -108504.997 167294.706 -108505.002 158565.294 -108505.002 158565.294 -108505 158546.146 -108261.698 158489.172 -108024.388 158395.777 -107798.911 158268.259 -107590.821 158214.546 -107527.931 158109.759 -107405.24 157935.89 -107256.743 157924.179 -107246.741 157716.089 -107119.223 157490.612 -107025.828 157445.265 -107014.941 157253.309 -106968.855 157253.299 -106968.853 157010.003 -106949.706 157009.997 -106949.706 156766.7 -106968.853 156766.69 -106968.855 156529.396 -107025.826 156529.388 -107025.828 156529.386 -107025.828 156529.385 -107025.829 156303.911 -107119.223 156095.822 -107246.74 156095.818 -107246.743 155910.24 -107405.24 155751.743 -107590.818 155751.74 -107590.822 155624.223 -107798.911 155530.829 -108024.385 155530.826 -108024.396 155473.855 -108261.69 155473.853 -108261.7 155454.706 -108504.997 155454.706 -108505.002 146675.294 -108505.002 146675.294 -108505 146656.146 -108261.698 146599.172 -108024.388 146505.777 -107798.911 146378.259 -107590.821 146324.546 -107527.931 146219.759 -107405.24 146045.89 -107256.743 146034.179 -107246.741 145826.089 -107119.223 145600.612 -107025.828 145555.265 -107014.941 145363.309 -106968.855 145363.299 -106968.853 145120.003 -106949.706 145119.997 -106949.706 144876.7 -106968.853 144876.69 -106968.855 144639.396 -107025.826 144639.388 -107025.828 144639.386 -107025.828 144639.385 -107025.829 144413.911 -107119.223 144205.822 -107246.74 144205.818 -107246.743 144020.24 -107405.24 143861.743 -107590.818 143861.74 -107590.822 143734.223 -107798.911 143640.829 -108024.385 143640.826 -108024.396 143583.855 -108261.69 143583.853 -108261.7 143564.706 -108504.997 143564.706 -108505.002 134794.507 -108505.002 134776.146 -108271.698 134719.172 -108034.388 134625.777 -107808.911 134498.259 -107600.821 134444.546 -107537.931 134339.759 -107415.24 134154.181 -107256.743 134154.179 -107256.741 133946.089 -107129.223 133720.612 -107035.828 133675.265 -107024.941 133483.309 -106978.855 133483.299 -106978.853 133240.003 -106959.706 133239.997 -106959.706 132996.7 -106978.853 132996.69 -106978.855 132759.396 -107035.826 132759.388 -107035.828 132759.386 -107035.828 132759.385 -107035.829 132533.911 -107129.223 132325.822 -107256.74 132325.818 -107256.743 132140.24 -107415.24 131981.743 -107600.818 131981.74 -107600.822 131854.223 -107808.911 131760.829 -108034.385 131760.826 -108034.396 131703.855 -108271.69 131703.853 -108271.7 131684.706 -108514.997 131684.706 -108515.002 123834.816 -108515.002 123840.769 -104009.951 131424.5 -104009.951 131439.631 -104144.252 131439.633 -104144.26 131478.215 -104254.519 131499.211 -104314.522 131557.485 -104407.264 131595.185 -104467.264 131722.735 -104594.814 131722.737 -104594.815 131722.738 -104594.816 131875.478 -104690.789 132045.745 -104750.368 132165.248 -104763.832 132224.999 -104770.565 132225 -104770.565 132225.001 -104770.565 132269.813 -104765.515 132404.255 -104750.368 132574.522 -104690.789 132727.262 -104594.816 132854.816 -104467.262 132950.789 -104314.522 133010.368 -104144.255 133025.5 -104009.954 133025.5 -103994.951 143339.5 -103994.951 143354.631 -104129.252 143354.633 -104129.26 143359.882 -104144.26 143414.211 -104299.522 143481.909 -104407.262 143510.185 -104452.264 143637.735 -104579.814 143637.737 -104579.815 143637.738 -104579.816 143790.478 -104675.789 143960.745 -104735.368 144080.248 -104748.832 144139.999 -104755.565 144140 -104755.565 144140.001 -104755.565 144186.143 -104750.366 144319.255 -104735.368 144489.522 -104675.789 144642.262 -104579.816 144769.816 -104452.262 144865.789 -104299.522 144925.368 -104129.255 144940.5 -103994.954 144940.5 -103949.951 155224.5 -103949.951 155239.631 -104084.252 155239.633 -104084.26 155295.502 -104243.923 155299.211 -104254.522 155336.91 -104314.519 155395.185 -104407.264 155522.735 -104534.814 155522.737 -104534.815 155522.738 -104534.816 155675.478 -104630.789 155845.745 -104690.368 155965.248 -104703.832 156024.999 -104710.565 156025 -104710.565 156025.001 -104710.565 156069.813 -104705.515 156204.255 -104690.368 156374.522 -104630.789 156527.262 -104534.816 156654.816 -104407.262 156750.789 -104254.522 156810.368 -104084.255 156820.43 -103994.951 167174.5 -103994.951 167189.631 -104129.252 167189.633 -104129.26 167194.882 -104144.26 167249.211 -104299.522 167316.909 -104407.262 167345.185 -104452.264 167472.735 -104579.814 167472.737 -104579.815 167472.738 -104579.816 167625.478 -104675.789 167795.745 -104735.368 167915.248 -104748.832 167974.999 -104755.565 167975 -104755.565 167975.001 -104755.565 168021.143 -104750.366 168154.255 -104735.368 168324.522 -104675.789 168477.262 -104579.816 168604.816 -104452.262 168700.789 -104299.522 168760.368 -104129.255 168775.5 -103994.954 168775.5 -103355.046 168760.368 -103220.745 168700.789 -103050.478 168604.816 -102897.738 168604.815 -102897.737 168604.814 -102897.735 168477.264 -102770.185 168442.923 -102748.607 168324.522 -102674.211 168313.923 -102670.502 168154.26 -102614.633 168154.252 -102614.631 167975.001 -102594.435 167974.999 -102594.435 167795.747 -102614.631 167795.739 -102614.633 167625.48 -102674.21 167472.735 -102770.185 167345.185 -102897.735 167249.21 -103050.48 167189.633 -103220.739 167189.631 -103220.747 167174.5 -103355.048 167174.5 -103994.951 156820.43 -103994.951 156825.5 -103949.954 156825.5 -103310.046 156810.368 -103175.745 156750.789 -103005.478 156654.816 -102852.738 156654.815 -102852.737 156654.814 -102852.735 156527.264 -102725.185 156470.011 -102689.211 156374.522 -102629.211 156363.923 -102625.502 156204.26 -102569.633 156204.252 -102569.631 156025.001 -102549.435 156024.999 -102549.435 155845.747 -102569.631 155845.739 -102569.633 155675.48 -102629.21 155675.478 -102629.21 155675.478 -102629.211 155641.139 -102650.787 155522.735 -102725.185 155395.185 -102852.735 155299.21 -103005.48 155239.633 -103175.739 155239.631 -103175.747 155224.5 -103310.048 155224.5 -103949.951 144940.5 -103949.951 144940.5 -103355.046 144925.368 -103220.745 144865.789 -103050.478 144769.816 -102897.738 144769.815 -102897.737 144769.814 -102897.735 144642.264 -102770.185 144607.923 -102748.607 144489.522 -102674.211 144478.923 -102670.502 144319.26 -102614.633 144319.252 -102614.631 144140.001 -102594.435 144139.999 -102594.435 143960.747 -102614.631 143960.739 -102614.633 143790.48 -102674.21 143637.735 -102770.185 143510.185 -102897.735 143414.21 -103050.48 143354.633 -103220.739 143354.631 -103220.747 143339.5 -103355.048 143339.5 -103994.951 133025.5 -103994.951 133025.5 -103370.046 133010.368 -103235.745 132950.789 -103065.478 132854.816 -102912.738 132854.815 -102912.737 132854.814 -102912.735 132727.264 -102785.185 132631.774 -102725.185 132574.522 -102689.211 132563.923 -102685.502 132404.26 -102629.633 132404.252 -102629.631 132225.001 -102609.435 132224.999 -102609.435 132045.747 -102629.631 132045.739 -102629.633 131875.48 -102689.21 131722.735 -102785.185 131595.185 -102912.735 131499.21 -103065.48 131439.633 -103235.739 131439.631 -103235.747 131424.5 -103370.048 131424.5 -104009.951 123840.769 -104009.951 123844.151 -101450 128194.318 -101450 128214.956 -101606.763 128275.463 -101752.839 128275.465 -101752.842 128371.717 -101878.282 128449.801 -101938.197 128497.159 -101974.536 128643.238 -102035.044 128800 -102055.682 128956.762 -102035.044 129102.841 -101974.536 129228.282 -101878.282 129263.549 -101832.321 129306.932 -101804.683 129323.209 -101802.9 132355.6 -101802.9 132371.03 -101804.5 132373.903 -101805.102 132385.215 -101807.474 132409.074 -101804.5 132419.596 -101803.189 132424.25 -101802.9 132429.24 -101802.9 132429.243 -101802.9 132450.888 -101799.287 132502.088 -101792.906 132502.09 -101792.904 132508.06 -101791.128 132508.167 -101791.489 132510.399 -101790.774 132510.277 -101790.417 132516.167 -101788.394 132516.171 -101788.394 132561.544 -101763.839 132607.897 -101741.179 132607.899 -101741.176 132612.966 -101737.559 132613.186 -101737.867 132615.065 -101736.466 132614.833 -101736.168 132619.745 -101732.343 132619.753 -101732.339 132654.7 -101694.375 132899.075 -101450 140094.318 -101450 140114.956 -101606.763 140175.463 -101752.839 140175.465 -101752.842 140271.717 -101878.282 140349.801 -101938.197 140397.159 -101974.536 140543.238 -102035.044 140700 -102055.682 140856.762 -102035.044 141002.841 -101974.536 141128.282 -101878.282 141163.549 -101832.321 141206.932 -101804.683 141223.209 -101802.9 144655.6 -101802.9 144671.03 -101804.5 144673.903 -101805.102 144685.215 -101807.474 144709.074 -101804.5 144719.596 -101803.189 144724.25 -101802.9 144729.24 -101802.9 144729.243 -101802.9 144750.888 -101799.287 144802.088 -101792.906 144802.09 -101792.904 144808.06 -101791.128 144808.167 -101791.489 144810.399 -101790.774 144810.277 -101790.417 144816.167 -101788.394 144816.171 -101788.394 144861.544 -101763.839 144907.897 -101741.179 144907.899 -101741.176 144912.966 -101737.559 144913.186 -101737.867 144915.065 -101736.466 144914.833 -101736.168 144919.745 -101732.343 144919.753 -101732.339 144954.7 -101694.375 145199.075 -101450 151994.318 -101450 152014.956 -101606.763 152075.463 -101752.839 152075.465 -101752.842 152171.717 -101878.282 152249.801 -101938.197 152297.159 -101974.536 152443.238 -102035.044 152600 -102055.682 152756.762 -102035.044 152902.841 -101974.536 153028.282 -101878.282 153063.549 -101832.321 153106.932 -101804.683 153123.209 -101802.9 156505.6 -101802.9 156521.03 -101804.5 156523.903 -101805.102 156535.215 -101807.474 156559.074 -101804.5 156569.596 -101803.189 156574.25 -101802.9 156579.24 -101802.9 156579.243 -101802.9 156600.888 -101799.287 156652.088 -101792.906 156652.09 -101792.904 156658.06 -101791.128 156658.167 -101791.489 156660.399 -101790.774 156660.277 -101790.417 156666.167 -101788.394 156666.171 -101788.394 156711.544 -101763.839 156757.897 -101741.179 156757.899 -101741.176 156762.966 -101737.559 156763.186 -101737.867 156765.065 -101736.466 156764.833 -101736.168 156769.745 -101732.343 156769.753 -101732.339 156804.7 -101694.375 157049.075 -101450 163894.318 -101450 163914.956 -101606.763 163975.463 -101752.839 163975.465 -101752.842 164071.717 -101878.282 164149.801 -101938.197 164197.159 -101974.536 164343.238 -102035.044 164500 -102055.682 164656.762 -102035.044 164802.841 -101974.536 164928.282 -101878.282 164963.549 -101832.321 165006.932 -101804.683 165023.209 -101802.9 168355.6 -101802.9 168371.03 -101804.5 168373.903 -101805.102 168385.215 -101807.474 168409.074 -101804.5 168419.596 -101803.189 168424.25 -101802.9 168429.24 -101802.9 168429.243 -101802.9 168450.888 -101799.287 168502.088 -101792.906 168502.09 -101792.904 168508.06 -101791.128 168508.167 -101791.489 168510.399 -101790.774 168510.277 -101790.417 168516.167 -101788.394 168516.171 -101788.394 168561.544 -101763.839 168607.897 -101741.179 168607.899 -101741.176 168612.966 -101737.559 168613.186 -101737.867 168615.065 -101736.466 168614.833 -101736.168 168619.745 -101732.343 168619.753 -101732.339 168654.7 -101694.375 169668.143 -100680.931 169680.181 -100671.155 169692.318 -100663.227 169713.612 -100635.866 169716.671 -100632.403 169720.216 -100628.86 169730.841 -100613.977 169732.97 -100610.996 169741.184 -100600.443 169764.658 -100570.284 169764.659 -100570.28 169767.623 -100564.804 169767.956 -100564.984 169769.027 -100562.903 169768.688 -100562.737 169771.424 -100557.139 169771.424 -100557.138 169771.426 -100557.136 169786.147 -100507.688 169788.299 -100501.419 169802.899 -100458.893 169803.925 -100452.744 169804.294 -100452.805 169804.631 -100450.489 169804.261 -100450.443 169805.031 -100444.258 169805.032 -100444.255 169802.9 -100392.706 169802.9 -96573.208 169820.493 -96524.87 169832.316 -96513.551 169878.282 -96478.282 169974.536 -96352.841 170035.044 -96206.762 170055.682 -96050 170035.044 -95893.238 169974.536 -95747.159 169936.168 -95697.157 169878.282 -95621.717 169752.842 -95525.465 169752.841 -95525.464 169752.839 -95525.463 169606.763 -95464.956 169450 -95444.318 169293.236 -95464.956 169147.16 -95525.463 169147.157 -95525.465 169021.717 -95621.717 168925.465 -95747.157 168925.463 -95747.16 168864.956 -95893.236 168844.318 -96050 168864.956 -96206.763 168925.463 -96352.839 168925.464 -96352.841 169021.718 -96478.282 169067.679 -96513.548 169095.317 -96556.93 169097.1 -96573.208 169097.1 -100222.676 169079.507 -100271.014 169075.074 -100275.85 168275.85 -101075.074 168229.23 -101096.814 168222.676 -101097.1 165023.209 -101097.1 164974.871 -101079.507 164963.549 -101067.679 164928.282 -101021.717 164802.842 -100925.465 164802.841 -100925.464 164802.839 -100925.463 164656.763 -100864.956 164500 -100844.318 164343.236 -100864.956 164197.16 -100925.463 164197.157 -100925.465 164071.717 -101021.717 163975.465 -101147.157 163975.463 -101147.16 163914.956 -101293.236 163894.318 -101450 157049.075 -101450 157768.143 -100730.931 157780.181 -100721.155 157792.318 -100713.227 157813.612 -100685.866 157816.671 -100682.403 157820.216 -100678.86 157832.967 -100661 157864.658 -100620.284 157864.658 -100620.283 157864.66 -100620.281 157867.626 -100614.801 157867.957 -100614.98 157869.028 -100612.898 157868.689 -100612.733 157871.424 -100607.138 157871.424 -100607.137 157871.426 -100607.135 157886.149 -100557.682 157902.9 -100508.889 157902.9 -100508.887 157903.925 -100502.744 157904.294 -100502.805 157904.632 -100500.489 157904.262 -100500.443 157905.032 -100494.257 157905.033 -100494.255 157902.9 -100442.692 157902.9 -96523.208 157920.493 -96474.87 157932.316 -96463.551 157978.282 -96428.282 158074.536 -96302.841 158135.044 -96156.762 158155.682 -96000 158135.044 -95843.238 158074.536 -95697.159 158038.197 -95649.801 157978.282 -95571.717 157852.842 -95475.465 157852.841 -95475.464 157852.839 -95475.463 157706.763 -95414.956 157550 -95394.318 157393.236 -95414.956 157247.16 -95475.463 157247.157 -95475.465 157121.717 -95571.717 157025.465 -95697.157 157025.463 -95697.16 156964.956 -95843.236 156944.318 -96000 156964.956 -96156.763 156985.667 -96206.763 157025.464 -96302.841 157121.718 -96428.282 157167.679 -96463.548 157195.317 -96506.93 157197.1 -96523.208 157197.1 -100272.676 157179.507 -100321.014 157175.074 -100325.85 156425.85 -101075.074 156379.23 -101096.814 156372.676 -101097.1 153123.209 -101097.1 153074.871 -101079.507 153063.549 -101067.679 153028.282 -101021.717 152902.842 -100925.465 152902.841 -100925.464 152902.839 -100925.463 152756.763 -100864.956 152600 -100844.318 152443.236 -100864.956 152297.16 -100925.463 152297.157 -100925.465 152171.717 -101021.717 152075.465 -101147.157 152075.463 -101147.16 152014.956 -101293.236 151994.318 -101450 145199.075 -101450 145868.143 -100780.931 145880.181 -100771.155 145892.318 -100763.227 145913.612 -100735.866 145916.671 -100732.403 145920.216 -100728.86 145932.967 -100711 145964.658 -100670.284 145964.658 -100670.283 145964.66 -100670.281 145967.626 -100664.801 145967.957 -100664.98 145969.028 -100662.898 145968.689 -100662.733 145971.424 -100657.138 145971.424 -100657.137 145971.426 -100657.135 145986.149 -100607.682 146000.808 -100564.984 146002.899 -100558.893 146003.925 -100552.744 146004.294 -100552.805 146004.632 -100550.489 146004.262 -100550.443 146005.032 -100544.257 146005.033 -100544.255 146002.9 -100492.692 146002.9 -96573.208 146020.493 -96524.87 146032.316 -96513.551 146078.282 -96478.282 146174.536 -96352.841 146235.044 -96206.762 146255.682 -96050 146235.044 -95893.238 146174.536 -95747.159 146136.168 -95697.157 146078.282 -95621.717 145952.842 -95525.465 145952.841 -95525.464 145952.839 -95525.463 145806.763 -95464.956 145650 -95444.318 145493.236 -95464.956 145347.16 -95525.463 145347.157 -95525.465 145221.717 -95621.717 145125.465 -95747.157 145125.463 -95747.16 145064.956 -95893.236 145044.318 -96050 145064.956 -96206.763 145125.463 -96352.839 145125.464 -96352.841 145221.718 -96478.282 145267.679 -96513.548 145295.317 -96556.93 145297.1 -96573.208 145297.1 -100322.676 145279.507 -100371.014 145275.074 -100375.85 144575.85 -101075.074 144529.23 -101096.814 144522.676 -101097.1 141223.209 -101097.1 141174.871 -101079.507 141163.549 -101067.679 141128.282 -101021.717 141002.842 -100925.465 141002.841 -100925.464 141002.839 -100925.463 140856.763 -100864.956 140700 -100844.318 140543.236 -100864.956 140397.16 -100925.463 140397.157 -100925.465 140271.717 -101021.717 140175.465 -101147.157 140175.463 -101147.16 140114.956 -101293.236 140094.318 -101450 132899.075 -101450 133370.216 -100978.86 133518.145 -100830.929 133530.184 -100821.153 133542.318 -100813.227 133563.612 -100785.866 133566.671 -100782.403 133570.216 -100778.86 133582.967 -100761 133614.658 -100720.284 133614.658 -100720.283 133614.66 -100720.281 133617.626 -100714.801 133617.957 -100714.98 133619.028 -100712.898 133618.689 -100712.733 133621.424 -100707.138 133621.424 -100707.137 133621.426 -100707.135 133636.149 -100657.682 133646.044 -100628.86 133652.899 -100608.893 133653.925 -100602.744 133654.294 -100602.805 133654.632 -100600.489 133654.262 -100600.443 133655.032 -100594.257 133655.033 -100594.255 133652.9 -100542.692 133652.9 -96523.208 133670.493 -96474.87 133682.316 -96463.551 133728.282 -96428.282 133824.536 -96302.841 133885.044 -96156.762 133905.682 -96000 133885.044 -95843.238 133824.536 -95697.159 133788.197 -95649.801 133728.282 -95571.717 133602.842 -95475.465 133602.841 -95475.464 133602.839 -95475.463 133456.763 -95414.956 133300 -95394.318 133143.236 -95414.956 132997.16 -95475.463 132997.157 -95475.465 132871.717 -95571.717 132775.465 -95697.157 132775.463 -95697.16 132714.956 -95843.236 132694.318 -96000 132714.956 -96156.763 132735.667 -96206.763 132775.464 -96302.841 132871.718 -96428.282 132917.679 -96463.548 132945.317 -96506.93 132947.1 -96523.208 132947.1 -100372.676 132929.507 -100421.014 132925.074 -100425.85 132275.85 -101075.074 132229.23 -101096.814 132222.676 -101097.1 129323.209 -101097.1 129274.871 -101079.507 129263.549 -101067.679 129228.282 -101021.717 129102.842 -100925.465 129102.841 -100925.464 129102.839 -100925.463 128956.763 -100864.956 128800 -100844.318 128643.236 -100864.956 128497.16 -100925.463 128497.157 -100925.465 128371.717 -101021.717 128275.465 -101147.157 128275.463 -101147.16 128214.956 -101293.236 128194.318 -101450 123844.151 -101450 123857.562 -91300 126594.318 -91300 126614.956 -91456.763 126675.463 -91602.839 126675.464 -91602.841 126689.009 -91620.493 126771.717 -91728.282 126849.801 -91788.197 126897.159 -91824.536 127043.238 -91885.044 127200 -91905.682 127356.762 -91885.044 127502.841 -91824.536 127628.282 -91728.282 127663.549 -91682.321 127706.932 -91654.683 127723.209 -91652.9 131722.676 -91652.9 131771.014 -91670.493 131775.85 -91674.926 135225.074 -95124.15 135246.814 -95170.77 135247.1 -95177.324 135247.1 -97905.599 135245.5 -97921.028 135242.526 -97935.211 135242.526 -97935.215 135246.811 -97969.596 135247.1 -97974.25 135247.1 -97979.246 135248.07 -97985.055 135250.712 -98000.888 135257.094 -98052.088 135257.095 -98052.091 135258.872 -98058.058 135258.515 -98058.164 135259.231 -98060.398 135259.583 -98060.278 135261.605 -98066.169 135286.16 -98111.544 135308.821 -98157.897 135312.44 -98162.965 135312.135 -98163.182 135313.541 -98165.067 135313.836 -98164.838 135317.658 -98169.748 135317.661 -98169.753 135348.609 -98198.242 135355.624 -98204.7 136015.629 -98864.705 136037.369 -98911.325 136036.89 -98928.579 136034.274 -98946.777 136034.226 -98947.112 136054.806 -99090.252 136054.806 -99090.253 136054.807 -99090.255 136054.807 -99090.257 136114.878 -99221.793 136114.879 -99221.794 136114.88 -99221.796 136209.581 -99331.086 136331.237 -99409.27 136469.991 -99450.012 136469.994 -99450.012 136614.6 -99450.012 136614.603 -99450.012 136753.357 -99409.27 136875.013 -99331.086 136969.714 -99221.796 137029.788 -99090.252 137050.368 -98947.112 137029.788 -98803.972 137029.786 -98803.967 137029.786 -98803.966 136969.715 -98672.43 136969.714 -98672.429 136969.714 -98672.428 136875.013 -98563.138 136753.357 -98484.954 136753.356 -98484.953 136753.355 -98484.953 136614.6 -98444.211 136614.48 -98444.194 136614.392 -98444.15 136609.443 -98442.697 136609.705 -98441.803 136572.01 -98422.934 136309.787 -98160.711 136288.047 -98114.091 136301.361 -98064.404 136343.498 -98034.899 136384.147 -98035.383 136433.778 -98049.955 136499.913 -98069.375 136499.916 -98069.375 136644.522 -98069.375 136644.525 -98069.375 136783.279 -98028.633 136904.935 -97950.449 136999.636 -97841.159 137059.71 -97709.615 137080.29 -97566.475 137059.71 -97423.335 137059.708 -97423.33 137059.708 -97423.329 136999.637 -97291.793 136999.636 -97291.792 136999.636 -97291.791 136961.875 -97248.213 136943.486 -97226.99 136925.128 -97178.938 136925.119 -97177.745 136925.119 -92566.62 136926.72 -92551.187 136926.89 -92550.372 136929.694 -92537.004 136925.407 -92502.617 136925.119 -92497.969 136925.119 -92492.978 136925.119 -92492.976 136921.508 -92471.34 136915.125 -92420.131 136915.123 -92420.127 136913.347 -92414.16 136913.706 -92414.053 136912.991 -92411.821 136912.637 -92411.943 136910.613 -92406.049 136910.613 -92406.048 136886.058 -92360.674 136872.372 -92332.679 136863.398 -92314.321 136859.777 -92309.25 136860.081 -92309.032 136858.68 -92307.154 136858.386 -92307.384 136854.558 -92302.466 136816.594 -92267.518 135969.502 -91420.426 135947.762 -91373.806 135948.12 -91357.435 135955.682 -91300.003 135955.682 -91300.002 135955.682 -91300 135949.099 -91250 138444.318 -91250 138464.956 -91406.763 138525.463 -91552.839 138525.465 -91552.842 138621.717 -91678.282 138686.879 -91728.282 138747.159 -91774.536 138893.238 -91835.044 139050 -91855.682 139206.762 -91835.044 139352.841 -91774.536 139478.282 -91678.282 139513.549 -91632.321 139556.932 -91604.683 139573.209 -91602.9 143372.676 -91602.9 143421.014 -91620.493 143425.85 -91624.926 147125.074 -95324.15 147146.814 -95370.77 147147.1 -95377.324 147147.1 -97934.088 147145.5 -97949.517 147142.526 -97963.7 147142.526 -97963.704 147146.811 -97998.085 147147.1 -98002.739 147147.1 -98007.735 147149.157 -98020.058 147150.712 -98029.377 147157.094 -98080.577 147157.095 -98080.58 147158.872 -98086.547 147158.515 -98086.653 147159.231 -98088.887 147159.583 -98088.767 147161.605 -98094.658 147186.16 -98140.033 147208.821 -98186.386 147212.44 -98191.454 147212.135 -98191.671 147213.541 -98193.556 147213.836 -98193.327 147217.658 -98198.237 147217.661 -98198.242 147252.939 -98230.717 147255.624 -98233.189 147941.007 -98918.572 147962.268 -98961.044 147980.797 -99089.917 147980.797 -99089.918 147980.798 -99089.92 147980.798 -99089.922 148040.869 -99221.458 148040.87 -99221.459 148040.871 -99221.461 148135.572 -99330.751 148257.228 -99408.935 148395.982 -99449.677 148395.985 -99449.677 148540.591 -99449.677 148540.594 -99449.677 148679.348 -99408.935 148801.004 -99330.751 148895.705 -99221.461 148955.779 -99089.917 148976.359 -98946.777 148955.779 -98803.637 148955.777 -98803.632 148955.777 -98803.631 148895.706 -98672.095 148895.705 -98672.094 148895.705 -98672.093 148801.004 -98562.803 148679.348 -98484.619 148679.347 -98484.618 148679.346 -98484.618 148540.596 -98443.877 148540.594 -98443.877 148495.612 -98443.877 148447.274 -98426.284 148442.438 -98421.851 148067.815 -98047.228 148049.078 -98007.048 148028.399 -98003.74 148011.787 -97991.2 147874.926 -97854.339 147853.186 -97807.719 147852.9 -97801.165 147852.9 -97710.115 147870.493 -97661.777 147915.042 -97636.057 147965.7 -97644.99 147995.608 -97680.633 147996.853 -97680.065 148059.16 -97816.498 148059.161 -97816.499 148059.162 -97816.501 148111.277 -97876.644 148121.793 -97888.78 148135.394 -97924.379 148152.77 -97925.9 148161.636 -97930.786 148275.519 -98003.975 148414.273 -98044.717 148414.276 -98044.717 148558.882 -98044.717 148558.885 -98044.717 148697.639 -98003.975 148819.295 -97925.791 148913.996 -97816.501 148974.07 -97684.957 148994.65 -97541.817 148974.07 -97398.677 148974.068 -97398.672 148974.068 -97398.671 148913.997 -97267.135 148913.996 -97267.134 148913.996 -97267.133 148870.996 -97217.508 148857.846 -97202.332 148839.488 -97154.28 148839.479 -97153.087 148839.479 -92430.975 148841.08 -92415.542 148842.107 -92410.645 148844.053 -92401.364 148841.457 -92380.537 148839.768 -92366.982 148839.479 -92362.328 148839.479 -92357.337 148835.866 -92335.69 148833.203 -92314.322 148829.485 -92284.491 148829.483 -92284.487 148827.707 -92278.52 148828.066 -92278.413 148827.351 -92276.181 148826.997 -92276.303 148824.973 -92270.409 148824.973 -92270.408 148800.418 -92225.034 148782.296 -92187.964 148777.758 -92178.681 148774.137 -92173.61 148774.441 -92173.392 148773.04 -92171.514 148772.746 -92171.744 148768.918 -92166.826 148730.954 -92131.878 148019.502 -91420.426 147997.762 -91373.806 147998.12 -91357.435 148005.682 -91300.003 148005.682 -91300.002 148005.682 -91300 150394.318 -91300 150414.956 -91456.763 150475.463 -91602.839 150475.464 -91602.841 150489.009 -91620.493 150571.717 -91728.282 150649.801 -91788.197 150697.159 -91824.536 150843.238 -91885.044 151000 -91905.682 151156.762 -91885.044 151302.841 -91824.536 151428.282 -91728.282 151463.549 -91682.321 151506.932 -91654.683 151523.209 -91652.9 156172.676 -91652.9 156221.014 -91670.493 156225.85 -91674.926 159125.074 -94574.15 159146.814 -94620.77 159147.1 -94627.324 159147.1 -97993.403 159145.5 -98008.832 159142.526 -98023.015 159142.526 -98023.019 159146.811 -98057.4 159147.1 -98062.054 159147.1 -98067.05 159149.357 -98080.575 159150.712 -98088.692 159157.094 -98139.892 159157.095 -98139.895 159158.872 -98145.862 159158.515 -98145.968 159159.231 -98148.202 159159.583 -98148.082 159161.605 -98153.973 159161.605 -98153.974 159161.606 -98153.975 159181.888 -98191.454 159186.16 -98199.348 159208.821 -98245.701 159212.44 -98250.769 159212.135 -98250.986 159213.541 -98252.871 159213.836 -98252.642 159217.658 -98257.552 159217.661 -98257.557 159239.347 -98277.52 159255.624 -98292.504 159846.322 -98883.202 159867.583 -98925.674 159870.568 -98946.433 159886.112 -99054.547 159886.112 -99054.548 159886.113 -99054.55 159886.113 -99054.552 159946.184 -99186.088 159946.185 -99186.089 159946.186 -99186.091 160040.887 -99295.381 160162.543 -99373.565 160301.297 -99414.307 160301.3 -99414.307 160445.906 -99414.307 160445.909 -99414.307 160584.663 -99373.565 160706.319 -99295.381 160801.02 -99186.091 160861.094 -99054.547 160881.674 -98911.407 160861.094 -98768.267 160861.092 -98768.262 160861.092 -98768.261 160801.021 -98636.725 160801.02 -98636.724 160801.02 -98636.723 160706.319 -98527.433 160584.663 -98449.249 160584.662 -98449.248 160584.661 -98449.248 160445.911 -98408.507 160445.909 -98408.507 160400.927 -98408.507 160352.589 -98390.914 160347.753 -98386.481 160012.031 -98050.759 159990.291 -98004.139 160003.605 -97954.452 160045.742 -97924.947 160096.986 -97929.431 160105.854 -97934.318 160184.801 -97985.055 160323.555 -98025.797 160323.558 -98025.797 160468.164 -98025.797 160468.167 -98025.797 160606.921 -97985.055 160728.577 -97906.871 160823.278 -97797.581 160863.451 -97709.615 160883.35 -97666.042 160883.35 -97666.041 160883.352 -97666.037 160903.932 -97522.897 160883.352 -97379.757 160883.35 -97379.752 160883.35 -97379.751 160823.279 -97248.215 160823.278 -97248.214 160823.278 -97248.213 160782.736 -97201.425 160767.128 -97183.412 160748.77 -97135.36 160748.761 -97134.167 160748.761 -92440.257 160750.362 -92424.824 160752.598 -92414.16 160753.335 -92410.646 160750.054 -92384.321 160749.05 -92376.264 160748.761 -92371.61 160748.761 -92366.619 160748.435 -92364.668 160745.148 -92344.972 160738.767 -92293.773 160738.765 -92293.769 160736.989 -92287.802 160737.348 -92287.695 160736.633 -92285.463 160736.279 -92285.585 160734.255 -92279.691 160734.255 -92279.69 160709.7 -92234.316 160687.04 -92187.964 160687.04 -92187.963 160683.419 -92182.892 160683.723 -92182.674 160682.322 -92180.796 160682.028 -92181.026 160678.2 -92176.108 160640.236 -92141.16 159869.502 -91370.426 159847.762 -91323.806 159848.12 -91307.435 159849.099 -91300 162244.318 -91300 162264.956 -91456.763 162325.463 -91602.839 162325.464 -91602.841 162339.009 -91620.493 162421.717 -91728.282 162499.801 -91788.197 162547.159 -91824.536 162693.238 -91885.044 162850 -91905.682 163006.762 -91885.044 163152.841 -91824.536 163278.282 -91728.282 163313.549 -91682.321 163356.932 -91654.683 163373.209 -91652.9 168122.676 -91652.9 168171.014 -91670.493 168175.85 -91674.926 170975.074 -94474.15 170996.814 -94520.77 170997.1 -94527.324 170997.1 -97978.419 170995.5 -97993.848 170992.526 -98008.031 170992.526 -98008.035 170996.811 -98042.416 170997.1 -98047.07 170997.1 -98052.066 170998.471 -98060.278 171000.712 -98073.708 171007.094 -98124.908 171007.095 -98124.911 171008.872 -98130.878 171008.515 -98130.984 171009.231 -98133.218 171009.583 -98133.098 171011.605 -98138.989 171036.16 -98184.364 171058.821 -98230.717 171062.44 -98235.785 171062.135 -98236.002 171063.541 -98237.887 171063.836 -98237.658 171067.658 -98242.568 171067.661 -98242.573 171105.624 -98277.52 171746.332 -98918.228 171767.593 -98960.7 171773.133 -98999.234 171786.122 -99089.573 171786.122 -99089.574 171786.123 -99089.576 171786.123 -99089.578 171846.194 -99221.114 171846.195 -99221.115 171846.196 -99221.117 171940.897 -99330.407 172062.553 -99408.591 172201.307 -99449.333 172201.31 -99449.333 172345.916 -99449.333 172345.919 -99449.333 172484.673 -99408.591 172606.329 -99330.407 172701.03 -99221.117 172761.104 -99089.573 172781.684 -98946.433 172761.104 -98803.293 172761.102 -98803.288 172761.102 -98803.287 172701.031 -98671.751 172701.03 -98671.75 172701.03 -98671.749 172606.329 -98562.459 172484.673 -98484.275 172484.672 -98484.274 172484.671 -98484.274 172345.921 -98443.533 172345.919 -98443.533 172300.937 -98443.533 172252.599 -98425.94 172247.763 -98421.507 171911.986 -98085.73 171890.246 -98039.11 171903.56 -97989.423 171945.697 -97959.918 171996.941 -97964.402 172005.81 -97969.29 172084.806 -98020.058 172223.56 -98060.8 172223.563 -98060.8 172368.169 -98060.8 172368.172 -98060.8 172506.926 -98020.058 172628.582 -97941.874 172723.283 -97832.584 172783.357 -97701.04 172803.937 -97557.9 172783.357 -97414.76 172783.355 -97414.755 172783.355 -97414.754 172723.284 -97283.218 172723.283 -97283.217 172723.283 -97283.216 172673.777 -97226.083 172667.133 -97218.415 172648.775 -97170.363 172648.766 -97169.17 172648.766 -92590.267 172650.367 -92574.834 172653.34 -92560.654 172653.341 -92560.651 172649.054 -92526.264 172648.766 -92521.616 172648.766 -92516.625 172648.766 -92516.623 172645.155 -92494.987 172638.772 -92443.778 172638.77 -92443.774 172636.994 -92437.807 172637.353 -92437.7 172636.638 -92435.468 172636.284 -92435.59 172634.26 -92429.696 172634.26 -92429.695 172609.705 -92384.321 172600.097 -92364.668 172587.045 -92337.968 172583.424 -92332.897 172583.728 -92332.679 172582.327 -92330.801 172582.033 -92331.031 172578.205 -92326.113 172540.241 -92291.165 171669.502 -91420.426 171647.762 -91373.806 171648.12 -91357.435 171655.682 -91300.003 171655.682 -91300.002 171655.682 -91300 171635.044 -91143.238 171574.536 -90997.159 171536.168 -90947.157 171478.282 -90871.717 171352.842 -90775.465 171352.841 -90775.464 171352.839 -90775.463 171206.763 -90714.956 171050 -90694.318 170893.236 -90714.956 170747.16 -90775.463 170747.157 -90775.465 170621.717 -90871.717 170525.465 -90997.157 170525.463 -90997.16 170464.956 -91143.236 170444.318 -91300 170464.956 -91456.763 170525.463 -91602.839 170525.464 -91602.841 170539.009 -91620.493 170621.717 -91728.282 170699.801 -91788.197 170747.159 -91824.536 170893.238 -91885.044 171050 -91905.682 171050.001 -91905.681 171050.003 -91905.682 171107.435 -91898.12 171157.656 -91909.252 171170.426 -91919.502 171920.94 -92670.016 171942.68 -92716.636 171942.966 -92723.19 171942.966 -97169.17 171925.373 -97217.508 171924.599 -97218.415 171868.448 -97283.217 171846.504 -97331.268 171810.42 -97367.928 171759.213 -97372.818 171716.844 -97343.648 171702.9 -97300.028 171702.9 -94394.396 171704.501 -94378.963 171707.473 -94364.788 171707.474 -94364.785 171703.616 -94333.83 171703.189 -94330.403 171702.9 -94325.749 171702.9 -94320.758 171699.287 -94299.111 171697.959 -94288.455 171692.906 -94247.912 171692.904 -94247.908 171691.128 -94241.941 171691.487 -94241.834 171690.772 -94239.602 171690.418 -94239.724 171688.394 -94233.83 171688.394 -94233.829 171663.839 -94188.455 171641.179 -94142.103 171641.179 -94142.102 171637.558 -94137.031 171637.862 -94136.813 171636.461 -94134.935 171636.167 -94135.165 171632.339 -94130.247 171594.375 -94095.299 168580.934 -91081.858 168571.152 -91069.813 168563.226 -91057.681 168535.886 -91036.402 168532.391 -91033.314 168528.864 -91029.787 168528.859 -91029.783 168524.039 -91026.342 168511 -91017.032 168470.284 -90985.342 168470.28 -90985.34 168464.803 -90982.376 168464.98 -90982.047 168462.897 -90980.975 168462.733 -90981.311 168457.133 -90978.573 168407.682 -90963.85 168358.891 -90947.1 168352.743 -90946.075 168352.804 -90945.704 168350.489 -90945.367 168350.443 -90945.738 168344.257 -90944.967 168344.255 -90944.967 168292.693 -90947.1 163373.209 -90947.1 163324.871 -90929.507 163313.549 -90917.679 163278.282 -90871.717 163152.842 -90775.465 163152.841 -90775.464 163152.839 -90775.463 163006.763 -90714.956 162850 -90694.318 162693.236 -90714.956 162547.16 -90775.463 162547.157 -90775.465 162421.717 -90871.717 162325.465 -90997.157 162325.463 -90997.16 162264.956 -91143.236 162244.318 -91300 159849.099 -91300 159855.682 -91250.003 159855.682 -91250.002 159855.682 -91250 159835.044 -91093.238 159774.536 -90947.159 159738.197 -90899.801 159678.282 -90821.717 159552.842 -90725.465 159552.841 -90725.464 159552.839 -90725.463 159406.763 -90664.956 159250 -90644.318 159093.236 -90664.956 158947.16 -90725.463 158947.157 -90725.465 158821.717 -90821.717 158725.465 -90947.157 158725.463 -90947.16 158664.956 -91093.236 158644.318 -91250 158664.956 -91406.763 158725.463 -91552.839 158725.465 -91552.842 158821.717 -91678.282 158886.879 -91728.282 158947.159 -91774.536 159093.238 -91835.044 159250 -91855.682 159250.001 -91855.681 159250.003 -91855.682 159307.435 -91848.12 159357.656 -91859.252 159370.426 -91869.502 160020.935 -92520.011 160042.675 -92566.631 160042.961 -92573.185 160042.961 -97134.167 160025.368 -97182.505 160024.594 -97183.412 159984.933 -97229.184 159939.982 -97254.194 159889.472 -97244.46 159857.036 -97204.535 159852.9 -97179.939 159852.9 -94494.4 159854.5 -94478.97 159855.51 -94474.15 159857.474 -94464.785 159854.878 -94443.958 159853.189 -94430.403 159852.9 -94425.749 159852.9 -94420.758 159849.287 -94399.111 159848.699 -94394.396 159842.906 -94347.912 159842.904 -94347.908 159841.128 -94341.941 159841.487 -94341.834 159840.772 -94339.602 159840.418 -94339.724 159838.394 -94333.83 159838.394 -94333.829 159813.839 -94288.455 159794.019 -94247.912 159791.179 -94242.102 159787.558 -94237.031 159787.862 -94236.813 159786.461 -94234.935 159786.167 -94235.165 159782.339 -94230.247 159744.375 -94195.299 156630.934 -91081.858 156621.152 -91069.813 156613.226 -91057.681 156585.886 -91036.402 156582.391 -91033.314 156578.864 -91029.787 156578.859 -91029.783 156574.039 -91026.342 156561 -91017.032 156520.284 -90985.342 156520.28 -90985.34 156514.803 -90982.376 156514.98 -90982.047 156512.897 -90980.975 156512.733 -90981.311 156507.133 -90978.573 156457.682 -90963.85 156408.891 -90947.1 156402.743 -90946.075 156402.804 -90945.704 156400.489 -90945.367 156400.443 -90945.738 156394.257 -90944.967 156394.255 -90944.967 156342.693 -90947.1 151523.209 -90947.1 151474.871 -90929.507 151463.549 -90917.679 151428.282 -90871.717 151302.842 -90775.465 151302.841 -90775.464 151302.839 -90775.463 151156.763 -90714.956 151000 -90694.318 150843.236 -90714.956 150697.16 -90775.463 150697.157 -90775.465 150571.717 -90871.717 150475.465 -90997.157 150475.463 -90997.16 150414.956 -91143.236 150394.318 -91300 148005.682 -91300 147985.044 -91143.238 147924.536 -90997.159 147886.168 -90947.157 147828.282 -90871.717 147702.842 -90775.465 147702.841 -90775.464 147702.839 -90775.463 147556.763 -90714.956 147400 -90694.318 147243.236 -90714.956 147097.16 -90775.463 147097.157 -90775.465 146971.717 -90871.717 146875.465 -90997.157 146875.463 -90997.16 146814.956 -91143.236 146794.318 -91300 146814.956 -91456.763 146875.463 -91602.839 146875.464 -91602.841 146889.009 -91620.493 146971.717 -91728.282 147049.801 -91788.197 147097.159 -91824.536 147243.238 -91885.044 147400 -91905.682 147400.001 -91905.681 147400.003 -91905.682 147457.435 -91898.12 147507.656 -91909.252 147520.426 -91919.502 148111.653 -92510.729 148133.393 -92557.349 148133.679 -92563.903 148133.679 -97153.087 148116.086 -97201.425 148115.312 -97202.332 148059.16 -97267.135 147996.853 -97403.569 147994.515 -97402.501 147969.746 -97436.133 147919.755 -97448.254 147873.668 -97425.405 147853.051 -97378.277 147852.9 -97373.518 147852.9 -95244.396 147854.501 -95228.963 147857.473 -95214.788 147857.474 -95214.785 147854.878 -95193.958 147853.189 -95180.403 147852.9 -95175.749 147852.9 -95170.758 147849.287 -95149.111 147846.176 -95124.15 147842.906 -95097.912 147842.904 -95097.908 147841.128 -95091.941 147841.487 -95091.834 147840.772 -95089.602 147840.418 -95089.724 147838.394 -95083.83 147838.394 -95083.829 147813.839 -95038.455 147802.269 -95014.788 147791.179 -94992.102 147787.558 -94987.031 147787.862 -94986.813 147786.461 -94984.935 147786.167 -94985.165 147782.339 -94980.247 147744.375 -94945.299 143830.934 -91031.858 143821.152 -91019.813 143819.335 -91017.032 143813.227 -91007.682 143785.882 -90986.399 143782.391 -90983.314 143778.864 -90979.787 143778.859 -90979.783 143774.887 -90976.947 143761 -90967.032 143720.284 -90935.342 143720.28 -90935.34 143714.803 -90932.376 143714.98 -90932.047 143712.897 -90930.975 143712.733 -90931.311 143707.133 -90928.573 143657.682 -90913.85 143608.891 -90897.1 143602.743 -90896.075 143602.804 -90895.704 143600.489 -90895.367 143600.443 -90895.738 143594.257 -90894.967 143594.255 -90894.967 143542.693 -90897.1 139573.209 -90897.1 139524.871 -90879.507 139513.549 -90867.679 139478.282 -90821.717 139352.842 -90725.465 139352.841 -90725.464 139352.839 -90725.463 139206.763 -90664.956 139050 -90644.318 138893.236 -90664.956 138747.16 -90725.463 138747.157 -90725.465 138621.717 -90821.717 138525.465 -90947.157 138525.463 -90947.16 138464.956 -91093.236 138444.318 -91250 135949.099 -91250 135935.044 -91143.238 135874.536 -90997.159 135836.168 -90947.157 135778.282 -90871.717 135652.842 -90775.465 135652.841 -90775.464 135652.839 -90775.463 135506.763 -90714.956 135350 -90694.318 135193.236 -90714.956 135047.16 -90775.463 135047.157 -90775.465 134921.717 -90871.717 134825.465 -90997.157 134825.463 -90997.16 134764.956 -91143.236 134744.318 -91300 134764.956 -91456.763 134825.463 -91602.839 134825.464 -91602.841 134839.009 -91620.493 134921.717 -91728.282 134999.801 -91788.197 135047.159 -91824.536 135193.238 -91885.044 135350 -91905.682 135350.001 -91905.681 135350.003 -91905.682 135407.435 -91898.12 135457.656 -91909.252 135470.426 -91919.502 136197.293 -92646.369 136219.033 -92692.989 136219.319 -92699.543 136219.319 -97177.745 136201.726 -97226.083 136200.952 -97226.99 136144.8 -97291.793 136096.504 -97397.547 136060.42 -97434.208 136009.214 -97439.098 135966.844 -97409.928 135952.9 -97366.308 135952.9 -95044.396 135954.501 -95028.963 135957.473 -95014.788 135957.474 -95014.785 135954.015 -94987.031 135953.189 -94980.403 135952.9 -94975.749 135952.9 -94970.758 135949.287 -94949.111 135948.812 -94945.299 135942.906 -94897.912 135942.904 -94897.908 135941.128 -94891.941 135941.487 -94891.834 135940.772 -94889.602 135940.418 -94889.724 135938.394 -94883.83 135938.394 -94883.829 135913.839 -94838.455 135891.179 -94792.103 135891.179 -94792.102 135887.558 -94787.031 135887.862 -94786.813 135886.461 -94784.935 135886.167 -94785.165 135882.339 -94780.247 135844.375 -94745.299 132180.934 -91081.858 132171.152 -91069.813 132163.226 -91057.681 132135.886 -91036.402 132132.391 -91033.314 132128.864 -91029.787 132128.859 -91029.783 132124.039 -91026.342 132111 -91017.032 132070.284 -90985.342 132070.28 -90985.34 132064.803 -90982.376 132064.98 -90982.047 132062.897 -90980.975 132062.733 -90981.311 132057.133 -90978.573 132007.682 -90963.85 131958.891 -90947.1 131952.743 -90946.075 131952.804 -90945.704 131950.489 -90945.367 131950.443 -90945.738 131944.257 -90944.967 131944.255 -90944.967 131892.693 -90947.1 127723.209 -90947.1 127674.871 -90929.507 127663.549 -90917.679 127628.282 -90871.717 127502.842 -90775.465 127502.841 -90775.464 127502.839 -90775.463 127356.763 -90714.956 127200 -90694.318 127043.236 -90714.956 126897.16 -90775.463 126897.157 -90775.465 126771.717 -90871.717 126675.465 -90997.157 126675.463 -90997.16 126614.956 -91143.236 126594.318 -91300 123857.562 -91300 123864.334 -86175 145659.534 -86175 145679.313 -86325.236 145737.302 -86465.233 145737.303 -86465.235 145737.304 -86465.236 145829.548 -86585.451 145949.763 -86677.695 145949.767 -86677.698 146089.764 -86735.687 146202.28 -86750.5 146202.283 -86750.5 146277.717 -86750.5 146277.72 -86750.5 146390.236 -86735.687 146530.233 -86677.698 146650.451 -86585.451 146742.698 -86465.233 146800.687 -86325.236 146820.466 -86175 151439.534 -86175 151459.313 -86325.236 151517.302 -86465.233 151517.303 -86465.235 151517.304 -86465.236 151609.548 -86585.451 151729.763 -86677.695 151729.767 -86677.698 151869.764 -86735.687 151982.28 -86750.5 151982.283 -86750.5 152057.717 -86750.5 152057.72 -86750.5 152170.236 -86735.687 152310.233 -86677.698 152430.451 -86585.451 152522.698 -86465.233 152580.687 -86325.236 152600.466 -86175 152580.687 -86024.764 152522.698 -85884.767 152522.695 -85884.763 152430.451 -85764.548 152310.236 -85672.304 152310.235 -85672.303 152310.233 -85672.302 152219.734 -85634.816 152170.237 -85614.313 152142.107 -85610.609 152057.72 -85599.5 151982.28 -85599.5 151914.77 -85608.387 151869.762 -85614.313 151770.766 -85655.319 151729.767 -85672.302 151729.766 -85672.302 151729.763 -85672.304 151609.548 -85764.548 151517.304 -85884.763 151459.313 -86024.762 151459.313 -86024.764 151439.534 -86175 146820.466 -86175 146800.687 -86024.764 146742.698 -85884.767 146742.695 -85884.763 146650.451 -85764.548 146530.236 -85672.304 146530.235 -85672.303 146530.233 -85672.302 146439.734 -85634.816 146390.237 -85614.313 146362.107 -85610.609 146277.72 -85599.5 146202.28 -85599.5 146134.77 -85608.387 146089.762 -85614.313 145990.766 -85655.319 145949.767 -85672.302 145949.766 -85672.302 145949.763 -85672.304 145829.548 -85764.548 145737.304 -85884.763 145679.313 -86024.762 145679.313 -86024.764 145659.534 -86175 123864.334 -86175 123869.058 -82599.34 125119.5 -82599.34 125157.092 -82824.616 125160.429 -82844.614 125160.43 -82844.616 125241.173 -83079.813 125241.174 -83079.815 125359.524 -83298.507 125512.26 -83494.742 125512.264 -83494.746 125695.216 -83663.165 125903.39 -83799.172 125903.392 -83799.172 125903.393 -83799.173 126131.119 -83899.063 126372.179 -83960.108 126434.097 -83965.238 126557.927 -83975.5 126557.933 -83975.5 126682.073 -83975.5 126793.519 -83966.264 126867.821 -83960.108 127108.881 -83899.063 127336.607 -83799.173 127367.22 -83779.173 127544.783 -83663.165 127544.785 -83663.164 127727.738 -83494.744 127880.474 -83298.509 127998.828 -83079.81 128079.571 -82844.614 128120.5 -82599.335 128120.5 -82579.34 170079.5 -82579.34 170120.427 -82824.604 170120.429 -82824.614 170120.43 -82824.616 170201.173 -83059.813 170201.174 -83059.815 170319.524 -83278.507 170472.26 -83474.742 170472.264 -83474.746 170655.216 -83643.165 170863.39 -83779.172 170863.392 -83779.172 170863.393 -83779.173 171091.119 -83879.063 171332.179 -83940.108 171394.097 -83945.238 171517.927 -83955.5 171517.933 -83955.5 171642.073 -83955.5 171753.519 -83946.264 171827.821 -83940.108 172068.881 -83879.063 172296.607 -83779.173 172504.785 -83643.164 172687.738 -83474.744 172840.474 -83278.509 172958.828 -83059.81 173039.571 -82824.614 173080.5 -82579.335 173080.5 -82330.665 173039.571 -82085.386 172958.828 -81850.19 172958.781 -81850.103 172840.475 -81631.492 172687.739 -81435.257 172687.735 -81435.253 172504.783 -81266.834 172296.609 -81130.827 172296.605 -81130.826 172068.887 -81030.939 172068.883 -81030.938 172068.881 -81030.937 171827.821 -80969.892 171827.82 -80969.891 171827.817 -80969.891 171642.073 -80954.5 171642.067 -80954.5 171517.933 -80954.5 171517.927 -80954.5 171332.182 -80969.891 171253.205 -80989.891 171091.119 -81030.937 171091.117 -81030.937 171091.116 -81030.938 171091.112 -81030.939 170863.394 -81130.826 170863.39 -81130.827 170655.216 -81266.834 170472.264 -81435.253 170472.26 -81435.257 170319.524 -81631.492 170201.174 -81850.184 170201.173 -81850.186 170120.43 -82085.383 170120.427 -82085.395 170079.5 -82330.659 170079.5 -82579.34 128120.5 -82579.34 128120.5 -82350.665 128079.571 -82105.386 127998.828 -81870.19 127997.326 -81867.415 127880.475 -81651.492 127727.739 -81455.257 127727.735 -81455.253 127544.783 -81286.834 127336.609 -81150.827 127336.605 -81150.826 127108.887 -81050.939 127108.883 -81050.938 127108.881 -81050.937 126867.821 -80989.892 126867.82 -80989.891 126867.817 -80989.891 126682.073 -80974.5 126682.067 -80974.5 126557.933 -80974.5 126557.927 -80974.5 126372.182 -80989.891 126291.882 -81010.226 126131.119 -81050.937 126131.117 -81050.937 126131.116 -81050.938 126131.112 -81050.939 125903.394 -81150.826 125903.39 -81150.827 125695.216 -81286.834 125512.264 -81455.253 125512.26 -81455.257 125359.524 -81651.492 125241.174 -81870.184 125241.173 -81870.186 125160.43 -82105.383 125160.427 -82105.395 125119.5 -82350.659 125119.5 -82599.34 123869.058 -82599.34 123869.143 -82535.275 123869.186 -82535.16 123869.186 -82504.745 123869.245 -82502.637 123870.369 -82482.616 123875.676 -82388.113 123887.788 -82187.914 123888.249 -82183.9 123913.064 -82037.855 123916.728 -82017.862 123943.813 -81870.068 123944.652 -81866.497 123987.352 -81718.283 124008.166 -81651.492 124036.381 -81560.945 124037.521 -81557.797 124097.538 -81412.903 124164.241 -81264.7 124165.603 -81261.977 124242.102 -81123.562 124325.684 -80985.302 124327.162 -80983.047 124418.663 -80854.089 124419.636 -80852.784 124518.529 -80726.557 124520.03 -80724.764 124625.605 -80606.626 124626.943 -80605.211 124740.211 -80491.943 124741.626 -80490.605 124859.764 -80385.03 124861.557 -80383.529 124987.784 -80284.636 124989.089 -80283.663 125118.047 -80192.162 125120.302 -80190.684 125258.562 -80107.102 125396.977 -80030.603 125399.7 -80029.241 125547.903 -79962.538 125692.797 -79902.521 125695.945 -79901.381 125853.264 -79852.358 126001.497 -79809.652 126005.068 -79808.813 126172.801 -79778.073 126318.9 -79753.249 126322.914 -79752.788 126523.113 -79740.676 126626.73 -79734.857 126637.638 -79734.245 126639.746 -79734.186 126670.071 -79734.186 126670.313 -79734.171 171560.262 -79714.186 171562.358 -79714.244"/></g></svg>