<svg version="1.1" xmlns="http://www.w3.org/2000/svg" xmlns:xlink="http://www.w3.org/1999/xlink" stroke-linecap="round" stroke-linejoin="round" stroke-width="0" fill-rule="evenodd" width="47.08mm" height="14.58mm" viewBox="126300 -101475 47080 14580" id="yS4tVAycnCg3E3cFFxIe"><defs><g id="yS4tVAycnCg3E3cFFxIe_pad-11"><polygon points="-225,-250 225,-250 225,250 -225,250"/><circle cx="-225" cy="-250" r="225"/><circle cx="225" cy="-250" r="225"/><circle cx="225" cy="250" r="225"/><circle cx="-225" cy="250" r="225"/><polygon points="-225,-475 225,-475 225,-25 -225,-25"/><polygon points="450,-250 450,250 0,250 0,-250"/><polygon points="225,25 -225,25 -225,475 225,475"/><polygon points="0,250 0,-250 -450,-250 -450,250"/></g><g id="yS4tVAycnCg3E3cFFxIe_pad-12"><polygon points="-218.75,-256.25 218.75,-256.25 218.75,256.25 -218.75,256.25"/><circle cx="-218.75" cy="-256.25" r="218.75"/><circle cx="218.75" cy="-256.25" r="218.75"/><circle cx="218.75" cy="256.25" r="218.75"/><circle cx="-218.75" cy="256.25" r="218.75"/><polygon points="-218.75,-475 218.75,-475 218.75,-37.5 -218.75,-37.5"/><polygon points="437.5,-256.25 437.5,256.25 0,256.25 0,-256.25"/><polygon points="218.75,37.5 -218.75,37.5 -218.75,475 218.75,475"/><polygon points="0,256.25 0,-256.25 -437.5,-256.25 -437.5,256.25"/></g><g id="yS4tVAycnCg3E3cFFxIe_pad-13"><polygon points="218.75,256.25 -218.75,256.25 -218.75,-256.25 218.75,-256.25"/><circle cx="218.75" cy="256.25" r="218.75"/><circle cx="-218.75" cy="256.25" r="218.75"/><circle cx="-218.75" cy="-256.25" r="218.75"/><circle cx="218.75" cy="-256.25" r="218.75"/><polygon points="218.75,37.5 -218.75,37.5 -218.75,475 218.75,475"/><polygon points="0,256.25 0,-256.25 -437.5,-256.25 -437.5,256.25"/><polygon points="-218.75,-475 218.75,-475 218.75,-37.5 -218.75,-37.5"/><polygon points="437.5,-256.25 437.5,256.25 0,256.25 0,-256.25"/></g><g id="yS4tVAycnCg3E3cFFxIe_pad-14"><polygon points="275,-200 275,200 -275,200 -275,-200"/><circle cx="275" cy="-200" r="200"/><circle cx="275" cy="200" r="200"/><circle cx="-275" cy="200" r="200"/><circle cx="-275" cy="-200" r="200"/><polygon points="475,-200 475,200 75,200 75,-200"/><polygon points="275,0 -275,0 -275,400 275,400"/><polygon points="-75,200 -75,-200 -475,-200 -475,200"/><polygon points="-275,-400 275,-400 275,0 -275,0"/></g><g id="yS4tVAycnCg3E3cFFxIe_pad-15"><polygon points="-200,-275 200,-275 200,275 -200,275"/><circle cx="-200" cy="-275" r="200"/><circle cx="200" cy="-275" r="200"/><circle cx="200" cy="275" r="200"/><circle cx="-200" cy="275" r="200"/><polygon points="-200,-475 200,-475 200,-75 -200,-75"/><polygon points="400,-275 400,275 0,275 0,-275"/><polygon points="200,75 -200,75 -200,475 200,475"/><polygon points="0,275 0,-275 -400,-275 -400,275"/></g><rect x="-300" y="-725" width="600" height="1450" id="yS4tVAycnCg3E3cFFxIe_pad-16"/><rect x="-150" y="-725" width="300" height="1450" id="yS4tVAycnCg3E3cFFxIe_pad-17"/><g id="yS4tVAycnCg3E3cFFxIe_pad-18"><polygon points="200,275 -200,275 -200,-275 200,-275"/><circle cx="200" cy="275" r="200"/><circle cx="-200" cy="275" r="200"/><circle cx="-200" cy="-275" r="200"/><circle cx="200" cy="-275" r="200"/><polygon points="200,75 -200,75 -200,475 200,475"/><polygon points="0,275 0,-275 -400,-275 -400,275"/><polygon points="-200,-475 200,-475 200,-75 -200,-75"/><polygon points="400,-275 400,275 0,275 0,-275"/></g><g id="yS4tVAycnCg3E3cFFxIe_pad-19"><polygon points="362.5,1425 -362.5,1425 -362.5,-1425 362.5,-1425"/><circle cx="362.5" cy="1425" r="250"/><circle cx="-362.5" cy="1425" r="250"/><circle cx="-362.5" cy="-1425" r="250"/><circle cx="362.5" cy="-1425" r="250"/><polygon points="362.5,1175 -362.5,1175 -362.5,1675 362.5,1675"/><polygon points="-112.5,1425 -112.5,-1425 -612.5,-1425 -612.5,1425"/><polygon points="-362.5,-1675 362.5,-1675 362.5,-1175 -362.5,-1175"/><polygon points="612.5,-1425 612.5,1425 112.5,1425 112.5,-1425"/></g><g id="yS4tVAycnCg3E3cFFxIe_pad-20"><polygon points="-943,-258 943,-258 943,258 -943,258"/><circle cx="-943" cy="-258" r="42"/><circle cx="943" cy="-258" r="42"/><circle cx="943" cy="258" r="42"/><circle cx="-943" cy="258" r="42"/><polygon points="-943,-300 943,-300 943,-216 -943,-216"/><polygon points="985,-258 985,258 901,258 901,-258"/><polygon points="943,216 -943,216 -943,300 943,300"/><polygon points="-901,258 -901,-258 -985,-258 -985,258"/></g></defs><g transform="translate(0,-188370) scale(1,-1)" fill="currentColor" stroke="currentColor"><path d="M 167605 -99490 166315 -99490 166315 -97850 167605 -97850 167605 -99490" fill="none" stroke-width="10"/><path d="M 167605 -99490 166315 -99490 166315 -97850 167605 -97850 167605 -99490"/><path d="M 155710 -99450 154420 -99450 154420 -97810 155710 -97810 155710 -99450" fill="none" stroke-width="10"/><path d="M 155710 -99450 154420 -99450 154420 -97810 155710 -97810 155710 -99450"/><path d="M 131880 -99490 130590 -99490 130590 -97850 131880 -97850 131880 -99490" fill="none" stroke-width="10"/><path d="M 131880 -99490 130590 -99490 130590 -97850 131880 -97850 131880 -99490"/><path d="M 143800 -99480 142510 -99480 142510 -97840 143800 -97840 143800 -99480" fill="none" stroke-width="10"/><path d="M 143800 -99480 142510 -99480 142510 -97840 143800 -97840 143800 -99480"/><use xlink:href="#yS4tVAycnCg3E3cFFxIe_pad-11" x="159480" y="-96560"/><use xlink:href="#yS4tVAycnCg3E3cFFxIe_pad-11" x="161030" y="-96560"/><use xlink:href="#yS4tVAycnCg3E3cFFxIe_pad-12" x="140002.5" y="-91285"/><use xlink:href="#yS4tVAycnCg3E3cFFxIe_pad-12" x="141577.5" y="-91285"/><use xlink:href="#yS4tVAycnCg3E3cFFxIe_pad-13" x="134340" y="-91285"/><use xlink:href="#yS4tVAycnCg3E3cFFxIe_pad-13" x="132765" y="-91285"/><use xlink:href="#yS4tVAycnCg3E3cFFxIe_pad-14" x="126775" y="-99475"/><use xlink:href="#yS4tVAycnCg3E3cFFxIe_pad-14" x="126775" y="-97825"/><use xlink:href="#yS4tVAycnCg3E3cFFxIe_pad-11" x="135665" y="-101000"/><use xlink:href="#yS4tVAycnCg3E3cFFxIe_pad-11" x="137215" y="-101000"/><use xlink:href="#yS4tVAycnCg3E3cFFxIe_pad-15" x="135605" y="-99530"/><use xlink:href="#yS4tVAycnCg3E3cFFxIe_pad-15" x="137255" y="-99530"/><use xlink:href="#yS4tVAycnCg3E3cFFxIe_pad-16" x="152380" y="-87620"/><use xlink:href="#yS4tVAycnCg3E3cFFxIe_pad-16" x="151580" y="-87620"/><use xlink:href="#yS4tVAycnCg3E3cFFxIe_pad-17" x="150380" y="-87620"/><use xlink:href="#yS4tVAycnCg3E3cFFxIe_pad-17" x="149380" y="-87620"/><use xlink:href="#yS4tVAycnCg3E3cFFxIe_pad-17" x="148880" y="-87620"/><use xlink:href="#yS4tVAycnCg3E3cFFxIe_pad-17" x="147880" y="-87620"/><use xlink:href="#yS4tVAycnCg3E3cFFxIe_pad-16" x="146680" y="-87620"/><use xlink:href="#yS4tVAycnCg3E3cFFxIe_pad-16" x="145880" y="-87620"/><use xlink:href="#yS4tVAycnCg3E3cFFxIe_pad-16" x="145880" y="-87620"/><use xlink:href="#yS4tVAycnCg3E3cFFxIe_pad-16" x="146680" y="-87620"/><use xlink:href="#yS4tVAycnCg3E3cFFxIe_pad-17" x="147380" y="-87620"/><use xlink:href="#yS4tVAycnCg3E3cFFxIe_pad-17" x="148380" y="-87620"/><use xlink:href="#yS4tVAycnCg3E3cFFxIe_pad-17" x="149880" y="-87620"/><use xlink:href="#yS4tVAycnCg3E3cFFxIe_pad-17" x="150880" y="-87620"/><use xlink:href="#yS4tVAycnCg3E3cFFxIe_pad-16" x="151580" y="-87620"/><use xlink:href="#yS4tVAycnCg3E3cFFxIe_pad-16" x="152380" y="-87620"/><use xlink:href="#yS4tVAycnCg3E3cFFxIe_pad-13" x="146267.5" y="-91285"/><use xlink:href="#yS4tVAycnCg3E3cFFxIe_pad-13" x="144692.5" y="-91285"/><use xlink:href="#yS4tVAycnCg3E3cFFxIe_pad-14" x="162515" y="-99490"/><use xlink:href="#yS4tVAycnCg3E3cFFxIe_pad-14" x="162515" y="-97840"/><use xlink:href="#yS4tVAycnCg3E3cFFxIe_pad-11" x="159480" y="-100940"/><use xlink:href="#yS4tVAycnCg3E3cFFxIe_pad-11" x="161030" y="-100940"/><use xlink:href="#yS4tVAycnCg3E3cFFxIe_pad-18" x="172980" y="-98055"/><use xlink:href="#yS4tVAycnCg3E3cFFxIe_pad-18" x="171330" y="-98055"/><use xlink:href="#yS4tVAycnCg3E3cFFxIe_pad-15" x="159430" y="-99480"/><use xlink:href="#yS4tVAycnCg3E3cFFxIe_pad-15" x="161080" y="-99480"/><use xlink:href="#yS4tVAycnCg3E3cFFxIe_pad-14" x="150625" y="-99475"/><use xlink:href="#yS4tVAycnCg3E3cFFxIe_pad-14" x="150625" y="-97825"/><use xlink:href="#yS4tVAycnCg3E3cFFxIe_pad-15" x="171330" y="-99515"/><use xlink:href="#yS4tVAycnCg3E3cFFxIe_pad-15" x="172980" y="-99515"/><use xlink:href="#yS4tVAycnCg3E3cFFxIe_pad-12" x="163812.5" y="-91295"/><use xlink:href="#yS4tVAycnCg3E3cFFxIe_pad-12" x="165387.5" y="-91295"/><use xlink:href="#yS4tVAycnCg3E3cFFxIe_pad-19" x="169907.5" y="-93945"/><use xlink:href="#yS4tVAycnCg3E3cFFxIe_pad-19" x="163982.5" y="-93945"/><use xlink:href="#yS4tVAycnCg3E3cFFxIe_pad-13" x="170077.5" y="-91295"/><use xlink:href="#yS4tVAycnCg3E3cFFxIe_pad-13" x="168502.5" y="-91295"/><use xlink:href="#yS4tVAycnCg3E3cFFxIe_pad-19" x="134187.5" y="-93950"/><use xlink:href="#yS4tVAycnCg3E3cFFxIe_pad-19" x="128262.5" y="-93950"/><use xlink:href="#yS4tVAycnCg3E3cFFxIe_pad-11" x="135650" y="-96600"/><use xlink:href="#yS4tVAycnCg3E3cFFxIe_pad-11" x="137200" y="-96600"/><use xlink:href="#yS4tVAycnCg3E3cFFxIe_pad-11" x="171380" y="-96595"/><use xlink:href="#yS4tVAycnCg3E3cFFxIe_pad-11" x="172930" y="-96595"/><use xlink:href="#yS4tVAycnCg3E3cFFxIe_pad-20" x="164485" y="-96765"/><use xlink:href="#yS4tVAycnCg3E3cFFxIe_pad-20" x="164485" y="-98035"/><use xlink:href="#yS4tVAycnCg3E3cFFxIe_pad-20" x="164485" y="-99305"/><use xlink:href="#yS4tVAycnCg3E3cFFxIe_pad-20" x="164485" y="-100575"/><use xlink:href="#yS4tVAycnCg3E3cFFxIe_pad-20" x="169435" y="-100575"/><use xlink:href="#yS4tVAycnCg3E3cFFxIe_pad-20" x="169435" y="-99305"/><use xlink:href="#yS4tVAycnCg3E3cFFxIe_pad-20" x="169435" y="-98035"/><use xlink:href="#yS4tVAycnCg3E3cFFxIe_pad-20" x="169435" y="-96765"/><use xlink:href="#yS4tVAycnCg3E3cFFxIe_pad-11" x="147570" y="-100975"/><use xlink:href="#yS4tVAycnCg3E3cFFxIe_pad-11" x="149120" y="-100975"/><use xlink:href="#yS4tVAycnCg3E3cFFxIe_pad-11" x="171380" y="-100975"/><use xlink:href="#yS4tVAycnCg3E3cFFxIe_pad-11" x="172930" y="-100975"/><use xlink:href="#yS4tVAycnCg3E3cFFxIe_pad-15" x="147525" y="-99515"/><use xlink:href="#yS4tVAycnCg3E3cFFxIe_pad-15" x="149175" y="-99515"/><use xlink:href="#yS4tVAycnCg3E3cFFxIe_pad-20" x="152590" y="-96725"/><use xlink:href="#yS4tVAycnCg3E3cFFxIe_pad-20" x="152590" y="-97995"/><use xlink:href="#yS4tVAycnCg3E3cFFxIe_pad-20" x="152590" y="-99265"/><use xlink:href="#yS4tVAycnCg3E3cFFxIe_pad-20" x="152590" y="-100535"/><use xlink:href="#yS4tVAycnCg3E3cFFxIe_pad-20" x="157540" y="-100535"/><use xlink:href="#yS4tVAycnCg3E3cFFxIe_pad-20" x="157540" y="-99265"/><use xlink:href="#yS4tVAycnCg3E3cFFxIe_pad-20" x="157540" y="-97995"/><use xlink:href="#yS4tVAycnCg3E3cFFxIe_pad-20" x="157540" y="-96725"/><use xlink:href="#yS4tVAycnCg3E3cFFxIe_pad-18" x="161080" y="-98020"/><use xlink:href="#yS4tVAycnCg3E3cFFxIe_pad-18" x="159430" y="-98020"/><use xlink:href="#yS4tVAycnCg3E3cFFxIe_pad-19" x="157987.5" y="-93910"/><use xlink:href="#yS4tVAycnCg3E3cFFxIe_pad-19" x="152062.5" y="-93910"/><use xlink:href="#yS4tVAycnCg3E3cFFxIe_pad-12" x="128082.5" y="-91295"/><use xlink:href="#yS4tVAycnCg3E3cFFxIe_pad-12" x="129657.5" y="-91295"/><use xlink:href="#yS4tVAycnCg3E3cFFxIe_pad-14" x="138700" y="-97820"/><use xlink:href="#yS4tVAycnCg3E3cFFxIe_pad-14" x="138700" y="-99470"/><use xlink:href="#yS4tVAycnCg3E3cFFxIe_pad-18" x="149175" y="-98055"/><use xlink:href="#yS4tVAycnCg3E3cFFxIe_pad-18" x="147525" y="-98055"/><use xlink:href="#yS4tVAycnCg3E3cFFxIe_pad-18" x="137255" y="-98060"/><use xlink:href="#yS4tVAycnCg3E3cFFxIe_pad-18" x="135605" y="-98060"/><use xlink:href="#yS4tVAycnCg3E3cFFxIe_pad-13" x="158157.5" y="-91255"/><use xlink:href="#yS4tVAycnCg3E3cFFxIe_pad-13" x="156582.5" y="-91255"/><use xlink:href="#yS4tVAycnCg3E3cFFxIe_pad-12" x="151892.5" y="-91255"/><use xlink:href="#yS4tVAycnCg3E3cFFxIe_pad-12" x="153467.5" y="-91255"/><use xlink:href="#yS4tVAycnCg3E3cFFxIe_pad-11" x="147595" y="-96595"/><use xlink:href="#yS4tVAycnCg3E3cFFxIe_pad-11" x="149145" y="-96595"/><use xlink:href="#yS4tVAycnCg3E3cFFxIe_pad-20" x="128760" y="-96765"/><use xlink:href="#yS4tVAycnCg3E3cFFxIe_pad-20" x="128760" y="-98035"/><use xlink:href="#yS4tVAycnCg3E3cFFxIe_pad-20" x="128760" y="-99305"/><use xlink:href="#yS4tVAycnCg3E3cFFxIe_pad-20" x="128760" y="-100575"/><use xlink:href="#yS4tVAycnCg3E3cFFxIe_pad-20" x="133710" y="-100575"/><use xlink:href="#yS4tVAycnCg3E3cFFxIe_pad-20" x="133710" y="-99305"/><use xlink:href="#yS4tVAycnCg3E3cFFxIe_pad-20" x="133710" y="-98035"/><use xlink:href="#yS4tVAycnCg3E3cFFxIe_pad-20" x="133710" y="-96765"/><use xlink:href="#yS4tVAycnCg3E3cFFxIe_pad-20" x="140680" y="-96755"/><use xlink:href="#yS4tVAycnCg3E3cFFxIe_pad-20" x="140680" y="-98025"/><use xlink:href="#yS4tVAycnCg3E3cFFxIe_pad-20" x="140680" y="-99295"/><use xlink:href="#yS4tVAycnCg3E3cFFxIe_pad-20" x="140680" y="-100565"/><use xlink:href="#yS4tVAycnCg3E3cFFxIe_pad-20" x="145630" y="-100565"/><use xlink:href="#yS4tVAycnCg3E3cFFxIe_pad-20" x="145630" y="-99295"/><use xlink:href="#yS4tVAycnCg3E3cFFxIe_pad-20" x="145630" y="-98025"/><use xlink:href="#yS4tVAycnCg3E3cFFxIe_pad-20" x="145630" y="-96755"/><use xlink:href="#yS4tVAycnCg3E3cFFxIe_pad-19" x="146102.5" y="-93935"/><use xlink:href="#yS4tVAycnCg3E3cFFxIe_pad-19" x="140177.5" y="-93935"/></g></svg>