<svg version="1.1" xmlns="http://www.w3.org/2000/svg" xmlns:xlink="http://www.w3.org/1999/xlink" stroke-linecap="round" stroke-linejoin="round" stroke-width="0" fill-rule="evenodd" width="70.33158mm" height="46.749370000000006mm" viewBox="121678.69 -126413.06 70331.58 46749.37" id="DDDY_nhemsMSnLZsJ-iG"><g transform="translate(0,-206076.75) scale(1,-1)" fill="currentColor" stroke="currentColor"><path d="M 123868.69 -82503.69 123828.69 -112776.31 M 171561.31 -79713.69 126638.69 -79733.69 M 174331.31 -82483.69 A 2770.01 2770.01 0 0 1 171561.31 -79713.69 M 126598.69 -115546.31 171530 -115535 M 123828.69 -112776.31 A 2770.01 2770.01 0 0 1 126598.69 -115546.31 M 174300 -112765 174331.31 -82483.69 M 126638.69 -79733.69 A 2770.01 2770.01 0 0 1 123868.69 -82503.69 M 171530 -115535 A 2770 2770 0 0 1 174300 -112765" fill="none" stroke-width="100"/><path d="M 145915 -85850 146565 -86500 M 146565 -85850 145915 -86500 M 151695 -85850 152345 -86500 M 152345 -85850 151695 -86500" fill="none" stroke-width="65"/><path d="M 127830 -112795 A 1250 1250 0 0 1 125330 -112795 1250 1250 0 0 1 127830 -112795 M 127870 -82475 A 1250 1250 0 0 1 125370 -82475 1250 1250 0 0 1 127870 -82475 M 172790 -112775 A 1250 1250 0 0 1 170290 -112775 1250 1250 0 0 1 172790 -112775 M 172830 -82455 A 1250 1250 0 0 1 170330 -82455 1250 1250 0 0 1 172830 -82455" fill="none" stroke-width="250"/><path d="M 126386.45 -118711.15 126386.45 -116711.15 126862.64 -116711.15 127148.36 -116806.39 127338.83 -116996.87 127434.07 -117187.34 127529.31 -117568.29 127529.31 -117854.01 127434.07 -118234.96 127338.83 -118425.44 127148.36 -118615.91 126862.64 -118711.15 126386.45 -118711.15 M 128386.45 -118711.15 128386.45 -117377.82 M 128386.45 -117758.77 128481.69 -117568.29 128576.93 -117473.06 128767.41 -117377.82 128957.88 -117377.82 M 129624.55 -118711.15 129624.55 -117377.82 M 129624.55 -116711.15 129529.31 -116806.39 129624.55 -116901.63 129719.79 -116806.39 129624.55 -116711.15 129624.55 -116901.63 M 130862.64 -118711.15 130672.17 -118615.91 130576.93 -118425.44 130576.93 -116711.15 M 131910.26 -118711.15 131719.79 -118615.91 131624.55 -118425.44 131624.55 -116711.15 M 134195.98 -118711.15 134195.98 -116711.15 134862.64 -118139.72 135529.31 -116711.15 135529.31 -118711.15 M 137338.83 -118711.15 137338.83 -117663.53 137243.6 -117473.06 137053.12 -117377.82 136672.17 -117377.82 136481.69 -117473.06 M 137338.83 -118615.91 137148.36 -118711.15 136672.17 -118711.15 136481.69 -118615.91 136386.45 -118425.44 136386.45 -118234.96 136481.69 -118044.48 136672.17 -117949.25 137148.36 -117949.25 137338.83 -117854.01 M 138291.22 -117377.82 138291.22 -119377.82 M 138291.22 -117473.06 138481.69 -117377.82 138862.64 -117377.82 139053.12 -117473.06 139148.36 -117568.29 139243.6 -117758.77 139243.6 -118330.2 139148.36 -118520.67 139053.12 -118615.91 138862.64 -118711.15 138481.69 -118711.15 138291.22 -118615.91 M 140100.74 -118520.67 140195.98 -118615.91 140100.74 -118711.15 140005.5 -118615.91 140100.74 -118520.67 140100.74 -118711.15 M 140100.74 -117473.06 140195.98 -117568.29 140100.74 -117663.53 140005.5 -117568.29 140100.74 -117473.06 140100.74 -117663.53" fill="none" stroke-width="200"/><path d="M 123128.69 -121671.31 123778.69 -122321.31 M 123778.69 -121671.31 123128.69 -122321.31" fill="none" stroke-width="65"/><path d="M 126767.41 -120911.15 126957.88 -120911.15 127148.36 -121006.39 127243.6 -121101.63 127338.83 -121292.1 127434.07 -121673.06 127434.07 -122149.25 127338.83 -122530.2 127243.6 -122720.67 127148.36 -122815.91 126957.88 -122911.15 126767.41 -122911.15 126576.93 -122815.91 126481.69 -122720.67 126386.45 -122530.2 126291.22 -122149.25 126291.22 -121673.06 126386.45 -121292.1 126481.69 -121101.63 126576.93 -121006.39 126767.41 -120911.15 M 128291.22 -122720.67 128386.45 -122815.91 128291.22 -122911.15 128195.98 -122815.91 128291.22 -122720.67 128291.22 -122911.15 M 130100.74 -120911.15 129719.79 -120911.15 129529.31 -121006.39 129434.07 -121101.63 129243.6 -121387.34 129148.36 -121768.29 129148.36 -122530.2 129243.6 -122720.67 129338.83 -122815.91 129529.31 -122911.15 129910.26 -122911.15 130100.74 -122815.91 130195.98 -122720.67 130291.22 -122530.2 130291.22 -122054.01 130195.98 -121863.53 130100.74 -121768.29 129910.26 -121673.06 129529.31 -121673.06 129338.83 -121768.29 129243.6 -121863.53 129148.36 -122054.01 M 132100.74 -120911.15 131148.36 -120911.15 131053.12 -121863.53 131148.36 -121768.29 131338.83 -121673.06 131815.03 -121673.06 132005.5 -121768.29 132100.74 -121863.53 132195.98 -122054.01 132195.98 -122530.2 132100.74 -122720.67 132005.5 -122815.91 131815.03 -122911.15 131338.83 -122911.15 131148.36 -122815.91 131053.12 -122720.67 M 133434.07 -120911.15 133624.55 -120911.15 133815.03 -121006.39 133910.26 -121101.63 134005.5 -121292.1 134100.74 -121673.06 134100.74 -122149.25 134005.5 -122530.2 133910.26 -122720.67 133815.03 -122815.91 133624.55 -122911.15 133434.07 -122911.15 133243.6 -122815.91 133148.36 -122720.67 133053.12 -122530.2 132957.88 -122149.25 132957.88 -121673.06 133053.12 -121292.1 133148.36 -121101.63 133243.6 -121006.39 133434.07 -120911.15 M 134957.88 -122911.15 134957.88 -121577.82 M 134957.88 -121768.29 135053.12 -121673.06 135243.6 -121577.82 135529.31 -121577.82 135719.79 -121673.06 135815.03 -121863.53 135815.03 -122911.15 M 135815.03 -121863.53 135910.26 -121673.06 136100.74 -121577.82 136386.45 -121577.82 136576.93 -121673.06 136672.17 -121863.53 136672.17 -122911.15 M 137624.55 -122911.15 137624.55 -121577.82 M 137624.55 -121768.29 137719.79 -121673.06 137910.26 -121577.82 138195.98 -121577.82 138386.45 -121673.06 138481.69 -121863.53 138481.69 -122911.15 M 138481.69 -121863.53 138576.93 -121673.06 138767.41 -121577.82 139053.12 -121577.82 139243.6 -121673.06 139338.84 -121863.53 139338.84 -122911.15 M 143243.6 -120815.91 141529.31 -123387.34 M 145815.03 -120911.15 146005.5 -120911.15 146195.98 -121006.39 146291.22 -121101.63 146386.46 -121292.1 146481.69 -121673.06 146481.69 -122149.25 146386.46 -122530.2 146291.22 -122720.67 146195.98 -122815.91 146005.5 -122911.15 145815.03 -122911.15 145624.55 -122815.91 145529.31 -122720.67 145434.07 -122530.2 145338.84 -122149.25 145338.84 -121673.06 145434.07 -121292.1 145529.31 -121101.63 145624.55 -121006.39 145815.03 -120911.15 M 147338.84 -122720.67 147434.07 -122815.91 147338.84 -122911.15 147243.6 -122815.91 147338.84 -122720.67 147338.84 -122911.15 M 148672.17 -120911.15 148862.65 -120911.15 149053.12 -121006.39 149148.36 -121101.63 149243.6 -121292.1 149338.84 -121673.06 149338.84 -122149.25 149243.6 -122530.2 149148.36 -122720.67 149053.12 -122815.91 148862.65 -122911.15 148672.17 -122911.15 148481.69 -122815.91 148386.46 -122720.67 148291.22 -122530.2 148195.98 -122149.25 148195.98 -121673.06 148291.22 -121292.1 148386.46 -121101.63 148481.69 -121006.39 148672.17 -120911.15 M 150100.74 -121101.63 150195.98 -121006.39 150386.46 -120911.15 150862.65 -120911.15 151053.12 -121006.39 151148.36 -121101.63 151243.6 -121292.1 151243.6 -121482.58 151148.36 -121768.29 150005.5 -122911.15 151243.6 -122911.15 M 153053.12 -120911.15 152100.74 -120911.15 152005.5 -121863.53 152100.74 -121768.29 152291.22 -121673.06 152767.41 -121673.06 152957.88 -121768.29 153053.12 -121863.53 153148.36 -122054.01 153148.36 -122530.2 153053.12 -122720.67 152957.88 -122815.91 152767.41 -122911.15 152291.22 -122911.15 152100.74 -122815.91 152005.5 -122720.67 M 154862.65 -120911.15 154481.69 -120911.15 154291.22 -121006.39 154195.98 -121101.63 154005.5 -121387.34 153910.27 -121768.29 153910.27 -122530.2 154005.5 -122720.67 154100.74 -122815.91 154291.22 -122911.15 154672.17 -122911.15 154862.65 -122815.91 154957.88 -122720.67 155053.12 -122530.2 155053.12 -122054.01 154957.88 -121863.53 154862.65 -121768.29 154672.17 -121673.06 154291.22 -121673.06 154100.74 -121768.29 154005.5 -121863.53 153910.27 -122054.01 M 155815.03 -120911.15 155815.03 -121292.1 M 156576.93 -120911.15 156576.93 -121292.1 M 159529.31 -123673.06 159434.08 -123577.82 159243.6 -123292.1 159148.36 -123101.63 159053.12 -122815.91 158957.89 -122339.72 158957.89 -121958.77 159053.12 -121482.58 159148.36 -121196.87 159243.6 -121006.39 159434.08 -120720.67 159529.31 -120625.44 M 160195.98 -121101.63 160291.22 -121006.39 160481.69 -120911.15 160957.89 -120911.15 161148.36 -121006.39 161243.6 -121101.63 161338.84 -121292.1 161338.84 -121482.58 161243.6 -121768.29 160100.74 -122911.15 161338.84 -122911.15 M 163719.79 -122911.15 163719.79 -120911.15 M 164576.93 -122911.15 164576.93 -121863.53 164481.7 -121673.06 164291.22 -121577.82 164005.5 -121577.82 163815.03 -121673.06 163719.79 -121768.29 M 165815.03 -122911.15 165624.55 -122815.91 165529.31 -122720.67 165434.08 -122530.2 165434.08 -121958.77 165529.31 -121768.29 165624.55 -121673.06 165815.03 -121577.82 166100.74 -121577.82 166291.22 -121673.06 166386.46 -121768.29 166481.7 -121958.77 166481.7 -122530.2 166386.46 -122720.67 166291.22 -122815.91 166100.74 -122911.15 165815.03 -122911.15 M 167624.55 -122911.15 167434.08 -122815.91 167338.84 -122625.44 167338.84 -120911.15 M 169148.36 -122815.91 168957.89 -122911.15 168576.93 -122911.15 168386.46 -122815.91 168291.22 -122625.44 168291.22 -121863.53 168386.46 -121673.06 168576.93 -121577.82 168957.89 -121577.82 169148.36 -121673.06 169243.6 -121863.53 169243.6 -122054.01 168291.22 -122244.48 M 170005.51 -122815.91 170195.98 -122911.15 170576.93 -122911.15 170767.41 -122815.91 170862.65 -122625.44 170862.65 -122530.2 170767.41 -122339.72 170576.93 -122244.48 170291.22 -122244.48 170100.74 -122149.25 170005.51 -121958.77 170005.51 -121863.53 170100.74 -121673.06 170291.22 -121577.82 170576.93 -121577.82 170767.41 -121673.06 M 171529.32 -123673.06 171624.55 -123577.82 171815.03 -123292.1 171910.27 -123101.63 172005.51 -122815.91 172100.74 -122339.72 172100.74 -121958.77 172005.51 -121482.58 171910.27 -121196.87 171815.03 -121006.39 171624.55 -120720.67 171529.32 -120625.44 M 175148.36 -123673.06 175053.13 -123577.82 174862.65 -123292.1 174767.41 -123101.63 174672.17 -122815.91 174576.94 -122339.72 174576.94 -121958.77 174672.17 -121482.58 174767.41 -121196.87 174862.65 -121006.39 175053.13 -120720.67 175148.36 -120625.44 M 175910.27 -121577.82 175910.27 -122911.15 M 175910.27 -121768.29 176005.51 -121673.06 176195.98 -121577.82 176481.7 -121577.82 176672.17 -121673.06 176767.41 -121863.53 176767.41 -122911.15 M 178005.51 -122911.15 177815.03 -122815.91 177719.79 -122720.67 177624.55 -122530.2 177624.55 -121958.77 177719.79 -121768.29 177815.03 -121673.06 178005.51 -121577.82 178291.22 -121577.82 178481.7 -121673.06 178576.94 -121768.29 178672.17 -121958.77 178672.17 -122530.2 178576.94 -122720.67 178481.7 -122815.91 178291.22 -122911.15 178005.51 -122911.15 M 179243.6 -121577.82 180005.51 -121577.82 M 179529.32 -120911.15 179529.32 -122625.44 179624.55 -122815.91 179815.03 -122911.15 180005.51 -122911.15 M 182195.98 -121577.82 182195.98 -123577.82 M 182195.98 -121673.06 182386.46 -121577.82 182767.41 -121577.82 182957.89 -121673.06 183053.13 -121768.29 183148.36 -121958.77 183148.36 -122530.2 183053.13 -122720.67 182957.89 -122815.91 182767.41 -122911.15 182386.46 -122911.15 182195.98 -122815.91 M 184291.22 -122911.15 184100.75 -122815.91 184005.51 -122625.44 184005.51 -120911.15 M 185910.27 -122911.15 185910.27 -121863.53 185815.03 -121673.06 185624.56 -121577.82 185243.6 -121577.82 185053.13 -121673.06 M 185910.27 -122815.91 185719.79 -122911.15 185243.6 -122911.15 185053.13 -122815.91 184957.89 -122625.44 184957.89 -122434.96 185053.13 -122244.48 185243.6 -122149.25 185719.79 -122149.25 185910.27 -122054.01 M 186576.94 -121577.82 187338.84 -121577.82 M 186862.65 -120911.15 186862.65 -122625.44 186957.89 -122815.91 187148.36 -122911.15 187338.84 -122911.15 M 188767.41 -122815.91 188576.94 -122911.15 188195.98 -122911.15 188005.51 -122815.91 187910.27 -122625.44 187910.27 -121863.53 188005.51 -121673.06 188195.98 -121577.82 188576.94 -121577.82 188767.41 -121673.06 188862.65 -121863.53 188862.65 -122054.01 187910.27 -122244.48 M 190576.94 -122911.15 190576.94 -120911.15 M 190576.94 -122815.91 190386.46 -122911.15 190005.51 -122911.15 189815.03 -122815.91 189719.79 -122720.67 189624.56 -122530.2 189624.56 -121958.77 189719.79 -121768.29 189815.03 -121673.06 190005.51 -121577.82 190386.46 -121577.82 190576.94 -121673.06 M 191338.84 -123673.06 191434.08 -123577.82 191624.56 -123292.1 191719.79 -123101.63 191815.03 -122815.91 191910.27 -122339.72 191910.27 -121958.77 191815.03 -121482.58 191719.79 -121196.87 191624.56 -121006.39 191434.08 -120720.67 191338.84 -120625.44 M 123778.69 -124636.31 A 1000 1000 0 0 1 121778.69 -124636.31 1000 1000 0 0 1 123778.69 -124636.31 M 126291.22 -123741.63 126386.45 -123646.39 126576.93 -123551.15 127053.12 -123551.15 127243.6 -123646.39 127338.83 -123741.63 127434.07 -123932.1 127434.07 -124122.58 127338.83 -124408.29 126195.98 -125551.15 127434.07 -125551.15 M 128291.22 -125360.67 128386.45 -125455.91 128291.22 -125551.15 128195.98 -125455.91 128291.22 -125360.67 128291.22 -125551.15 M 130195.98 -123551.15 129243.6 -123551.15 129148.36 -124503.53 129243.6 -124408.29 129434.07 -124313.06 129910.26 -124313.06 130100.74 -124408.29 130195.98 -124503.53 130291.22 -124694.01 130291.22 -125170.2 130195.98 -125360.67 130100.74 -125455.91 129910.26 -125551.15 129434.07 -125551.15 129243.6 -125455.91 129148.36 -125360.67 M 131529.31 -123551.15 131719.79 -123551.15 131910.26 -123646.39 132005.5 -123741.63 132100.74 -123932.1 132195.98 -124313.06 132195.98 -124789.25 132100.74 -125170.2 132005.5 -125360.67 131910.26 -125455.91 131719.79 -125551.15 131529.31 -125551.15 131338.83 -125455.91 131243.6 -125360.67 131148.36 -125170.2 131053.12 -124789.25 131053.12 -124313.06 131148.36 -123932.1 131243.6 -123741.63 131338.83 -123646.39 131529.31 -123551.15 M 133434.07 -123551.15 133624.55 -123551.15 133815.03 -123646.39 133910.26 -123741.63 134005.5 -123932.1 134100.74 -124313.06 134100.74 -124789.25 134005.5 -125170.2 133910.26 -125360.67 133815.03 -125455.91 133624.55 -125551.15 133434.07 -125551.15 133243.6 -125455.91 133148.36 -125360.67 133053.12 -125170.2 132957.88 -124789.25 132957.88 -124313.06 133053.12 -123932.1 133148.36 -123741.63 133243.6 -123646.39 133434.07 -123551.15 M 134957.88 -125551.15 134957.88 -124217.82 M 134957.88 -124408.29 135053.12 -124313.06 135243.6 -124217.82 135529.31 -124217.82 135719.79 -124313.06 135815.03 -124503.53 135815.03 -125551.15 M 135815.03 -124503.53 135910.26 -124313.06 136100.74 -124217.82 136386.45 -124217.82 136576.93 -124313.06 136672.17 -124503.53 136672.17 -125551.15 M 137624.55 -125551.15 137624.55 -124217.82 M 137624.55 -124408.29 137719.79 -124313.06 137910.26 -124217.82 138195.98 -124217.82 138386.45 -124313.06 138481.69 -124503.53 138481.69 -125551.15 M 138481.69 -124503.53 138576.93 -124313.06 138767.41 -124217.82 139053.12 -124217.82 139243.6 -124313.06 139338.84 -124503.53 139338.84 -125551.15 M 143243.6 -123455.91 141529.31 -126027.34 M 145815.03 -123551.15 146005.5 -123551.15 146195.98 -123646.39 146291.22 -123741.63 146386.46 -123932.1 146481.69 -124313.06 146481.69 -124789.25 146386.46 -125170.2 146291.22 -125360.67 146195.98 -125455.91 146005.5 -125551.15 145815.03 -125551.15 145624.55 -125455.91 145529.31 -125360.67 145434.07 -125170.2 145338.84 -124789.25 145338.84 -124313.06 145434.07 -123932.1 145529.31 -123741.63 145624.55 -123646.39 145815.03 -123551.15 M 147338.84 -125360.67 147434.07 -125455.91 147338.84 -125551.15 147243.6 -125455.91 147338.84 -125360.67 147338.84 -125551.15 M 148672.17 -123551.15 148862.65 -123551.15 149053.12 -123646.39 149148.36 -123741.63 149243.6 -123932.1 149338.84 -124313.06 149338.84 -124789.25 149243.6 -125170.2 149148.36 -125360.67 149053.12 -125455.91 148862.65 -125551.15 148672.17 -125551.15 148481.69 -125455.91 148386.46 -125360.67 148291.22 -125170.2 148195.98 -124789.25 148195.98 -124313.06 148291.22 -123932.1 148386.46 -123741.63 148481.69 -123646.39 148672.17 -123551.15 M 150291.22 -125551.15 150672.17 -125551.15 150862.65 -125455.91 150957.88 -125360.67 151148.36 -125074.96 151243.6 -124694.01 151243.6 -123932.1 151148.36 -123741.63 151053.12 -123646.39 150862.65 -123551.15 150481.69 -123551.15 150291.22 -123646.39 150195.98 -123741.63 150100.74 -123932.1 150100.74 -124408.29 150195.98 -124598.77 150291.22 -124694.01 150481.69 -124789.25 150862.65 -124789.25 151053.12 -124694.01 151148.36 -124598.77 151243.6 -124408.29 M 152386.46 -124408.29 152195.98 -124313.06 152100.74 -124217.82 152005.5 -124027.34 152005.5 -123932.1 152100.74 -123741.63 152195.98 -123646.39 152386.46 -123551.15 152767.41 -123551.15 152957.88 -123646.39 153053.12 -123741.63 153148.36 -123932.1 153148.36 -124027.34 153053.12 -124217.82 152957.88 -124313.06 152767.41 -124408.29 152386.46 -124408.29 152195.98 -124503.53 152100.74 -124598.77 152005.5 -124789.25 152005.5 -125170.2 152100.74 -125360.67 152195.98 -125455.91 152386.46 -125551.15 152767.41 -125551.15 152957.88 -125455.91 153053.12 -125360.67 153148.36 -125170.2 153148.36 -124789.25 153053.12 -124598.77 152957.88 -124503.53 152767.41 -124408.29 M 154862.65 -124217.82 154862.65 -125551.15 M 154386.46 -123455.91 153910.27 -124884.48 155148.36 -124884.48 M 155815.03 -123551.15 155815.03 -123932.1 M 156576.93 -123551.15 156576.93 -123932.1 M 159529.31 -126313.06 159434.08 -126217.82 159243.6 -125932.1 159148.36 -125741.63 159053.12 -125455.91 158957.89 -124979.72 158957.89 -124598.77 159053.12 -124122.58 159148.36 -123836.87 159243.6 -123646.39 159434.08 -123360.67 159529.31 -123265.44 M 161148.36 -124217.82 161148.36 -125551.15 M 160672.17 -123455.91 160195.98 -124884.48 161434.08 -124884.48 M 163719.79 -125551.15 163719.79 -123551.15 M 164576.93 -125551.15 164576.93 -124503.53 164481.7 -124313.06 164291.22 -124217.82 164005.5 -124217.82 163815.03 -124313.06 163719.79 -124408.29 M 165815.03 -125551.15 165624.55 -125455.91 165529.31 -125360.67 165434.08 -125170.2 165434.08 -124598.77 165529.31 -124408.29 165624.55 -124313.06 165815.03 -124217.82 166100.74 -124217.82 166291.22 -124313.06 166386.46 -124408.29 166481.7 -124598.77 166481.7 -125170.2 166386.46 -125360.67 166291.22 -125455.91 166100.74 -125551.15 165815.03 -125551.15 M 167624.55 -125551.15 167434.08 -125455.91 167338.84 -125265.44 167338.84 -123551.15 M 169148.36 -125455.91 168957.89 -125551.15 168576.93 -125551.15 168386.46 -125455.91 168291.22 -125265.44 168291.22 -124503.53 168386.46 -124313.06 168576.93 -124217.82 168957.89 -124217.82 169148.36 -124313.06 169243.6 -124503.53 169243.6 -124694.01 168291.22 -124884.48 M 170005.51 -125455.91 170195.98 -125551.15 170576.93 -125551.15 170767.41 -125455.91 170862.65 -125265.44 170862.65 -125170.2 170767.41 -124979.72 170576.93 -124884.48 170291.22 -124884.48 170100.74 -124789.25 170005.51 -124598.77 170005.51 -124503.53 170100.74 -124313.06 170291.22 -124217.82 170576.93 -124217.82 170767.41 -124313.06 M 171529.32 -126313.06 171624.55 -126217.82 171815.03 -125932.1 171910.27 -125741.63 172005.51 -125455.91 172100.74 -124979.72 172100.74 -124598.77 172005.51 -124122.58 171910.27 -123836.87 171815.03 -123646.39 171624.55 -123360.67 171529.32 -123265.44 M 175148.36 -126313.06 175053.13 -126217.82 174862.65 -125932.1 174767.41 -125741.63 174672.17 -125455.91 174576.94 -124979.72 174576.94 -124598.77 174672.17 -124122.58 174767.41 -123836.87 174862.65 -123646.39 175053.13 -123360.67 175148.36 -123265.44 M 175910.27 -124217.82 175910.27 -125551.15 M 175910.27 -124408.29 176005.51 -124313.06 176195.98 -124217.82 176481.7 -124217.82 176672.17 -124313.06 176767.41 -124503.53 176767.41 -125551.15 M 178005.51 -125551.15 177815.03 -125455.91 177719.79 -125360.67 177624.55 -125170.2 177624.55 -124598.77 177719.79 -124408.29 177815.03 -124313.06 178005.51 -124217.82 178291.22 -124217.82 178481.7 -124313.06 178576.94 -124408.29 178672.17 -124598.77 178672.17 -125170.2 178576.94 -125360.67 178481.7 -125455.91 178291.22 -125551.15 178005.51 -125551.15 M 179243.6 -124217.82 180005.51 -124217.82 M 179529.32 -123551.15 179529.32 -125265.44 179624.55 -125455.91 179815.03 -125551.15 180005.51 -125551.15 M 182195.98 -124217.82 182195.98 -126217.82 M 182195.98 -124313.06 182386.46 -124217.82 182767.41 -124217.82 182957.89 -124313.06 183053.13 -124408.29 183148.36 -124598.77 183148.36 -125170.2 183053.13 -125360.67 182957.89 -125455.91 182767.41 -125551.15 182386.46 -125551.15 182195.98 -125455.91 M 184291.22 -125551.15 184100.75 -125455.91 184005.51 -125265.44 184005.51 -123551.15 M 185910.27 -125551.15 185910.27 -124503.53 185815.03 -124313.06 185624.56 -124217.82 185243.6 -124217.82 185053.13 -124313.06 M 185910.27 -125455.91 185719.79 -125551.15 185243.6 -125551.15 185053.13 -125455.91 184957.89 -125265.44 184957.89 -125074.96 185053.13 -124884.48 185243.6 -124789.25 185719.79 -124789.25 185910.27 -124694.01 M 186576.94 -124217.82 187338.84 -124217.82 M 186862.65 -123551.15 186862.65 -125265.44 186957.89 -125455.91 187148.36 -125551.15 187338.84 -125551.15 M 188767.41 -125455.91 188576.94 -125551.15 188195.98 -125551.15 188005.51 -125455.91 187910.27 -125265.44 187910.27 -124503.53 188005.51 -124313.06 188195.98 -124217.82 188576.94 -124217.82 188767.41 -124313.06 188862.65 -124503.53 188862.65 -124694.01 187910.27 -124884.48 M 190576.94 -125551.15 190576.94 -123551.15 M 190576.94 -125455.91 190386.46 -125551.15 190005.51 -125551.15 189815.03 -125455.91 189719.79 -125360.67 189624.56 -125170.2 189624.56 -124598.77 189719.79 -124408.29 189815.03 -124313.06 190005.51 -124217.82 190386.46 -124217.82 190576.94 -124313.06 M 191338.84 -126313.06 191434.08 -126217.82 191624.56 -125932.1 191719.79 -125741.63 191815.03 -125455.91 191910.27 -124979.72 191910.27 -124598.77 191815.03 -124122.58 191719.79 -123836.87 191624.56 -123646.39 191434.08 -123360.67 191338.84 -123265.44" fill="none" stroke-width="200"/></g></svg>